<?xml version="1.0" encoding="UTF-8"?>
<svg id="Layer_2" xmlns="http://www.w3.org/2000/svg" version="1.1" viewBox="0 0 155.9 23.8">
  <!-- Generator: Adobe Illustrator 29.1.0, SVG Export Plug-In . SVG Version: 2.1.0 Build 142)  -->
  <defs>
    <style>
      .st0 {
        fill: #103cb7;
      }
    </style>
  </defs>
  <g id="Layer_1-2">
    <g>
      <path class="st0" d="M9.4,21.1c.1.4.3.8.5,1.2.4,1,1.4,1.8,2.6,1.4,1.1-.4,1.5-1.6,1.2-2.7-.1-.4-.2-.8-.4-1.2-.4-1-1.5-1.9-2.6-1.5-1.1.4-1.6,1.6-1.2,2.7Z"/>
      <path class="st0" d="M9.4,11c0,.1.2.3.3.4.5.8,1.6,1,2.2.2.6-.8.3-1.8-.5-2.3-.1,0-.2-.2-.4-.3-.5-.3-1.2-.1-1.6.3-.4.5-.4,1.2,0,1.7h0Z"/>
      <path class="st0" d="M16,3.8c2.4,0,2-3.8-.3-3.8s-2,3.8.3,3.8Z"/>
      <path class="st0" d="M23.4,11.4c2.7,0,2.3-4.3-.3-4.3s-2.3,4.3.3,4.3Z"/>
      <path class="st0" d="M22.5,19.3c2.3,0,1.9-3.7-.3-3.7s-1.9,3.7.3,3.7Z"/>
      <path class="st0" d="M38.5,13.6c2.6,0,2.2-4.2-.3-4.2s-2.2,4.2.3,4.2Z"/>
      <path class="st0" d="M29.3,8c2.4,0,2-3.8-.3-3.8s-2,3.8.3,3.8Z"/>
      <path class="st0" d="M31.6,18c1.8,0,1.5-2.9-.2-2.9s-1.5,2.9.2,2.9Z"/>
      <path class="st0" d="M50.3,13.5c1.9,0,1.6-3-.2-3s-1.6,3,.2,3Z"/>
      <path class="st0" d="M50.8,5c2.2,0,1.8-3.5-.2-3.5s-1.8,3.5.2,3.5Z"/>
      <path class="st0" d="M63.2,10.4c2.1,0,1.7-3.3-.2-3.3s-1.7,3.3.2,3.3Z"/>
      <path class="st0" d="M44.4,20.2c2.2,0,1.8-3.5-.2-3.5s-1.8,3.5.2,3.5Z"/>
      <path class="st0" d="M57.2,19.6c2,0,1.7-3.3-.2-3.3s-1.7,3.3.2,3.3Z"/>
      <path class="st0" d="M36.3,3.7s0,0,.1.1c.4.4,1.3.6,1.8.2,0,0,0,0,.1-.1.5-.5.8-1.1.7-1.8-.2-.8-.8-1.4-1.6-1.5-1.8-.2-2.3,2.1-1.2,3.2h0Z"/>
      <path class="st0" d="M.3,6.3c0,.1.2.2.3.4.7.9,1.9,1.3,2.8.4.8-.7.8-2.3,0-3-.1,0-.2-.2-.4-.3-.7-.6-1.7-.7-2.4,0C0,4.4-.2,5.6.3,6.3h0Z"/>
      <path class="st0" d="M1.8,16c2.1,0,1.8-3.4-.2-3.4s-1.8,3.4.2,3.4Z"/>
      <path class="st0" d="M68.7,16.8c2,0,1.7-3.2-.2-3.2s-1.7,3.2.2,3.2Z"/>
      <path class="st0" d="M76.5,8.7c2.2,0,1.9-3.5-.2-3.5s-1.9,3.5.2,3.5Z"/>
      <path class="st0" d="M80.5,13.1c1.4,0,1.2-2.2-.2-2.2s-1.2,2.2.2,2.2Z"/>
      <path class="st0" d="M88.4,6.8c2.1,0,1.8-3.3-.2-3.3s-1.8,3.3.2,3.3Z"/>
      <path class="st0" d="M66.4,4.8c2.5,0,2.1-4-.3-4s-2.1,4,.3,4Z"/>
      <path class="st0" d="M78.7,18.2c2,0,1.7-3.2-.2-3.2s-1.7,3.2.2,3.2Z"/>
      <path class="st0" d="M92,15.4c1.9,0,1.6-3.1-.2-3.1s-1.6,3.1.2,3.1Z"/>
      <path class="st0" d="M103.9,10c2.1,0,1.8-3.4-.2-3.4s-1.8,3.4.2,3.4Z"/>
      <path class="st0" d="M94.3,10.1c2.2,0,1.8-3.5-.2-3.5s-1.8,3.5.2,3.5Z"/>
      <path class="st0" d="M100.7,17.3c2,0,1.7-3.3-.2-3.3s-1.7,3.3.2,3.3Z"/>
      <path class="st0" d="M89.7,21c2.1,0,1.8-3.4-.2-3.4s-1.8,3.4.2,3.4Z"/>
      <path class="st0" d="M112.2,15.6c2.2,0,1.8-3.5-.2-3.5s-1.8,3.5.2,3.5Z"/>
      <path class="st0" d="M118.6,20.7c2.3,0,2-3.8-.3-3.8s-2,3.8.3,3.8Z"/>
      <path class="st0" d="M121.8,11c2.2,0,1.8-3.5-.2-3.5s-1.8,3.5.2,3.5Z"/>
      <path class="st0" d="M111.7,5.9c2.1,0,1.8-3.3-.2-3.3s-1.8,3.3.2,3.3Z"/>
      <path class="st0" d="M130,5c1.6,0,1.3-2.5-.2-2.5s-1.3,2.5.2,2.5Z"/>
      <path class="st0" d="M135,13c1.8,0,1.6-3-.2-3s-1.6,3,.2,3Z"/>
      <path class="st0" d="M126.3,16c1.6,0,1.3-2.5-.2-2.5s-1.3,2.5.2,2.5Z"/>
      <path class="st0" d="M130.4,19.7c1.6,0,1.4-2.7-.2-2.7s-1.4,2.7.2,2.7Z"/>
      <path class="st0" d="M146,14.2c1.6,0,1.4-2.6-.2-2.6s-1.4,2.6.2,2.6Z"/>
      <path class="st0" d="M140.1,6.2c2,0,1.7-3.2-.2-3.2s-1.7,3.2.2,3.2Z"/>
      <path class="st0" d="M140.1,17.4c2.1,0,1.8-3.4-.2-3.4s-1.8,3.4.2,3.4Z"/>
      <path class="st0" d="M151.1,20.7c.8,0,1.3-.7,1.2-1.5,0-.1,0-.2,0-.3,0-.7-.7-1.4-1.4-1.4-.8,0-1.2.7-1.2,1.5,0,.1,0,.2,0,.3,0,.7.7,1.4,1.4,1.4h0Z"/>
      <path class="st0" d="M154.7,13c1.8,0,1.5-2.9-.2-2.9s-1.5,2.9.2,2.9Z"/>
      <path class="st0" d="M148.3,4.7c1.8,0,1.5-2.8-.2-2.8s-1.5,2.8.2,2.8Z"/>
      <path class="st0" d="M107.1,21.9c2.1,0,1.8-3.3-.2-3.3s-1.8,3.3.2,3.3Z"/>
      <path class="st0" d="M97.5,3.5c2,0,1.7-3.2-.2-3.2s-1.7,3.2.2,3.2Z"/>
    </g>
  </g>
</svg>