<svg xmlns="http://www.w3.org/2000/svg" width="117.924" height="40.824" viewBox="0 0 117.924 40.824">
  <style> path { fill: #103cb7; } @media (prefers-color-scheme: dark) { path { fill: #fd5151; } }</style>
  <g>
    <path d="M95.407,33.723c-.362-.114-.712.145-.911.691-.13.356-.21.729-.326,1.09A7.588,7.588,0,0,1,92.621,38.2a2.967,2.967,0,0,1-2.081,1.1q-2.053.135-4.114.187c-.649.015-.865-.228-.753-.885a13.534,13.534,0,0,0,0-3.395c-.106-1.312-.039-2.637-.044-3.957a.491.491,0,0,1,.049-.275c.107-.14.229-.332.378-.369a2.9,2.9,0,0,1,3.655,2.467,2.8,2.8,0,0,0,.1.838.893.893,0,0,0,.621.452.941.941,0,0,0,.625-.438,1.331,1.331,0,0,0,.1-.689q.011-3.053,0-6.1a1.765,1.765,0,0,0-.139-.827.99.99,0,0,0-.623-.443c-.153-.024-.437.208-.512.387a4.369,4.369,0,0,0-.174.968,2.552,2.552,0,0,1-2.533,2.412c-.237.023-.473.037-.71.052-.752.049-.839-.011-.84-.743q-.006-3.393.017-6.786c0-.586.152-.749.771-.755,1.233-.011,2.467,0,3.7.033a3.1,3.1,0,0,1,2.039.892,4.98,4.98,0,0,1,1.473,2.388,2.805,2.805,0,0,0,.286.938,1.181,1.181,0,0,0,.8.448c.387.007.5-.362.49-.728-.035-1.322-.047-2.646-.114-3.966-.046-.929-.251-1.082-1.25-1.142-.095-.006-.19-.012-.284-.01-3.223.057-6.445.14-9.668.157h-.065c-.024-.311-.238-.493-.6-.518-.327-.022-.657-.014-.985-.027-1.155-.043-1.243-.1-1.272-1.035-.062-2.038-.105-4.075-.145-6.112-.011-.59.162-.771.855-.8.875-.036,1.752-.009,2.628-.022a13.427,13.427,0,0,0,6.42-1.435C93.9,8.7,94.227,5.131,92,2.927A8.288,8.288,0,0,0,85.973.785c-1.859-.019-3.72,0-5.58,0V.789c-2.08,0-4.16,0-6.241,0a2.483,2.483,0,0,0-.8.077.565.565,0,0,0-.333.424.55.55,0,0,0,.352.412c.477.076.972.068,1.46.1.749.043.84.119.881.748.013.189,0,.38,0,.569q0,5.835,0,11.67c0,1.422,0,2.844-.036,4.265-.016.64-.268.818-1.017.839-.328.009-.657-.031-.983-.015-.413.021-.773.178-.825.562-.059.442.347.535.743.589a4.007,4.007,0,0,0,.491.026q2.443.018,4.887.031a.65.65,0,0,0,.464.248,6.048,6.048,0,0,0,.852.011c.874.008.9.008.9.843.013,2.7,0,5.408,0,8.112h-.012v8.107c0,.952-.03.978-1.074.95a1.64,1.64,0,0,0-.7.008,1.072,1.072,0,0,0-.509.575c-.1.323.157.535.472.567.423.043.852.046,1.278.047,3.558,0,7.117-.009,10.675.008,1.041.006,2.082.112,3.123.13,1,.017,1.274-.253,1.341-1.222.033-.473.047-.948.059-1.422q.042-1.707.071-3.414C95.929,34.235,95.854,33.862,95.407,33.723ZM80.776,2.659c0-.771.091-.857.89-.85,1.033.01,2.072.016,3.095.119,1.522.153,1.957.583,2.21,1.855a13.6,13.6,0,0,1-.063,4.931c-.238,1.424-1.055,2.041-2.716,2.133-.435.024-.872,0-1.527,0-1.9-.071-1.89-.071-1.883-1.962C80.789,6.812,80.766,4.735,80.776,2.659Z"/>
    <path d="M117.456,20.22a.989.989,0,0,0-.551-.067q-2.2.032-4.409.076c-.036,0-.075,0-.114,0a1.04,1.04,0,0,0-.673-.3c-.326-.027-.656,0-.984-.013-1.047-.04-1.058-.043-1.057-1.012,0-1.847.083-3.7,0-5.541A6.032,6.032,0,0,1,110.681,9.7c1.282-1.983,2.569-3.97,3.69-6.023.6-1.1,1.176-1.9,2.767-1.616a.633.633,0,0,0,.78-.566c.052-.4-.245-.69-.808-.694C115.2.78,113.284.788,111.371.8c-.437,0-.737.215-.716.614s.34.579.771.589.875-.028,1.312-.02c.791.015.979.273.617.893-.764,1.31-1.562,2.605-2.328,3.914-.618,1.055-1.206,2.124-1.816,3.182-.245.425-.514.432-.8.026-.142-.2-.249-.422-.378-.63-.88-1.419-1.757-2.838-2.644-4.253-.573-.915-1.171-1.818-1.733-2.738-.158-.258-.035-.454.335-.469a14.294,14.294,0,0,0,1.623-.083.644.644,0,0,0,.415-.5c-.008-.169-.261-.414-.465-.471a3.813,3.813,0,0,0-.972-.034C102.079.809,99.565.792,97.051.785a4.3,4.3,0,0,0-1.134.088.676.676,0,0,0-.432.5c.006.177.257.373.449.51a.64.64,0,0,0,.468.051,1.227,1.227,0,0,1,1.573.657q2.946,4.595,5.907,9.18a2.768,2.768,0,0,1,.476,1.621c-.036,1.9-.028,3.791-.039,5.687a3.192,3.192,0,0,1-.023.426c-.046.336-.288.5-.662.5a11.944,11.944,0,0,0-1.627,0,.818.818,0,0,0-.454.317c-.667,0-1.334,0-2,.005a2.381,2.381,0,0,0-.839.1c-.176.07-.4.32-.389.477.01.172.254.34.417.485a.377.377,0,0,0,.274.048c.864-.147,1.283.365,1.658,1.035Q103.206,27,105.784,31.5a3.1,3.1,0,0,1,.376,1.634c-.019,1.849-.013,3.7-.027,5.547-.006.729-.1.809-.81.8a4.922,4.922,0,0,0-1.128.042.923.923,0,0,0-.61.466c-.124.393.225.623.552.676a9.688,9.688,0,0,0,1.418.058q3.339.047,6.678.088a2.854,2.854,0,0,0,.424-.007.794.794,0,0,0,.7-.763.662.662,0,0,0-.643-.644,8.941,8.941,0,0,0-1.278-.018c-.426.029-.626-.146-.635-.555-.007-.284,0-.568.007-.852.018-1.8.13-3.607.02-5.4a6.193,6.193,0,0,1,.833-3.521c1.121-2.03,2.17-4.1,3.252-6.151.11-.21.251-.4.352-.617a1.112,1.112,0,0,1,1.14-.675,2.873,2.873,0,0,0,1.11-.134.821.821,0,0,0,.408-.645C117.913,20.621,117.661,20.376,117.456,20.22Zm-3.494,1.873c-1.059,2.12-2.135,4.231-3.2,6.347-.192.381-.365.772-.565,1.148-.118.22-.3.206-.429.014-.185-.275-.348-.566-.508-.856q-1.584-2.862-3.162-5.726c-.247-.45-.482-.907-.722-1.36.428-.462.981-.085,1.459-.219.091-.025.217.009.277-.042.088-.077.194-.157.281-.243l1.165.054c1.035.047,2.07.108,3.106.133a.648.648,0,0,0,.377.135c.519.024,1.04-.015,1.56,0C114.083,21.488,114.186,21.646,113.962,22.093Z"/>
    <path d="M76.219,33.56a.712.712,0,0,0-.572.3,6.45,6.45,0,0,0-.463,1.032,16.838,16.838,0,0,1-.841,1.951,4.026,4.026,0,0,1-3,2.385c-1.221.12-2.459.076-3.69.088-.4,0-.571-.221-.57-.635.011-2.56.006-5.12.006-7.6.03-.315.071-.551.072-.787q.033-4.186.054-8.374c0-.57.053-.6.672-.593a7.159,7.159,0,0,0,1.4-.081c.149-.03.335-.357.329-.543a.643.643,0,0,0-.392-.473,5.119,5.119,0,0,0-1.131-.061c-1.992,0-3.984,0-5.977,0-.473,0-.948-.049-1.42-.03a.8.8,0,0,0-.2.035.776.776,0,0,0-.442-.368,7.649,7.649,0,0,0-1.457.018c-.722.018-.9-.1-.911-.714-.02-1.326,0-2.652,0-3.978,0-.663-.04-1.326-.043-1.99-.006-1.323.052-1.374,1.526-1.39,1.149-.012,2.3.044,3.446-.034a9.932,9.932,0,0,0,5.95-2.082,4.457,4.457,0,0,0-.186-7.19A8.238,8.238,0,0,0,63.444.758C62.027.732,60.609.734,59.191.724Q54.847.692,50.5.666c-.358,0-.64.132-.708.465-.064.313.242.583.72.615.325.022.656-.018.983,0,.817.033.917.116.973.847.029.378.019.758.019,1.138q0,3.555,0,7.112c0,.616.008,1.233,0,1.849-.032,2.035-.056,4.071-.11,6.106-.027,1.018-.053,1.011-1.193.967a4.543,4.543,0,0,0-.97.042.653.653,0,0,0-.491.313l-.087,0-2-.011a.8.8,0,0,0-.182-.138,1.14,1.14,0,0,0-.63-.1c-.989.131-1.278-.356-1.556-1.076-.745-1.929-1.6-3.826-2.417-5.735-.85-1.995-1.712-3.986-2.55-5.985C39.433,4.983,38.579,2.889,37.721.8a.965.965,0,0,0-.987-.613.836.836,0,0,0-.806.606c-.558,1.335-1.1,2.673-1.677,4-2.022,4.7-4.064,9.4-6.067,14.113a1.441,1.441,0,0,1-1.472.912,6.3,6.3,0,0,0-.976-.026.822.822,0,0,0-.56.4c-.1.311.149.532.527.585a5.451,5.451,0,0,0,.653.041q1.341.024,2.683.043c-.746,2.016-1.478,4.036-2.226,6.051-.774,2.086-1.56,4.168-2.342,6.251-.6,1.6-1.238,3.178-1.782,4.792-.311.922-.735,1.517-1.818,1.335a1.469,1.469,0,0,0-.687.1.411.411,0,0,0-.231.313c.007.166.075.415.194.473a2.049,2.049,0,0,0,.813.182c1.085.03,2.171.031,3.256.043a13.061,13.061,0,0,0,1.413,0,.476.476,0,0,0,.433-.612.7.7,0,0,0-.463-.439,9.275,9.275,0,0,0-1.414.008c-.647.025-.857-.158-.664-.691.418-1.157.863-2.306,1.349-3.436a.862.862,0,0,1,.64-.431c1.752-.011,3.5.03,5.257.055a.76.76,0,0,1,.781.5c.394,1.116.781,2.235,1.153,3.359a.412.412,0,0,1-.383.6,5.743,5.743,0,0,0-1.115.163.735.735,0,0,0-.329.539c-.015.113.2.331.347.375a3.147,3.147,0,0,0,.843.078c1.042.008,2.085,0,3.128,0v.026c1.138,0,2.274.007,3.411,0,.769-.006,1.124-.217,1.047-.624-.105-.557-.543-.581-.99-.538-.636.06-.925-.287-1.127-.843q-3.192-8.807-6.414-17.6a2.007,2.007,0,0,0,.482-.049.826.826,0,0,0,.54-.421c.094-.326-.176-.533-.556-.541-.311-.007-.622,0-.933.008a.778.778,0,0,0-.531-.241.744.744,0,0,0-.626.2.385.385,0,0,1-.279-.6c.521-1.2,1.078-2.382,1.612-3.574.2-.442.612-.485,1.07-.484,1.532,0,3.065-.007,4.6,0a5.813,5.813,0,0,1,1.3.1,1.176,1.176,0,0,1,.733.477c.523,1.191.983,2.4,1.447,3.614.1.267-.019.457-.383.472-.383.016-.766.029-1.147.056s-.659.21-.579.537a.78.78,0,0,0,.551.391,8.779,8.779,0,0,0,1.31.035c.559,0,1.119,0,1.678,0,.113.186.35.28.74.288.331.008.663-.013.995-.021.427-.009.586.234.583.625q-.021,2.909-.042,5.817c-.015,2.653-.035,5.306-.033,7.96,0,.9.085,1.793.09,2.69,0,.681-.1,1.1-.986.985a2.431,2.431,0,0,0-.985.021.89.89,0,0,0-.546.531c-.076.363.18.624.569.662.33.032.663.036.994.037q6.613.021,13.228.038a8.079,8.079,0,0,0,.853-.018c.555-.058.767-.239.811-.8q.206-2.615.361-5.235c.039-.649-.24-1.071-.673-1.065-.542.007-.685.413-.782.854-.041.185-.123.359-.179.54a10.216,10.216,0,0,1-1.591,3,3.064,3.064,0,0,1-2.1,1.332c-1.267.136-2.554.1-3.832.132-.413.01-.592-.229-.6-.621-.008-.332-.022-.663-.023-.995q0-3.7,0-7.392h.017q0-2.7,0-5.4c0-.947-.023-1.894-.009-2.84.01-.678.173-.775.877-.749a5.539,5.539,0,0,0,1.374-.1c.067-.015.14-.113.194-.23.42-.01.842-.043,1.263-.038,2.35.028,4.7.074,7.049.1a3.767,3.767,0,0,0,1.124-.1l.021-.009a.63.63,0,0,0,.576.414,8.7,8.7,0,0,0,.982-.09c.653-.019.876.162.88.814.009,1.32-.035,2.642-.04,3.963,0,.8.043,1.6.039,2.4-.015,2.314-.052,4.628-.064,6.942-.005,1.038.047,2.076.037,3.114-.007.761-.076.8-.8.827a5.673,5.673,0,0,0-1.269.066.875.875,0,0,0-.458.616c-.052.308.215.5.528.545a4.118,4.118,0,0,0,.567.017l9.53,0c1.611,0,3.223.01,4.835,0,.8,0,.935-.126,1.063-.832a2.427,2.427,0,0,0,.033-.283c.109-1.654.219-3.309.32-4.964a.608.608,0,0,0-.075-.405A1.46,1.46,0,0,0,76.219,33.56Zm-45.607-.8c.338.98.206,1.115-.889,1.094-.567-.01-1.135,0-1.629,0-.888-.2-1.757.223-2.538-.276.25-.756.482-1.518.753-2.265C26.858,29.8,27.427,28.3,28,26.8a1.57,1.57,0,0,1,.227-.322c.087.092.215.169.254.278C29.2,28.751,29.918,30.752,30.612,32.761Zm6.581-18.423c-.87-.009-1.74-.061-2.611-.095v.048c-.873,0-1.747.006-2.62,0-.349,0-.462-.2-.417-.476a1.251,1.251,0,0,1,.118-.263q1.367-3.192,2.739-6.383c.049-.112.192-.194.291-.291.095.1.231.186.28.3q1.4,3.254,2.781,6.516C37.909,14.062,37.673,14.342,37.193,14.338ZM57.576,6.265h.1c0-1.23-.014-2.46.006-3.69.01-.688.155-.817.979-.838.928-.024,1.861-.036,2.786.016,1.449.082,2.26.681,2.344,1.94a29.344,29.344,0,0,1-.03,4.817c-.155,1.56-1.166,2.231-2.954,2.262-.819.014-1.64.015-2.459-.008-.647-.019-.775-.155-.774-.668Q57.578,8.181,57.576,6.265Z"/>
    <path d="M22.66,20.719c.406-.111.64-.364.585-.75-.057-.405-.373-.556-.81-.531-.326.018-.65.081-.977.091-.683.019-.8-.065-.828-.6-.032-.664-.053-1.328-.055-1.992q-.01-6.544-.009-13.09c0-.568.018-1.137.021-1.706,0-.39.17-.623.669-.627a8.624,8.624,0,0,0,1.468-.084A.693.693,0,0,0,23.2.964a.715.715,0,0,0-.385-.54,1.862,1.862,0,0,0-.786-.078C21.589.351,21.153.4,20.718.4,18.314.391,15.91.368,13.506.355a.8.8,0,0,0-.462.092c-.174.153-.4.371-.382.55a.7.7,0,0,0,.467.469,5.892,5.892,0,0,0,1.138.026c.905.011.96.035.971.787.03,2.134.036,4.269.05,6.4a2.109,2.109,0,0,1-.025.284c-.077.606-.205.747-.921.772-1.148.039-2.3.04-3.446.041-.816,0-1.632-.02-2.448-.046-.48-.015-.65-.257-.62-.662.058-.757.1-1.515.126-2.273C8,5.288,8.018,3.775,8.07,2.264c.023-.663.128-.735.854-.772a7.4,7.4,0,0,0,1.29-.084c.178-.043.346-.346.375-.546.019-.135-.184-.327-.341-.438A.914.914,0,0,0,9.78.336C6.737.273,3.677.538.654,0,.556-.016.316.209.285.346a3.645,3.645,0,0,0,.028.7c-.008.432.251.6.715.572.217-.013.43-.072.648-.087.862-.06.975,0,.985.738.02,1.609.02,3.219-.014,4.828-.045,2.084-.13,4.168-.2,6.251l.049,0c0,1.471,0,2.941,0,4.412,0,.515.183,1.139-.084,1.518-.395.56-1.074-.063-1.643-.037-.379.017-.635.089-.674.452-.025.228-.07.456-.082.685A.783.783,0,0,0,0,20.549a.556.556,0,0,0,.528.563,3.583,3.583,0,0,0,.71.027.893.893,0,0,1,1.031.726c.411,1.259.925,2.485,1.383,3.73q1.769,4.8,3.525,9.6.786,2.133,1.593,4.256a5.914,5.914,0,0,0,.4.909.584.584,0,0,0,1.043.088,4.457,4.457,0,0,0,.572-1.131c.929-2.736,1.829-5.481,2.755-8.218.879-2.6,1.775-5.193,2.67-7.786.154-.448.35-.881.512-1.326a1.049,1.049,0,0,1,1.147-.836,2.6,2.6,0,0,0,.974-.141.51.51,0,0,0,.247-.261l2.924.014A2.459,2.459,0,0,0,22.66,20.719Zm-7.114.925a3.761,3.761,0,0,1-.141.55q-1.348,4.044-2.7,8.085c-.316.943-.634,1.884-.964,2.821-.038.108-.167.185-.253.276a1.577,1.577,0,0,1-.225-.325c-.217-.576-.411-1.161-.624-1.738-1.036-2.8-2.08-5.594-3.108-8.395-.193-.527-.325-1.076-.485-1.615.5-.436,1.084-.08,1.621-.163.047-.007.112.008.139-.017a3.507,3.507,0,0,0,.467-.429l.215,0c.741-.016,1.174-.308,1.067-.628-.15-.455-.6-.476-1.056-.5-1.581-.085-1.581-.091-1.609-1.443-.009-.427-.017-.853-.021-1.28-.016-1.754-.05-3.509-.035-5.263.006-.673.129-.78.833-.787q2.873-.027,5.747.014c.659.009.818.165.819.823,0,2.419-.032,4.839-.047,7.258,0,.484-.292.672-.822.671a8.853,8.853,0,0,0-1.469.055.689.689,0,0,0-.473.476c-.006.176.227.422.43.522a1.255,1.255,0,0,0,.468.1.81.81,0,0,0,.436.381,10.2,10.2,0,0,0,1.415.075A.372.372,0,0,1,15.546,21.644Z"/>
  </g>
</svg>
