<svg xmlns="http://www.w3.org/2000/svg" width="58.535" height="29.259" viewBox="0 0 58.535 29.259">
  <style> path { fill: #103cb7; } @media (prefers-color-scheme: dark) { path { fill: #fd5151; } }</style>
  <g>
    <path d="M46.842,20.49c-.438-.21-.691.155-.814.526a8.122,8.122,0,0,0-.229,1.093c-.133.734-.251,1.47-.4,2.2-.025.123-.15.226-.229.339-.121-.115-.289-.207-.352-.347-.113-.254-.13-.551-.248-.8a17.889,17.889,0,0,0-1.019-1.982c-.284-.448-.869-.457-1.019-.025-.336.972-1.265,1.649-1.315,2.752a1.479,1.479,0,0,1-.21.477,2.058,2.058,0,0,1-.253-.487c-.08-.364-.075-.747-.172-1.1a12.292,12.292,0,0,0-.61-1.847.747.747,0,0,0-.686-.259c-.155.049-.321.453-.281.661.363,1.869.772,3.729,1.162,5.593.081.384.174.758.668.743.458-.014.618-.373.727-.74.225-.759.426-1.526.65-2.285a12.52,12.52,0,0,1,.448-1.317.563.563,0,0,1,.4-.309c.127,0,.314.193.366.339.359,1.007.679,2.028,1.034,3.037a5.8,5.8,0,0,0,.56,1.269.516.516,0,0,0,.965-.13,6.336,6.336,0,0,0,.2-.958c.23-1.282.456-2.564.686-3.846.106-.6.217-1.191.36-1.975C47.153,20.967,47.061,20.594,46.842,20.49Z"/>
    <path d="M44.315,18.33a.823.823,0,0,0,.5-.565,11.046,11.046,0,0,0,.1-1.81c-.005-.669-.329-1.351.116-1.993.456.45.918.895,1.365,1.354.129.132.2.314.327.455.61.706,1.2,1.434,1.851,2.1.422.432.916.24,1-.363a6.616,6.616,0,0,0,.014-1.259c-.049-.837-.126-1.672-.186-2.45,0-.671.017-1.278-.007-1.883a.569.569,0,0,0-.617-.616.619.619,0,0,0-.618.635,6.733,6.733,0,0,0-.03.84c.019.653.066,1.307.074,1.96a1.7,1.7,0,0,1-.157.5,1.584,1.584,0,0,1-.433-.252c-.7-.81-1.377-1.643-2.082-2.451a2.852,2.852,0,0,0-.74-.625.737.737,0,0,0-1.189.637,12.714,12.714,0,0,0-.077,1.677c.038,1.165.1,2.33.191,3.493C43.741,18.05,43.913,18.415,44.315,18.33Z"/>
    <path d="M37.1,22.307A9.443,9.443,0,0,0,35.651,20.1c-.493-.565-1.013-.374-1.211.362-.2.768-.365,1.549-.521,2.329-.274,1.369-.529,2.741-.754,3.912,0,.3-.035.415.006.485.131.221.29.426.438.637.2-.161.5-.289.564-.491.148-.488.155-1.016.267-1.518.181-.812.412-1.03,1.058-1.1.924-.1,1.127.013,1.533.847.143.3.25.607.4.9a4.521,4.521,0,0,0,.5.839.551.551,0,0,0,.483.15.529.529,0,0,0,.3-.407,3.71,3.71,0,0,0-.2-1.087C38.068,24.732,37.651,23.488,37.1,22.307Z"/>
    <path d="M51.747,22.781a10.015,10.015,0,0,0-1.275-2.311c-.314-.461-.685-.393-.971.12a8.866,8.866,0,0,0-.824,1.768c-.367,1.249-.655,2.522-.939,3.794a2.018,2.018,0,0,0,.041.958.516.516,0,0,0,.987.03,10.914,10.914,0,0,0,.279-1.51c.085-.589.451-.771.991-.73.732.026.927.185,1.168.939a12.659,12.659,0,0,0,.447,1.321c.138.313.44.569.781.37.182-.106.238-.444.326-.685a.543.543,0,0,0-.035-.275C52.408,25.3,52.17,24.011,51.747,22.781Z"/>
    <path d="M19.98,15.384A.914.914,0,0,1,20,14.059c1.094-1.522.353-3.1-1.524-3.364a4.58,4.58,0,0,0-1.385.064c-1.012.174-1.295.456-1.295,1.486,0,1.537.083,3.074.149,4.611a.772.772,0,0,0,.216.5.822.822,0,0,0,.59.25.719.719,0,0,0,.395-.493,3.2,3.2,0,0,0-.036-.836H17.1c-.014-.281-.048-.562-.039-.842.016-.473.334-.712.741-.464a4.426,4.426,0,0,1,1.1,1.017c.408.506.708,1.1,1.122,1.6a.81.81,0,0,0,.728.205c.383-.153.306-.548.153-.845A10.306,10.306,0,0,0,19.98,15.384Zm-1.753-1.5a1.315,1.315,0,0,1-1.515-1.372c-.011-.6.323-.871,1.115-.9a1.185,1.185,0,0,1,1.383,1.038A1.007,1.007,0,0,1,18.227,13.887Z"/>
    <path d="M32.347,13.278a5.416,5.416,0,0,0-.105-.971c-.073-.228-.274-.542-.465-.58-.4-.079-.561.289-.578.624-.037.7-.016,1.395-.028,2.093a.881.881,0,0,1-.082.248.806.806,0,0,1-.245-.11c-.1-.1-.169-.223-.261-.328-.676-.772-1.332-1.565-2.049-2.3a1.119,1.119,0,0,0-.85-.2c-.106.015-.217.459-.213.706.008.605.083,1.209.13,1.813l-.035,0c.088,1.022.15,2.048.278,3.065.055.445.147,1.051.765.973.519-.066.482-.625.461-1.037-.052-1.021-.141-2.041-.208-3.061a.874.874,0,0,1,.062-.258c.087.023.2.019.254.073a3.968,3.968,0,0,1,.349.434c.675.894,1.326,1.807,2.04,2.668a1.051,1.051,0,0,0,.822.287c.142-.017.291-.424.337-.673a2.815,2.815,0,0,0-.039-.836C32.579,15.032,32.456,14.156,32.347,13.278Z"/>
    <path d="M30.02,7.947c.406.069.81.04.918-.4.112-.458-.271-.644-.656-.744-.315-.082-.633-.158-.954-.214s-.657-.047-.968-.133c-.578-.16-.745-.526-.664-1.2.065-.53.45-.529.823-.54a9.425,9.425,0,0,1,.978.044c.342.026.693.04.761-.4.064-.407-.241-.592-.573-.672a9.355,9.355,0,0,0-1.36-.231c-.795-.067-.968-.253-.915-1.02.035-.491.243-.795.752-.837.419-.035.842-.031,1.257-.093s.952-.06.957-.606c0-.58-.541-.521-.95-.548-.186-.013-.374-.008-.561-.007-2.29.005-2.689.405-2.721,2.7.047.557.1,1.114.14,1.671s.07,1.118.135,1.673c.1.856.256,1.012,1.115,1.154C28.362,7.692,29.193,7.806,30.02,7.947Z"/>
    <path d="M4.335.057C3.991,0,3.911.326,3.885.625c-.06.692-.122,1.384-.2,2.074a3.4,3.4,0,0,1-.134.508,2.226,2.226,0,0,1-.528-.364c-.465-.581-.879-1.2-1.352-1.778C1.364.687,1.11.043.513.224-.193.437.031,1.16.044,1.68c.035,1.3.138,2.6.223,3.9a.651.651,0,0,0,.13.389.72.72,0,0,0,.453.25.53.53,0,0,0,.409-.29A8.958,8.958,0,0,0,1.431,4.4c.011-.554-.052-1.109-.083-1.663.717.179.826.93,1.27,1.37a5.681,5.681,0,0,1,.7,1.039,6.034,6.034,0,0,0,.351.6.578.578,0,0,0,1.068-.206,3.608,3.608,0,0,0,.13-.963c.02-.559,0-1.118,0-2,0,.04.018-.24.025-.52a9.205,9.205,0,0,0,0-1.531A.794.794,0,0,0,4.335.057Z"/>
    <path d="M39.211,16.2l-.062,0c-.086-1.446-.17-2.893-.261-4.338a.659.659,0,0,0-.108-.4,1.111,1.111,0,0,0-.551-.33c-.124-.016-.351.173-.4.315a2.2,2.2,0,0,0-.107.824c.034.7.125,1.4.154,2.1a2.217,2.217,0,0,1-.173.642,2.116,2.116,0,0,1-.537-.32c-.281-.311-.5-.68-.775-.995a17.671,17.671,0,0,0-1.535-1.618,1.069,1.069,0,0,0-.874-.119c-.121.034-.166.478-.172.738q-.029,1.389,0,2.779a5.739,5.739,0,0,0,.138,1.377c.053.2.375.323.575.481.137-.213.364-.415.39-.641.053-.454-.048-.925,0-1.382a10.164,10.164,0,0,1,.279-1.285c.287.353.557.723.866,1.056.636.685,1.269,1.376,1.957,2.007a.972.972,0,0,0,.856.206c.2-.1.246-.53.344-.82A.927.927,0,0,0,39.211,16.2Z"/>
    <path d="M58.336,20.068c-.408-.3-.7-.028-.943.279-.317.406-.6.836-.908,1.25-1.155,1.561-1.233,1.558-2.2-.074-.263-.442-.506-.9-.791-1.326-.216-.326-.548-.612-.941-.4-.45.237-.246.644-.063.976a18.181,18.181,0,0,0,1.2,2.06,4.417,4.417,0,0,1,.816,2.193c.142,1.157.364,2.306.609,3.447.055.256.346.462.607.79.268-.327.55-.515.572-.73A6.683,6.683,0,0,0,56.234,27a10.08,10.08,0,0,0-.309-1.365,2.053,2.053,0,0,1,.449-1.956c.614-.763,1.14-1.6,1.7-2.4a4.028,4.028,0,0,0,.241-.345C58.479,20.651,58.7,20.339,58.336,20.068Z"/>
    <path d="M25.824,11.848a.908.908,0,0,0-.607.474,1.643,1.643,0,0,0-.114.816c.033.7.13,1.4.147,2.1a4.261,4.261,0,0,1-.156,1.22.679.679,0,0,1-.458.428.666.666,0,0,1-.53-.355c-.247-.793-.447-1.6-.625-2.416-.139-.635-.19-1.291-.349-1.92-.034-.136-.359-.261-.556-.27-.12-.005-.278.205-.368.35a.762.762,0,0,0-.074.408,13.519,13.519,0,0,0,.547,3.869c.368,1.089.689,1.368,1.651,1.4a1.73,1.73,0,0,0,1.935-1.281,11.724,11.724,0,0,0,.342-1.987c-.1-.912-.146-1.613-.281-2.3C26.285,12.167,26,11.846,25.824,11.848Z"/>
    <path d="M8.564.375c-.607-.453-.953-.456-1.47.03a4.019,4.019,0,0,0-.321,5.238,1.647,1.647,0,0,0,2.8-.1,5.321,5.321,0,0,0,.5-1.232C9.919,1.993,9.52,1.091,8.564.375Zm.2,4.245a.823.823,0,0,1-.56.509.8.8,0,0,1-.66-.354,8.984,8.984,0,0,1-.414-1.417,13.883,13.883,0,0,1,.34-1.537c.162-.484.541-.529.808-.129A3.629,3.629,0,0,1,8.761,4.62Z"/>
    <path d="M23.35,6.815a1.844,1.844,0,0,0,1.867-.827,1.4,1.4,0,0,0-.279-1.8,16.823,16.823,0,0,0-1.856-1.677c-.341-.285-1-.382-.88-.925.057-.255.663-.37.994-.588.175-.116.445-.381.409-.467C23.51.312,23.257-.013,23.09,0a3,3,0,0,0-1.3.372c-1.291.8-1.322,1.564-.136,2.487.477.372,1.028.654,1.489,1.043a4.1,4.1,0,0,1,.889,1.053c.266.459,0,.838-.545.8A2.214,2.214,0,0,1,22.57,5.5a6.514,6.514,0,0,1-.872-.7c-.283-.23-.569-.594-.937-.161-.323.378-.057.712.2.982A3.371,3.371,0,0,0,23.35,6.815Z"/>
    <path d="M18.079,6.337c1.04-1.549.561-3.242.453-4.9a.169.169,0,0,0-.06-.123,1.715,1.715,0,0,0-.689-.3c-.134,0-.365.312-.375.493a14.2,14.2,0,0,0,.057,1.541l.082.006a21.781,21.781,0,0,1-.2,2.362,1.19,1.19,0,0,1-.663.791c-.493.158-.728-.317-.89-.7a2.49,2.49,0,0,1-.153-.821c-.037-.7-.027-1.406-.074-2.106a2.811,2.811,0,0,0-.22-.929.558.558,0,0,0-.465-.225.591.591,0,0,0-.4.317,1.547,1.547,0,0,0-.079.685c.07.886.152,1.771.255,2.654a3.131,3.131,0,0,0,.232.947,2.1,2.1,0,0,0,1.744,1.248C17.356,7.355,17.733,6.852,18.079,6.337Z"/>
    <path d="M40.9,15.064l-.069.011a12.362,12.362,0,0,0,.017,1.679,6.925,6.925,0,0,0,.461,1.6.625.625,0,0,0,.545.283c.167-.045.282-.32.394-.51.04-.069.009-.183,0-.276-.071-1.3-.119-2.609-.226-3.909a14.763,14.763,0,0,0-.35-2.2.826.826,0,0,0-.579-.475c-.386-.054-.573.256-.587.623a4.186,4.186,0,0,0,.055.7C40.668,13.409,40.782,14.236,40.9,15.064Z"/>
    <path d="M51.114,12.375a.882.882,0,0,0,.617-.43,5.354,5.354,0,0,0,.158-1.2,6.137,6.137,0,0,0-.128-1.123.722.722,0,0,0-.475-.42c-.177-.031-.52.1-.567.242A3.374,3.374,0,0,0,50.612,12C50.69,12.175,50.967,12.4,51.114,12.375Z"/>
  </g>
</svg>
