<svg xmlns="http://www.w3.org/2000/svg" width="122.761" height="57.828" viewBox="0 0 122.761 57.828">
  <style> path { fill: #103cb7; } @media (prefers-color-scheme: dark) { path { fill: #fd5151; } }</style>
  <g>
    <path d="M55.434,45.556c.029.023.06.044.086.069a.638.638,0,0,0,1.056-.033,2.269,2.269,0,0,0,.245-.325,2.231,2.231,0,0,1,.633-.685,2.957,2.957,0,0,0,.395-.453,2.277,2.277,0,0,1,.475-.46,1.571,1.571,0,0,0,.707-.786,1.1,1.1,0,0,1,.735-.642,2.26,2.26,0,0,0,.679-.392,17.5,17.5,0,0,1,2.113-1.541,1.874,1.874,0,0,0,.4-.387.608.608,0,0,1,.6-.245.473.473,0,0,1,.437.405.715.715,0,0,0,.686.575.339.339,0,0,1,.147.037c.039.026.055.074.082.112a.387.387,0,0,1-.137.022,2.41,2.41,0,0,0-.4-.117.991.991,0,0,0-.743.268,1.825,1.825,0,0,1-.778.4.858.858,0,0,0-.663.56.567.567,0,0,1-.392.362,2.24,2.24,0,0,0-1.542,1.724c-.042.208-.09.416-.142.623a.164.164,0,0,1-.088.092.792.792,0,0,1-.173.029.791.791,0,0,0,.2.037,1.939,1.939,0,0,0,1.225-.353c.083-.075.306-.044.465-.063.031,0,.062-.012.093-.018l-.081-.023c-.009,0-.021,0-.031,0-.13-.038-.336.09-.391-.1-.061-.212-.145-.431.129-.608a1.571,1.571,0,0,0,.4-.349A.746.746,0,0,1,62.5,43c.445,0,.89.027,1.334.043.179.006.232.078.19.22a2.233,2.233,0,0,0-.051.326c0,.025.012.065,0,.074a1.323,1.323,0,0,1-.171.076c.02.005.041.009.061.015a.555.555,0,0,1,.193.059,1.413,1.413,0,0,0,1.536.159,4.391,4.391,0,0,1,.743-.163c.11-.022.224-.034.336-.049.509-.067,1.018-.137,1.528-.2a.887.887,0,0,0,.792-.6.566.566,0,0,0,.055-.2c-.01-.46.366-.653.809-.8.348-.115.665.047.668.356a2.289,2.289,0,0,1-.078.5.6.6,0,0,0,.37.721,1.321,1.321,0,0,0,1.435-.012,4.705,4.705,0,0,1,.5-.258,2.073,2.073,0,0,0,.826-.677,2.319,2.319,0,0,1,.4-.421,1.2,1.2,0,0,0,.391-.7,4.02,4.02,0,0,1,.243-.7c.09-.216.211-.424.312-.637a.42.42,0,0,1,.444-.256c.155.007.312-.006.467,0,.314.009.4.088.322.334-.063.205-.166.4-.225.608a8.159,8.159,0,0,0-.225.942.743.743,0,0,1-.27.525c-.06.046-.144.095-.16.153a1.225,1.225,0,0,0-.05.444c0,.031.211.053.326.067a1.494,1.494,0,0,0,.838-.132c.108-.051.215-.1.322-.156a.47.47,0,0,1,.54.04.993.993,0,0,0,1.15.066,2.724,2.724,0,0,1,1-.218,12,12,0,0,0,2.279-.19,3.67,3.67,0,0,1,1.136.005,2.637,2.637,0,0,0,1.066-.074,8.142,8.142,0,0,1,1.067-.261,2.783,2.783,0,0,1,.7.007c.595.057,1.186.135,1.781.191a4.574,4.574,0,0,0,.461-.039c.432,0,.865.01,1.3,0,.253-.007.5-.041.756-.071.191-.023.379-.079.57-.086.463-.015.926-.01,1.389-.012a1.373,1.373,0,0,1,.309.011,8.564,8.564,0,0,0,1.979.1,6.946,6.946,0,0,0,1.757-.135,1.168,1.168,0,0,1,.456.028c.444.079.881.2,1.329.245a7.107,7.107,0,0,0,.983-.053,5.124,5.124,0,0,1,.644.007c.358.029.713.1,1.072.11.695.018,1.391,0,2.086.011a6.144,6.144,0,0,1,.758.107c.313.047.624.1.94.139a8.145,8.145,0,0,0,.9.051c.362,0,.725-.049,1.086-.039a2.2,2.2,0,0,1,.712.132,3.93,3.93,0,0,0,1.313.273c.185.006.369.043.554.055a4.735,4.735,0,0,0,.83.034,1.364,1.364,0,0,1,.877.181,1.553,1.553,0,0,0,1.108.2c.486-.08.9.378.717.761a.174.174,0,0,1-.269.082.853.853,0,0,0-.913.041.5.5,0,0,1-.261.043c-.544-.043-1.089-.087-1.63-.15a2.263,2.263,0,0,1-.577-.159,7,7,0,0,0-2.8-.654,4.487,4.487,0,0,0-.823.111,2.181,2.181,0,0,1-.917-.007,2.926,2.926,0,0,0-.735-.066c-.528.027-.873.495-.62.872a1.1,1.1,0,0,0,.554.275,4.972,4.972,0,0,0,.811.159c.377.047.757.085,1.138.1a2.4,2.4,0,0,1,1.313.575c.226.155.177.43.123.655-.039.167-.229.128-.386.124-.2-.006-.407,0-.61.01a.493.493,0,0,0-.171.057.467.467,0,0,0-.3.517c.042.175.224.3.505.315a2.613,2.613,0,0,0,1.1-.112,4.882,4.882,0,0,1,1.683-.3c.429-.006.855-.116,1.286-.155a3.307,3.307,0,0,1,.731.021c.57.081,1.131.2,1.7.267a.9.9,0,0,0,.538-.145,1.118,1.118,0,0,1,.874-.16,3.135,3.135,0,0,0,1.38,0,1.768,1.768,0,0,1,.433-.022c1.453,0,2.908.034,4.359-.009a11.074,11.074,0,0,0,1.784-.3,1.043,1.043,0,0,1,.687.048.786.786,0,0,1,.369,1.085.666.666,0,0,1-.557.231c-.67.043-1.343.066-2.013.109-.4.026-.8.072-1.2.117a5.939,5.939,0,0,1-1.787-.1,2.6,2.6,0,0,0-1.426.064,2.961,2.961,0,0,1-1.842.092,2.282,2.282,0,0,0-.914-.018,3.515,3.515,0,0,1-1.53-.063,4.455,4.455,0,0,0-2.107-.038c-.36.067-.749.032-1.107.1a16.43,16.43,0,0,1-3.682.112,2.868,2.868,0,0,0-.822.1,4.1,4.1,0,0,1-1.127.146c-.413,0-.828.013-1.237.052-.276.027-.441.2-.439.369s.187.307.45.366a16.7,16.7,0,0,0,3.888.25,2.887,2.887,0,0,0,.7-.116,2.022,2.022,0,0,1,1.156,0,1.357,1.357,0,0,0,1.013-.076c.209-.1.412-.2.624-.287a1.57,1.57,0,0,1,.4-.122c.716-.086.9.115,1.037.738a.12.12,0,0,1-.024.1,1.913,1.913,0,0,1-.771.68,4.443,4.443,0,0,1-2.068.351,2.445,2.445,0,0,0-1.363.268c-.348.168-.432.131-.75-.061a7.175,7.175,0,0,0-.956-.467.726.726,0,0,0-.749.088.367.367,0,0,1-.469.031.41.41,0,0,0-.231-.062c-.327.03-.654.069-.978.119a.723.723,0,0,1-.559-.051.86.86,0,0,0-.871-.041,11.593,11.593,0,0,0-1.1.522,1.779,1.779,0,0,0-.557.5,5.151,5.151,0,0,0-.837,1.931.7.7,0,0,1-.335.4,6.835,6.835,0,0,1-.86.348.684.684,0,0,1-.638-.08c-.116-.072-.233-.143-.348-.216-.21-.135-.213-.164.023-.289a1.206,1.206,0,0,0,.675-.76.916.916,0,0,1,.24-.38,2.5,2.5,0,0,0,.625-1.5c.045-.327-.151-.528-.568-.643a5.141,5.141,0,0,0-2.648-.163,1.545,1.545,0,0,1-.61.007,2.444,2.444,0,0,0-1.623.292.837.837,0,0,0-.33.356,2.566,2.566,0,0,1-1,.988,3.11,3.11,0,0,0-.753.632,1.586,1.586,0,0,1-1.15.525,6.239,6.239,0,0,0-.676.068.769.769,0,0,1-.655-.106c-.33-.228-.693-.425-1.023-.655a.588.588,0,0,1-.2-.307A3.3,3.3,0,0,1,85.76,50.5a.539.539,0,0,0-.354-.547,2.167,2.167,0,0,0-1.624-.213c-.352.093-.721.145-1.082.217a1.186,1.186,0,0,0-.98.735,1.594,1.594,0,0,1-.614.744,1.825,1.825,0,0,0-.871,1.438,1.261,1.261,0,0,1-1.251,1.064,7.744,7.744,0,0,0-2.264.5,1.757,1.757,0,0,1-1.588-.285,2.193,2.193,0,0,0-.478-.32,2.392,2.392,0,0,1-1.3-1.72c-.006-.025,0-.051,0-.077-.069-.533-.483-.679-1.049-.414a1.583,1.583,0,0,0-.973,1.028.574.574,0,0,1-.079.166,3,3,0,0,0-.419,1.113,1.792,1.792,0,0,1-.224.549c-.236.407-.51.8-.738,1.208a5.144,5.144,0,0,0-.285.723c-.147.4-.286.8-.437,1.192-.022.06-.088.15-.142.154-.356.026-.714.045-1.07.04a.2.2,0,0,1-.2-.25A1.551,1.551,0,0,1,67.9,57.1a3.466,3.466,0,0,0,.435-1.136,4.147,4.147,0,0,1,.25-.653q.128-.378.222-.764c.1-.406.187-.815.283-1.223.007-.027.046-.047.068-.072s.062-.074.093-.111a1.341,1.341,0,0,0-.148-.059c-.284-.076-.566-.158-.853-.223a.673.673,0,0,0-.812.266c-.027.036-.05.074-.076.111-.2.29-.2.29-.473.035a.567.567,0,0,0-.7-.069,2.787,2.787,0,0,0-1.14,1.075,11.955,11.955,0,0,0-.769,1.769,1.824,1.824,0,0,1-.179.352c-.218.364-.442.726-.662,1.089a.779.779,0,0,1-.936.284c-.077-.028-.168-.119-.171-.184a2.809,2.809,0,0,1,.023-.83,2.685,2.685,0,0,1,.386-.8,4.376,4.376,0,0,0,.55-1.1,4.587,4.587,0,0,1,.423-.847,2.1,2.1,0,0,0,.3-1.108,1.02,1.02,0,0,1,.414-.874,1.219,1.219,0,0,0,.473-.813c.044-.339-.1-.524-.5-.648a2.272,2.272,0,0,0-1.129-.022c-.613.12-1.227.234-1.84.351-.576.109-.81.3-.871.8a6.381,6.381,0,0,1-.958,2.374,1.823,1.823,0,0,0-.17.354.544.544,0,0,1-.415.341c-.208.065-.395.174-.6.255a1.745,1.745,0,0,1-.364.112c-.362.06-.736.083-1.09.165a5.587,5.587,0,0,1-3.1-.151.366.366,0,0,1-.276-.411.374.374,0,0,1,.283-.412,2.49,2.49,0,0,1,1.513-.07,2.455,2.455,0,0,0,1.516.025c.442-.142.872-.311,1.294-.491a1.167,1.167,0,0,0,.655-.655,2.064,2.064,0,0,0,.3-.9.545.545,0,0,0-.477-.532,3.181,3.181,0,0,0-1.582-.049c-1.553.35-3.114.677-4.673,1.008a1.338,1.338,0,0,1-1.236-.445c-.3-.43-.616-.54-1.342-.411-.807.143-1.634.21-2.436.368a17.68,17.68,0,0,1-3.749.122,5.16,5.16,0,0,1-1.374-.364.4.4,0,0,1-.2-.213,1.481,1.481,0,0,0-.7-.691.7.7,0,0,1-.39-.5c-.038-.2.05-.3.3-.328.062-.006.125-.005.186-.012a.8.8,0,0,0,.744-.5.465.465,0,0,1,.519-.315,1.583,1.583,0,0,0,1.132-.4,2.563,2.563,0,0,1,.44-.281,2.028,2.028,0,0,0,.383-.214,1.413,1.413,0,0,1,1.122-.326,3.537,3.537,0,0,0,1.351-.242,2.684,2.684,0,0,1,.87-.141,1.123,1.123,0,0,0,1.051-.468.517.517,0,0,1,.491-.219,1.064,1.064,0,0,0,.34-.015c.938-.3,1.959-.233,2.917-.444a1.275,1.275,0,0,0,.323-.084,6.348,6.348,0,0,0,1.271-.675,2.839,2.839,0,0,1,.6-.366c.143-.074.313-.119.4.07l-.075.021Zm24.331-.726A2.857,2.857,0,0,1,81,45.079a1.278,1.278,0,0,0,.834.121,6.483,6.483,0,0,1,.737-.078c.546-.028,1.093-.055,1.64-.06.8-.007,1.595,0,2.392.011a4.583,4.583,0,0,0,.922.035,1.962,1.962,0,0,0,1.449-1.026c.16-.333.019-.537-.414-.615a2.567,2.567,0,0,0-.429-.043c-.633-.005-1.266,0-1.9,0a2.7,2.7,0,0,0-1.162.231,1.564,1.564,0,0,1-1.133.1,2.963,2.963,0,0,0-2.07.131,1.83,1.83,0,0,1-1.174.072,7.23,7.23,0,0,0-1-.125,6.9,6.9,0,0,0-2.288.273,1.134,1.134,0,0,1-.779-.046,1.138,1.138,0,0,0-.782-.045c-.411.116-.815.247-1.219.378a1.264,1.264,0,0,0-.882.861.5.5,0,0,0,.144.592.655.655,0,0,0,.695.033,2.943,2.943,0,0,1,1.144-.187,1.944,1.944,0,0,0,1.1-.292c.2-.132.437-.228.648-.351a.4.4,0,0,1,.454-.008.746.746,0,0,0,.757.011A2.494,2.494,0,0,1,79.765,44.83Zm-12.257.943c0-.468-.2-.641-.768-.61a2.182,2.182,0,0,0-.594.129,2.959,2.959,0,0,1-1.053.184,4.42,4.42,0,0,0-.65.045.651.651,0,0,0-.333.118,1.1,1.1,0,0,1-.874.237c-.186-.009-.373,0-.56,0a3.982,3.982,0,0,0-2.036.445,1.081,1.081,0,0,1-.853.127.825.825,0,0,0-.37-.005c-.578.126-1.161.245-1.725.408a.566.566,0,0,0-.394.788c.116.285.4.4.824.342a1.46,1.46,0,0,1,.43-.025,3.034,3.034,0,0,0,1.733-.267q.536-.231,1.089-.434a.972.972,0,0,1,1,.114.853.853,0,0,0,.807.119c.251-.073.518-.109.777-.165a4.171,4.171,0,0,0,.624-.145,4.567,4.567,0,0,1,1.571-.257A1.223,1.223,0,0,0,67.508,45.773ZM51.056,48.388l-.024-.071c-.2.018-.413.024-.615.057-.374.061-.74.165-1.117.2a3.371,3.371,0,0,0-1.171.3,8.477,8.477,0,0,1-.909.32c-.64.215-1.282.426-1.922.643a.912.912,0,0,0-.2.114c-.151.1-.24.244-.162.383a.534.534,0,0,0,.339.253,9.93,9.93,0,0,0,1.358.028,1.42,1.42,0,0,0,.623-.2,5.791,5.791,0,0,1,2.382-.734c.611-.067,1.217-.166,1.827-.244a2.526,2.526,0,0,1,.46-.017,2.662,2.662,0,0,0,1.306-.134,12.007,12.007,0,0,1,1.492-.543,10.432,10.432,0,0,0,1.118-.433.421.421,0,0,0,.253-.511.539.539,0,0,0-.5-.374,2.812,2.812,0,0,0-.828-.018c-.419.078-.817.226-1.227.338-.3.082-.606.155-.91.233-.255.065-.511.13-.765.2C51.593,48.243,51.325,48.316,51.056,48.388Zm43.432-3.176c.286-.042.589-.094.895-.13a6.643,6.643,0,0,0,1.628-.3,1,1,0,0,0,.591-.5.663.663,0,0,0-.339-.808.785.785,0,0,0-.905.067,3.069,3.069,0,0,1-.268.173.445.445,0,0,1-.511-.039,1.644,1.644,0,0,1-.219-.214c-.275-.311-.426-.338-.87-.214a3.2,3.2,0,0,1-.72.112c-.414.019-.834-.019-1.244.019a4.767,4.767,0,0,1-1.475-.091,2.348,2.348,0,0,0-.676-.021.561.561,0,0,0-.5.337.393.393,0,0,0,.155.487c.1.085.228.146.338.223.188.131.371.266.557.4a1.017,1.017,0,0,0,.237.162,3.709,3.709,0,0,0,1.8.267,2.712,2.712,0,0,1,1.012,0C94.132,45.18,94.3,45.188,94.488,45.212Zm-15.2,4.731c-.088.006-.2.008-.315.02-.492.052-.7.391-.462.749a1.4,1.4,0,0,0,.147.164c.167.178.154.2-.105.265-.5.131-1.013.246-1.492.418a1.912,1.912,0,0,1-.927.131.375.375,0,0,0-.2.011,2.688,2.688,0,0,0-.6.359c-.364.353-.461.911.276,1.174a2.369,2.369,0,0,0,2.368-.54,3.385,3.385,0,0,1,.457-.373,4.621,4.621,0,0,0,.617-.494.577.577,0,0,0,.119-.448c-.027-.168.032-.208.21-.229a.871.871,0,0,0,.824-.724.476.476,0,0,1,.039-.147,1.122,1.122,0,0,1,.138-.148,1.7,1.7,0,0,1-.188.042.111.111,0,0,1-.08-.024A1.225,1.225,0,0,0,79.286,49.943Zm4.03-2.064.011-.072c.8-.023,1.593-.021,2.384-.083a2.541,2.541,0,0,0,.94-.3.553.553,0,0,0,.094-.985,1.7,1.7,0,0,0-2.04.049,1.017,1.017,0,0,1-1.025.149c-.193-.062-.373-.149-.565-.211a.751.751,0,0,0-.624.031.858.858,0,0,0-.319.975.63.63,0,0,0,.316.256C82.753,47.775,83.039,47.818,83.316,47.879Zm9.946-1.569,0,.026c-.145,0-.291-.007-.435,0-.322.021-.524.144-.56.326a.5.5,0,0,0,.395.571,3.111,3.111,0,0,0,.48.094c.312.05.625.1.94.138a2.77,2.77,0,0,0,.825.052,8.994,8.994,0,0,1,1.774-.2.882.882,0,0,0,.706-.269c.325-.4.027-.869-.582-.922a2.9,2.9,0,0,0-1.23.215,2.523,2.523,0,0,1-1.423.072A8.588,8.588,0,0,0,93.262,46.31Zm-22.384-.085a.855.855,0,0,0,.638-.219c.174-.168.341-.342.5-.521.209-.237.095-.508-.253-.574a2.023,2.023,0,0,0-.581-.028c-.337.036-.666.127-1,.154a1.208,1.208,0,0,0-1.086.691c-.054.11-.132.212-.185.323-.175.365.055.64.535.608a.846.846,0,0,0,.523-.174.757.757,0,0,1,.883-.26A.161.161,0,0,0,70.878,46.225Zm8.738.718,0-.018c-.246.022-.494.033-.736.069-.206.03-.4.1-.444.3a.442.442,0,0,0,.29.566,4.8,4.8,0,0,0,1.05.273,1.535,1.535,0,0,0,.7-.148.527.527,0,0,0,.294-.669c-.063-.216-.265-.346-.6-.367C79.989,46.934,79.8,46.943,79.616,46.943Zm8.732,2.98a8.025,8.025,0,0,0-.879.207.574.574,0,0,0-.3.3.639.639,0,0,0,.264.741.769.769,0,0,0,.827.069c.252-.131.507-.258.763-.383a.429.429,0,0,0,.3-.414.41.41,0,0,0-.322-.371A6.258,6.258,0,0,0,88.348,49.923ZM89.8,47.552c.2-.023.395-.04.588-.067.214-.031.408-.1.469-.288a.423.423,0,0,0-.194-.506,2.068,2.068,0,0,0-1.417-.346c-.336.03-.551.184-.589.385-.079.409.135.707.623.763ZM67.379,50.573a.878.878,0,0,0-.955.775.358.358,0,0,0,.394.381,11.4,11.4,0,0,0,1.5-.13.345.345,0,0,0,.172-.637A1.893,1.893,0,0,0,67.379,50.573Zm2.918.153a.459.459,0,0,0-.44-.4,1.211,1.211,0,0,0-1.08.64c-.057.2.013.328.259.4a1.058,1.058,0,0,0,1-.253A1.517,1.517,0,0,0,70.3,50.726Zm-26.35.493a.622.622,0,0,0,.685-.535c0-.2-.258-.36-.55-.351-.37.011-.66.229-.659.5C43.423,51.076,43.62,51.221,43.947,51.219Zm31.915-.582c.058.388.227.515.643.477a.522.522,0,0,0,.483-.512c-.019-.219-.314-.381-.657-.328a1.515,1.515,0,0,0-.464.179C75.832,50.472,75.862,50.574,75.862,50.637Zm-3.721-.025c-.006.227.158.349.48.353.342,0,.591-.157.608-.394a.418.418,0,0,0-.449-.4C72.449,50.159,72.148,50.368,72.141,50.612Zm28.5-6.577a.3.3,0,0,0-.325-.3.326.326,0,0,0-.326.255.3.3,0,0,0,.323.279C100.506,44.27,100.639,44.176,100.645,44.035ZM58.854,45.168c.278-.034.522-.085.571-.324.012-.057-.058-.126-.094-.188,0,0-.033,0-.049,0-.269.06-.475.264-.463.465C58.82,45.145,58.853,45.167,58.854,45.168Zm18.771,5.31c-.125-.053-.188-.1-.248-.1s-.137.078-.129.1a.2.2,0,0,0,.139.12C77.442,50.605,77.505,50.544,77.625,50.478Zm-2.515.387c-.129-.062-.206-.1-.289-.135-.02-.007-.061.025-.091.038a2.714,2.714,0,0,0,.209.174A.829.829,0,0,0,75.11,50.865Zm-.178,1.14.022,0v.178c.027-.087.059-.173.078-.261.005-.023-.031-.052-.048-.078ZM96.9,48.487c-.049-.031-.068-.052-.085-.051a.547.547,0,0,0-.1.023c.016.016.03.043.048.045A.712.712,0,0,0,96.9,48.487ZM63.42,43.95a.494.494,0,0,0-.06-.01h-.089c.007.005.014.015.021.015C63.331,43.954,63.371,43.951,63.42,43.95Zm11.855,7.355a.085.085,0,0,0,0-.022c0-.007-.008-.014-.012-.022a.177.177,0,0,0,0,.023A.09.09,0,0,0,75.275,51.305Zm25.589-7.611c-.014.01-.029.02-.042.031l.015.018a.3.3,0,0,0,.041-.029Zm-38.173,4,.022-.011-.017-.013a.229.229,0,0,0-.029.018Zm6.6,5.151.012-.02-.014,0ZM105.6,49.875l-.018-.008,0,.012Z"/>
    <path d="M15.76,6.089a1.015,1.015,0,0,1-.227.747c-.23.339-.413.7-.662,1.031a4.464,4.464,0,0,1-.583.521,8.468,8.468,0,0,0-.726.686.373.373,0,0,0,.028.567.67.67,0,0,0,.663.088c.175-.053.347-.111.519-.168.249-.081.491-.182.748-.239a1.276,1.276,0,0,0,.724-.411,3.218,3.218,0,0,0,.32-.435c.354-.586.7-1.177,1.05-1.763a8.371,8.371,0,0,1,.937-1.46A6.256,6.256,0,0,0,19.623,3.3a3.586,3.586,0,0,1,.253-.493.635.635,0,0,1,.605-.24c.237.007.291.155.379.292a3.221,3.221,0,0,0,.426.584.805.805,0,0,1,.13,1.1c-.257.349-.512.7-.787,1.039a4.487,4.487,0,0,0-.751,1.364,1.438,1.438,0,0,1-.542.727,1.549,1.549,0,0,0-.554.724c-.095.241-.245.467-.358.7-.127.268-.256.536-.355.811a1.227,1.227,0,0,1-.428.607c-.14.1-.271.211-.411.312a1.886,1.886,0,0,0-.724.9,1.8,1.8,0,0,1-.558.813,1.337,1.337,0,0,0-.445.743,1.707,1.707,0,0,1-.627.947,5.746,5.746,0,0,0-.606.613.892.892,0,0,1-.526.333c-.658.111-1.062-.164-.971-.724a3,3,0,0,1,.283-.667c.148-.333.284-.671.454-1a2.479,2.479,0,0,1,.359-.46c.144-.162.359-.3.44-.477a.517.517,0,0,0-.058-.5c-.064-.074-.366-.03-.554,0-.115.015-.211.106-.325.144a2.687,2.687,0,0,1-.636.18,1.782,1.782,0,0,0-1.252.587c-.118.129-.227.264-.339.4a2.957,2.957,0,0,1-1.013.849,1.061,1.061,0,0,0-.288.193,1.028,1.028,0,0,1-.937.216.56.56,0,0,1-.375-.261,1.031,1.031,0,0,1,.16-1.12c.362-.424.712-.856,1.045-1.3.158-.208.252-.446.395-.662a5.709,5.709,0,0,1,.428-.552c.262-.3.537-.6.8-.9a7.749,7.749,0,0,1,.567-.637,6.639,6.639,0,0,0,1.124-1.371c.223-.344.483-.672.723-1.009q.21-.3.41-.6a.816.816,0,0,1,.843-.408.844.844,0,0,1,.728.678C15.769,5.88,15.76,5.983,15.76,6.089Z"/>
    <path d="M49.735,37.924c.036-.328.074-.581.091-.835a6.041,6.041,0,0,0,.008-.712.662.662,0,0,1,.334-.666A6.834,6.834,0,0,0,51.6,34.619a1.24,1.24,0,0,1,.36-.238,1.524,1.524,0,0,0,.9-1.217.664.664,0,0,1,.349-.508,3.474,3.474,0,0,0,1.407-1.364.131.131,0,0,1,.028-.045,5.661,5.661,0,0,0,.956-1.181.649.649,0,0,1,1,.066c.063.106.106.221.17.328a.832.832,0,0,1-.088,1.037c-.115.14-.217.289-.322.436a1.661,1.661,0,0,1-1.251.711.9.9,0,0,0-.9.694.921.921,0,0,1-.393.563.694.694,0,0,0-.193.2c-.168.275.018.572.407.6.714.052,1.154-.018,1.466-.58A3.625,3.625,0,0,1,56.5,33.033a2.211,2.211,0,0,0,.892-1.168.788.788,0,0,1,.329-.385,1.361,1.361,0,0,0,.523-.585.675.675,0,0,1,.257-.278,5.351,5.351,0,0,0,1.281-1.236,5.124,5.124,0,0,1,.455-.479c.231-.218.476-.426.715-.638a.974.974,0,0,1,.151-.128c.395-.237.577-.253.687.167a.88.88,0,0,0,.571.627c.213.084.265.215.191.4a1.2,1.2,0,0,1-.486.547c-.218.143-.417.306-.638.446a8.166,8.166,0,0,1-.978.579,1.017,1.017,0,0,0-.705.97.852.852,0,0,1-.295.654,1.381,1.381,0,0,0-.452.85c-.025.18-.132.284-.353.34-.622.157-.864.573-.648,1.075.119.277.108.3-.183.457a4.216,4.216,0,0,0-1.716,1.74,4.8,4.8,0,0,1-.379.516,5.666,5.666,0,0,0-.5.666,2.7,2.7,0,0,1-1.066,1.166,1.739,1.739,0,0,0-.813.878c-.171.43-.576.548-1.16.406-.786-.191-.988-.775-.566-1.288.242-.294.541-.555.8-.843a5.03,5.03,0,0,0,.489-.641,3.653,3.653,0,0,0,.284-.592,1.214,1.214,0,0,0,.111-.417c.007-.305-.286-.447-.613-.3a6.942,6.942,0,0,0-.959.457,1.219,1.219,0,0,0-.431.507,4.3,4.3,0,0,0-.2.769c-.072.291-.154.354-.507.388s-.618-.057-.721-.286A2.487,2.487,0,0,1,49.735,37.924Zm7.838-4.767c-.029.038-.058.06-.054.074a1.033,1.033,0,0,0,.069.137c.022-.021.065-.046.061-.064A.716.716,0,0,0,57.573,33.157Zm-3.238,4.708.046-.025c-.011-.011-.021-.033-.031-.033s-.03.015-.045.024Zm4.493-5.36-.01.016.015,0Z"/>
    <path d="M34.214,26.9a2.7,2.7,0,0,1,.58-1.58.924.924,0,0,0,.2-.519c.019-.243-.183-.379-.482-.348a1.19,1.19,0,0,0-1,.642c-.168.319-.348.634-.547.941a2.313,2.313,0,0,1-1.134.724A.782.782,0,0,1,31,26.283a.555.555,0,0,1,.24-.671,1,1,0,0,0,.446-.622,1.01,1.01,0,0,1,.455-.649,1.6,1.6,0,0,0,.718-.958,1.6,1.6,0,0,1,.615-.861,4.175,4.175,0,0,0,1.333-1.668.657.657,0,0,1,.179-.266,11.011,11.011,0,0,0,1.176-1.406c.269-.291.513-.6.769-.9a.689.689,0,0,1,.525-.235c.333-.011.505.105.538.378a1.309,1.309,0,0,1-.388,1.148,1.225,1.225,0,0,0-.346,1.175c.031.167.07.349.306.411a.573.573,0,0,0,.544-.176A4.1,4.1,0,0,0,39.381,19.5a1.623,1.623,0,0,1,.282-.364,5.056,5.056,0,0,1,1.3-1.34,1.278,1.278,0,0,0,.557-1.071c.024-.242.14-.335.4-.342.3-.009.485.108.5.352a.987.987,0,0,0,.409.718.9.9,0,0,1,.249.371c.1.252.028.324-.223.494a5.451,5.451,0,0,0-.917.72,1.508,1.508,0,0,0-.309.68.593.593,0,0,1-.416.465.93.93,0,0,0-.659.72.774.774,0,0,1-.364.486,1.59,1.59,0,0,0-.409.409c-.235.348-.128.66.271.884.442.25.437.274-.018.509a1.339,1.339,0,0,1-.7.156c-.135-.006-.27-.01-.405,0a.916.916,0,0,0-.85.468c-.249.483-.507.964-.752,1.448-.153.3-.5.421-.8.582-.164.088-.353.145-.517.233-.426.23-.468.462-.2.82a.989.989,0,0,1,.209.463c.022.243-.173.413-.468.421a6.521,6.521,0,0,1-.894-.053.375.375,0,0,1-.357-.312C34.266,27.234,34.239,27.058,34.214,26.9Zm3.266-5.252c0-.4-.2-.558-.641-.447a1.12,1.12,0,0,0-.833.727c-.089.262.066.423.391.472C37.06,22.494,37.478,22.2,37.48,21.644Z"/>
    <path d="M47.635,31.7c.193,0,.387,0,.581,0a.117.117,0,0,0,.073-.018,1.1,1.1,0,0,1,.831-.244c.351,0,.531.191.461.471a.78.78,0,0,1-.05.12A1.2,1.2,0,0,0,49.52,33a5.127,5.127,0,0,1,.189.694c.01.044-.045.1-.071.147-.042-.034-.1-.063-.124-.1a1.093,1.093,0,0,0-.6-.621.945.945,0,0,0-.792-.013c-.379.175-.767.335-1.152.5a.842.842,0,0,0-.471.456c-.092.228-.306.333-.535.463a7.676,7.676,0,0,0-1.741,1.085c-.189.19-.44.336-.644.516s-.382.374-.57.563-.37.36-.541.549a1.71,1.71,0,0,0-.378.483,3.342,3.342,0,0,0-.254,1.523,1.245,1.245,0,0,1-.7,1.24,2.412,2.412,0,0,0-.849.925c-.121.19-.025.358.162.5.252.193.26.272-.009.443a3.235,3.235,0,0,0-.738.644,1.244,1.244,0,0,1-.558.3,1.03,1.03,0,0,0-.689.5,1.063,1.063,0,0,1-.826.507,7.661,7.661,0,0,0-.944.37,5.109,5.109,0,0,1-.742.232,2.13,2.13,0,0,0-1.33.638.558.558,0,0,1-.38.172c-.516-.011-1.031-.057-1.546-.089a.414.414,0,0,1-.412-.294,1.536,1.536,0,0,1,.178-1.31.543.543,0,0,1,.5-.211,4.15,4.15,0,0,0,1.378-.266,6.628,6.628,0,0,1,.832-.194,2.049,2.049,0,0,0,1.118-.507.2.2,0,0,1,.045-.036c.552-.341,1.08-.714,1.665-1.011A1.662,1.662,0,0,0,39,40.669c.074-.348.095-.345.534-.4a1.157,1.157,0,0,0,.333-.05.807.807,0,0,0,.339-.262c.077-.135.009-.284-.148-.385a1.839,1.839,0,0,0-.181-.1c-.357-.168-.356-.207-.17-.518a4.843,4.843,0,0,0,.841-1.9,1.323,1.323,0,0,1,.269-.5c.2-.3.406-.587.616-.877a3.253,3.253,0,0,1,.353-.445,11.732,11.732,0,0,1,1.858-1.462c.27-.17.556-.323.824-.5a6.976,6.976,0,0,0,.747-.526,2.173,2.173,0,0,1,.768-.458,3.424,3.424,0,0,0,.735-.324A1.445,1.445,0,0,1,47.635,31.7Zm.861,1.2h-.025l0,.013a.107.107,0,0,0,.025,0Z"/>
    <path d="M37.6,5.363c0-.309.075-.382.446-.448.333-.059.661-.135,1-.188.233-.036.471-.05.707-.068.689-.052,1.381-.092,2.068-.157a.959.959,0,0,0,.464-.181A1.232,1.232,0,0,1,43.01,4.1c.762-.044,1.523-.1,2.285-.153a.828.828,0,0,0,.211-.039,3.991,3.991,0,0,1,1.555-.161,1.669,1.669,0,0,0,.887-.18.943.943,0,0,1,.882.014l.905.445c.142.069.291.164.2.3a.564.564,0,0,1-.357.144,4.57,4.57,0,0,1-.462-.03,1.722,1.722,0,0,0-.908.222,2.85,2.85,0,0,1-.885.284c-.515.119-1.024.261-1.524.419a.875.875,0,0,0-.577.508,2.078,2.078,0,0,1-.652.8,13.612,13.612,0,0,0-1.841,1.981c-.351.45-.775.86-1.15,1.3a3.448,3.448,0,0,0-.978,1.593c-.02.124-.168.248-.288.344-.535.427-1.087.839-1.619,1.269a1.137,1.137,0,0,0-.3.384.54.54,0,0,1-.507.319c-.226.013-.453.028-.681.036-.206.006-.321-.084-.3-.251a2.469,2.469,0,0,1,.429-1.462,10.29,10.29,0,0,0,.7-1.05c.191-.281.388-.561.6-.833q.646-.84,1.311-1.67a7.076,7.076,0,0,1,.514-.572c.4-.4.813-.794,1.219-1.19.311-.3.234-.617-.2-.793a1.272,1.272,0,0,0-1.095-.039,1.682,1.682,0,0,1-1.154.144c-.31-.06-.636-.063-.95-.109C37.839,6,37.6,5.742,37.6,5.363Z"/>
    <path d="M26.026,5.067a1.42,1.42,0,0,1,1.513.724,3.276,3.276,0,0,0,.6.611A.973.973,0,0,1,28.3,7.5a.9.9,0,0,1-.361.229,1.429,1.429,0,0,0-.718.577c-.1.15-.228.284-.332.431a.822.822,0,0,0-.166.3,4.208,4.208,0,0,1-.821,1.443.921.921,0,0,1-.588.389,2.276,2.276,0,0,0-1.1.627,4.038,4.038,0,0,0-.982,1.283,1.108,1.108,0,0,1-1.08.572,11.371,11.371,0,0,1-1.328-.061.438.438,0,0,1-.433-.344c-.087-.357-.2-.709-.287-1.066a.613.613,0,0,1,.009-.279,3.39,3.39,0,0,1,.253-.966c.254-.445.447-.906.668-1.359.065-.135.235-.234.349-.355.476-.5.959-1,1.417-1.517a1.427,1.427,0,0,0,.273-.508,1.167,1.167,0,0,1,.533-.632,2.9,2.9,0,0,0,.667-.561,1.832,1.832,0,0,1,1.563-.635Zm.451,1.718c-.021-.308-.247-.432-.572-.3-.185.074-.353.182-.545.241a1.349,1.349,0,0,0-.834.608,1.4,1.4,0,0,1-.243.325,2.086,2.086,0,0,0-.517.833,1.961,1.961,0,0,1-.514.774,1.9,1.9,0,0,0-.4.6.784.784,0,0,0,0,.419c.016.12.125.155.269.158a.96.96,0,0,0,.595-.24A7.217,7.217,0,0,0,25.2,8.637c.4-.494.758-1.012,1.126-1.524A1.694,1.694,0,0,0,26.477,6.785Zm-3.92,4.171c-.053-.037-.086-.078-.119-.079-.2,0-.2.137-.252.242-.007.016.038.047.058.072Z"/>
    <path d="M102.353,30.813a2.546,2.546,0,0,1-1.2-.3,2.372,2.372,0,0,0-1.344-.328,2.2,2.2,0,0,0-.569.1c-.38.132-.747.29-1.119.438a1.652,1.652,0,0,0-1.026.937,3.466,3.466,0,0,1-.384.7.968.968,0,0,1-.338.322.835.835,0,0,0-.486.7.95.95,0,0,1-.391.7.885.885,0,0,0-.366.708.76.76,0,0,1-.35.626c-.23.169-.41.382-.632.56a.722.722,0,0,1-.381.18,6.054,6.054,0,0,1-.989-.05.449.449,0,0,1-.313-.2.76.76,0,0,1,.084-.807c.359-.432.728-.86,1.077-1.3a.84.84,0,0,0,.167-.375.579.579,0,0,1,.413-.548.237.237,0,0,0,.053-.026,1.7,1.7,0,0,0,.558-1.451.288.288,0,0,0-.306-.2,4.336,4.336,0,0,0-1.763.421c-.543.222-1.1.427-1.655.623a3.55,3.55,0,0,1-.461.039,4.983,4.983,0,0,0-.915.214,2.332,2.332,0,0,1-1.058.131.357.357,0,0,1-.365-.263.763.763,0,0,1,.209-.833,2.11,2.11,0,0,1,1.361-.727,2.739,2.739,0,0,1,.52,0,1.19,1.19,0,0,0,.855-.134,2.835,2.835,0,0,1,1.324-.4c.428-.045.863-.038,1.3-.065a.93.93,0,0,0,.41-.081,1.949,1.949,0,0,1,.827-.254,12.2,12.2,0,0,0,1.293-.252.879.879,0,0,1,.7.078,1.4,1.4,0,0,0,1.615-.116,1.364,1.364,0,0,1,1.129-.278,7.152,7.152,0,0,0,.992.027,1.43,1.43,0,0,0,.905-.343.73.73,0,0,1,1.117.228c.129.357.244.719.353,1.081.085.282,0,.388-.35.453C102.682,30.782,102.516,30.793,102.353,30.813Zm-7.237-.06,0-.015-.157.027c.047.021.094.041.14.064s.064.052.1.051a.492.492,0,0,0,.135-.039.361.361,0,0,0-.093-.086A.335.335,0,0,0,95.116,30.753Z"/>
    <path d="M64.142,18.822a3.977,3.977,0,0,0,1.75-.137,1.452,1.452,0,0,1,.518-.068,9.448,9.448,0,0,0,2.509-.286.919.919,0,0,1,.481.02,2.76,2.76,0,0,0,1.578.1c.6-.12,1.2-.257,1.789-.406a5.511,5.511,0,0,0,.543-.237,2.612,2.612,0,0,1,.571-.164,4.882,4.882,0,0,1,.652-.007c.42,0,.666.16.713.5a3.958,3.958,0,0,1,.005.714c-.006.15-.113.222-.294.162a1.727,1.727,0,0,0-1.412.178.765.765,0,0,1-.616.049,1.8,1.8,0,0,0-1.6.2c-.18.122-.443.166-.613.294a7.58,7.58,0,0,0-.859.763,1,1,0,0,1-.63.33c-.552.072-.7.225-.7.681,0,.077,0,.153.007.23a.342.342,0,0,1-.283.38c-.389.123-.682.316-.755.68a.312.312,0,0,1-.137.165.939.939,0,0,0-.34,1.167.494.494,0,0,0,.046.121c.426.771-.473,1.454-1.2,1.565a.8.8,0,0,1-.4-.093c-.208-.094-.4-.212-.6-.32-.558-.3-.569-.748-.219-1.077a14.666,14.666,0,0,0,1.807-2.605c.138-.2.323-.371.484-.558a1.808,1.808,0,0,0,.253-.316.4.4,0,0,0-.29-.588,2.749,2.749,0,0,0-1.305-.119,1.679,1.679,0,0,1-.2,0c-.022,0-.057.01-.061.022a.634.634,0,0,1-.648.407c-.331.013-.66.038-.989.067-.664.06-.967-.184-1.057-.543a5.2,5.2,0,0,1-.179-.617c-.042-.341.191-.563.6-.625a2.475,2.475,0,0,1,.307-.038C63.641,18.818,63.911,18.822,64.142,18.822Zm3.39,1.154-.107-.129c-.031.029-.1.068-.088.086a.606.606,0,0,0,.113.134Z"/>
    <path d="M21.9,25.277c-.077-.477-.158-.955-.231-1.433a1.25,1.25,0,0,1,.265-.876c.368-.549.754-1.092,1.171-1.617a1.578,1.578,0,0,1,.595-.39,6.794,6.794,0,0,0,1.092-.624c.589-.4,1.226-.751,1.838-1.129a2.267,2.267,0,0,0,.554-.4,1.236,1.236,0,0,1,.8-.433,1.562,1.562,0,0,1,1.874.877c.151.357-.025.571-.481.542a5.472,5.472,0,0,0-2.293.55A3.78,3.78,0,0,0,25.7,21.4a2.175,2.175,0,0,1-.491.384,1.719,1.719,0,0,0-.685.678,2.1,2.1,0,0,1-.315.466,3.725,3.725,0,0,0-.78,1.433,1.5,1.5,0,0,0,.16,1.338,1.107,1.107,0,0,1,.2.837,3.2,3.2,0,0,1-.93,1.848,4.193,4.193,0,0,1-1.523,1.044.239.239,0,0,0-.1.064,8.038,8.038,0,0,1-1.706,1.137,1.591,1.591,0,0,1-.655.266,1.619,1.619,0,0,1-1.191-.411c-.241-.2-.139-.5-.039-.752a1.349,1.349,0,0,1,.959-.78,7.785,7.785,0,0,0,2.351-1.218,1.731,1.731,0,0,0,.514-.652,2.857,2.857,0,0,0,.338-1.8Z"/>
    <path d="M1.008,13.524c-.031,0-.062,0-.094,0-.731-.019-1.12-.547-.8-1.091a.637.637,0,0,1,.535-.309,6.146,6.146,0,0,0,2.545-.937,1.445,1.445,0,0,0,.413-.376c.264-.325.494-.668.761-.991a2.825,2.825,0,0,0,.6-1.372,8.811,8.811,0,0,0,.191-1.694,1.246,1.246,0,0,1,.154-.54c.3-.605.617-1.2.929-1.8a.437.437,0,0,1,.05-.093c.476-.565.944-1.136,1.437-1.691a5.337,5.337,0,0,1,.676-.6,2.335,2.335,0,0,1,.516-.319A5.131,5.131,0,0,0,10.533.653a4,4,0,0,1,.659-.5,1.274,1.274,0,0,1,1.226.013c.68.348.705.729.048,1.1a6.6,6.6,0,0,1-.752.293,2.443,2.443,0,0,0-.621.273c-.454.371-.88.765-1.3,1.163-.29.276-.559.569-.82.865-.5.57-.991,1.151-1.493,1.722a1.608,1.608,0,0,0-.317.893,1.319,1.319,0,0,1-.119.469,4.051,4.051,0,0,0-.44,1.422,9,9,0,0,1-.688,2.288,1.747,1.747,0,0,1-.353.405c-.166.171-.366.323-.511.5a3.826,3.826,0,0,1-2.137,1.467c-.375.092-.725.248-1.095.356-.26.076-.535.119-.8.177Z"/>
    <path d="M36.192,6.514c-.021.348-.036.7-.066,1.043-.017.2-.127.277-.383.294-.185.012-.374.008-.555.037-.43.071-.638.229-.662.575a1.245,1.245,0,0,1-.6.962c-.385.271-.732.578-1.117.849a2.757,2.757,0,0,1-.541.233c-.285.115-.576.22-.856.341-.146.063-.268.162-.411.229a1.4,1.4,0,0,0-.685.639c-.2.386-.272.408-.882.367a.261.261,0,0,1-.06-.014c-.327-.093-.731-.081-.944-.342a1.81,1.81,0,0,1-.417-1.308,3.053,3.053,0,0,1,.806-1.868q.511-.561,1.017-1.125a.93.93,0,0,0,.19-.262,3.45,3.45,0,0,1,1.049-1.306c.321-.287.61-.6.912-.9a.7.7,0,0,1,.732-.209,1.507,1.507,0,0,0,1.335-.189,1.369,1.369,0,0,1,1.348.1c.1.085.2.171.3.255a.814.814,0,0,1,.308.569,4.915,4.915,0,0,0,.109.526c.035.166.068.333.1.5Zm-1.707.06c0-.372-.222-.557-.692-.5a1.254,1.254,0,0,0-.554.2,4.182,4.182,0,0,0-.454.477,2.076,2.076,0,0,1-.464.391,1.36,1.36,0,0,0-.587.51,2.663,2.663,0,0,1-.715.8c-.279.216-.545.443-.812.669a1.454,1.454,0,0,0-.234.237.327.327,0,0,0-.014.454.531.531,0,0,0,.568.085.732.732,0,0,0,.168-.064,15.892,15.892,0,0,0,1.4-.884c.722-.561,1.4-1.164,2.084-1.753A.745.745,0,0,0,34.485,6.574Z"/>
    <path d="M60.591,22.12c-.082.3-.165.592-.247.888a.272.272,0,0,0-.025.1c.089.49-.227.775-.715.989a.4.4,0,0,1-.369.022c-.131-.056-.352-.146-.409-.105a.826.826,0,0,0-.254.392c-.06.157-.013.37-.128.476s-.364.056-.545.1a1.983,1.983,0,0,0-.58.223,1.726,1.726,0,0,1-.771.3c-.284.037-.564.107-.85.127a1.09,1.09,0,0,1-1.28-.928,1,1,0,0,0-.066-.4,1.277,1.277,0,0,1,.005-.968,5.376,5.376,0,0,0,.108-.68.41.41,0,0,1,.3-.331,2.975,2.975,0,0,0,.982-.69,2.319,2.319,0,0,1,.612-.413,1.6,1.6,0,0,0,.8-.615c.127-.23.386-.246.635-.232a2.509,2.509,0,0,0,1.282-.205.755.755,0,0,1,.955.331c.2.437.353.885.516,1.331a1.033,1.033,0,0,1,.025.279Zm-1.449-.156a.48.48,0,0,0-.448-.459,1.77,1.77,0,0,0-.962.124,1.271,1.271,0,0,0-.714.855,1.089,1.089,0,0,1-.642.85.261.261,0,0,0-.066.054c-.263.248-.153.567.229.662a1,1,0,0,0,.9-.285c.184-.181.391-.345.588-.517.114-.1.234-.192.338-.3.188-.191.376-.383.543-.587A2.8,2.8,0,0,0,59.142,21.964Zm.384,1.875.077-.058a.226.226,0,0,0-.075-.024.466.466,0,0,0-.1.025Zm-2.714-1.5v-.013l-.022,0Z"/>
    <path d="M48.624,19.526c.156,0,.312,0,.467,0,.263.011.335.074.376.292.054.284.1.571.178.851a2.312,2.312,0,0,0,.228.522c.084.147.108.265-.061.382-.248.172-.231.423-.279.656a3.225,3.225,0,0,1-.142.437c-.017.048-.069.089-.08.137a5.7,5.7,0,0,1-.9,1.553,2.981,2.981,0,0,1-.458.542,6.047,6.047,0,0,1-.766.666,2.514,2.514,0,0,1-1.921.465c-.334-.058-.664-.129-.994-.2a.448.448,0,0,1-.387-.352,1.255,1.255,0,0,1,.165-.965,2.276,2.276,0,0,0,.2-.373,1.672,1.672,0,0,1,.907-1.077.848.848,0,0,0,.32-.306,1.871,1.871,0,0,1,.733-.646.372.372,0,0,0,.1-.062,3.868,3.868,0,0,1,1.247-.775.436.436,0,0,0,.2-.709.761.761,0,0,1-.058-.737c.094-.239.187-.3.5-.3.145,0,.291,0,.436,0Zm-2.539,5.023c.229-.109.472-.2.684-.329a3,3,0,0,0,1.075-1,1.148,1.148,0,0,0,.149-.409.325.325,0,0,0-.235-.356.435.435,0,0,0-.476.089,2.08,2.08,0,0,0-.269.338,7.126,7.126,0,0,1-.43.584c-.238.262-.486.508-.43.868.011.07-.041.146-.064.22a.253.253,0,0,0-.087.024.262.262,0,0,0-.061.079.1.1,0,0,0,.04.026.263.263,0,0,0,.084-.059C46.081,24.6,46.079,24.573,46.085,24.549Z"/>
    <path d="M71.735,33.29c-.077.432-.154.876-.238,1.319a.349.349,0,0,1-.094.186c-.332.31-.671.615-1.013.918a2.142,2.142,0,0,1-.246.155c-.3.2-.327.19-.485-.089a1.428,1.428,0,0,0-.111-.182.5.5,0,0,0-.791.008.549.549,0,0,0-.1.313c0,.172-.076.232-.29.247-.46.031-.916.107-1.376.135a2.451,2.451,0,0,1-.659-.074,2.9,2.9,0,0,1-.375-.177.985.985,0,0,1-.633-.875.37.37,0,0,1,.016-.276c.313-.392.5-.857,1.01-1.137a3.009,3.009,0,0,0,.671-.514,2.847,2.847,0,0,1,1.189-.67,1.329,1.329,0,0,0,.8-.562,1.468,1.468,0,0,1,1.376-.571.694.694,0,0,1,.407.2A13.383,13.383,0,0,1,71.63,32.8,1.423,1.423,0,0,1,71.735,33.29ZM68.2,34.359a.927.927,0,0,1,.193.158.577.577,0,0,0,.775.214,1.381,1.381,0,0,0,.776-.964.356.356,0,0,0-.255-.422.517.517,0,0,0-.565.1c-.276.274-.723.442-.805.843-.006.03-.075.052-.115.077l-.046.056.027.011Z"/>
    <path d="M75.413,35.215c.161-.331.159-.777.526-1.112a1.436,1.436,0,0,0,.471-.788c.039-.2.173-.3.4-.372a3.52,3.52,0,0,0,.757-.377c.386-.243.741-.517,1.128-.758a1.75,1.75,0,0,1,.436-.114,4.129,4.129,0,0,0,.687-.21.836.836,0,0,1,1.068.09c.609.4.811.852.5,1.449a.457.457,0,0,0-.025.252,3.757,3.757,0,0,1-.313,1.7A1.519,1.519,0,0,1,79.8,36.031a5.924,5.924,0,0,0-.653.224,6.883,6.883,0,0,1-.706.16c-.279.049-.562.091-.845.113a1.168,1.168,0,0,1-.529-.033c-.44-.206-.861-.441-1.273-.683A.644.644,0,0,1,75.413,35.215ZM79.6,33.578l-.069-.014a.68.68,0,0,0-.007-.278.636.636,0,0,0-.25-.32.43.43,0,0,0-.5.1,1.178,1.178,0,0,1-.91.453.393.393,0,0,0-.193.076,7.106,7.106,0,0,0-.73.55.793.793,0,0,0-.016,1.029.709.709,0,0,0,.437.2,9.147,9.147,0,0,0,1.227-.1.7.7,0,0,0,.58-.42C79.32,34.424,79.455,34,79.6,33.578Z"/>
    <path d="M94.677,52.039a.355.355,0,0,0,.251-.522c-.03-.044-.086-.075-.116-.118-.058-.083-.324-.033-.219-.209a.576.576,0,0,1,.644-.234.868.868,0,0,1,.135.061c.206.119.2.18-.012.279-.239.111-.251.241-.032.363s.234.183.02.315a1.2,1.2,0,0,0-.546.691,2.649,2.649,0,0,0-.053.428.912.912,0,0,1-.038.133.577.577,0,0,1-.1-.09c-.221-.346-.428-.7-.659-1.037a3.723,3.723,0,0,0-.478-.592.521.521,0,0,0-.79.024,4.4,4.4,0,0,0-.282.394,3.429,3.429,0,0,1-.417.5.252.252,0,0,1-.446-.124.357.357,0,0,1,.016-.248,2.176,2.176,0,0,1,1-1.041.482.482,0,0,1,.518.006,1.568,1.568,0,0,0,.983.248c.326,0,.327,0,.229.251C94.168,51.816,94.333,52.036,94.677,52.039Zm-2.57-.245c.028-.053.056-.08.052-.1s-.038-.049-.058-.074c-.025.027-.064.051-.071.081S92.065,51.744,92.107,51.794Z"/>
    <path d="M71.937,55.913a.717.717,0,0,1-.191-.077c-.017-.015.013-.08.042-.109.15-.151.306-.3.46-.445a.168.168,0,0,1,.069-.05c.131-.03.264-.055.4-.081a1.8,1.8,0,0,1-.138.256,1.6,1.6,0,0,1-.277.305A2.552,2.552,0,0,1,71.937,55.913Z"/>
    <path d="M67.552,41.945c.037-.023.111-.11.2-.12a.336.336,0,0,1,.329.286.247.247,0,0,1-.268.229C67.649,42.331,67.546,42.2,67.552,41.945Z"/>
    <path d="M59.84,40.591c.04.087.081.132.067.152a1.624,1.624,0,0,1-.169.185c-.025-.04-.081-.089-.069-.119A1.185,1.185,0,0,1,59.84,40.591Z"/>
    <path d="M85.135,52.912a.811.811,0,0,1-.108-.173c-.006-.017.057-.048.089-.073a1.018,1.018,0,0,1,.1.145C85.22,52.827,85.178,52.858,85.135,52.912Z"/>
    <path d="M66.966,54.037a.227.227,0,0,1,.031.031s-.013.017-.019.016a.259.259,0,0,1-.048-.012Z"/>
  </g>
</svg>
