<svg xmlns="http://www.w3.org/2000/svg" width="132.023" height="59.275" viewBox="0 0 132.023 59.275">
  <style> path { fill: #103cb7; } @media (prefers-color-scheme: dark) { path { fill: #fd5151; } }</style>
  <g>
    <path d="M27.467,14.494a2.329,2.329,0,0,0-.872-1.665A7.2,7.2,0,0,0,22.5,10.786c-1.765-.237-3.558-.356-5.339-.527l-.019.166c-.935,0-1.872.034-2.8-.011a12.442,12.442,0,0,1-1.948-.27c-.42-.088-.561-.491-.255-.744A8.386,8.386,0,0,1,13.87,8.157,27.368,27.368,0,0,1,20.8,5.837a15.237,15.237,0,0,1,5.157.029c.17.028.4.15.434.257s-.143.275-.288.348A11.714,11.714,0,0,1,22.78,7.492c-.779.132-1.546.309-2.307.5-.14.034-.22.209-.328.319a4.876,4.876,0,0,0,.547.141,1.3,1.3,0,0,0,.4-.026c2.661-.471,5.317-.956,7.983-1.411A4.245,4.245,0,0,0,31.88,5.432a17.361,17.361,0,0,0,1.578-2.448c.474-.921.107-1.725-1.043-2.21A11.6,11.6,0,0,0,29.974.152,20.336,20.336,0,0,0,25.393.113,34.679,34.679,0,0,0,14.56,2.064,42.42,42.42,0,0,1,7.445,4.385a1.669,1.669,0,0,0-.609.353c-.036.027.042.217.081.219.255.018.514,0,.771,0l1.083-.008a7.942,7.942,0,0,1-.578.6c-.309.265-.679.491-.973.765C5.914,7.536,4.654,8.764,4.335,10.406c-.111.568-.282,1.042.5,1.374.325,1.214,1.595,1.674,2.921,2.051a19.252,19.252,0,0,0,4.9.685c2.133.045,4.263.175,6.394.276a1.04,1.04,0,0,1,.306.118c-.093.064-.172.163-.28.188-.7.161-1.412.292-2.106.466-.136.034-.209.212-.31.324a1.1,1.1,0,0,0,.349.121c.331,0,.663-.029.992-.061.727-.07,1.452-.155,2.18-.221a1.392,1.392,0,0,1,.372.07.8.8,0,0,1-.14.27A7.392,7.392,0,0,1,17,17.844a35.672,35.672,0,0,1-4.279.758,17.4,17.4,0,0,1-7.054-.767c-.574-.189-.979-.439-1.07-.986-.106-.628-.545-.771-1.16-.385a27.909,27.909,0,0,0-2.6,1.873,3.557,3.557,0,0,0-.643.937c-.495.756.164,1.476.121,2.217.434.049.874.079,1.3.157a1.342,1.342,0,0,1,.464.262c.545.363,1.072.741,1.631,1.091a1.708,1.708,0,0,0,.694.248c1.913.2,3.823.439,5.746.535a23.444,23.444,0,0,0,14.376-3.723A6.226,6.226,0,0,0,27.467,14.494Z"/>
    <path d="M56.174,45.346c.1-.249-.168-.5-.53-.5a3.365,3.365,0,0,0-.6.027c-1.621.288-3.238.588-4.859.877-.8.143-1.521.608-2.427.383.4-.519.8-1.04,1.214-1.556a4.933,4.933,0,0,1,.36-.364c1.752-1.784,3.508-3.567,5.246-5.359a1.454,1.454,0,0,0,.219-.526,2.536,2.536,0,0,0-.737-.144c-1.45.169-2.891.377-4.338.559-3.635.458-3.636.456-5.569,2.854-.069.086-.145.17-.209.259a4.238,4.238,0,0,1-3.076,2.173c-.143.019-.246.217-.367.332.159.074.316.209.477.211.563.009.718.146.424.538-.923,1.23-1.834,2.466-2.748,3.7q-.876,1.182-1.748,2.365c-.255-.953.284-1.84.452-2.752.5-2.75,1.151-5.484,1.738-8.225a6.836,6.836,0,0,0,.147-.9c.042-.581-.331-.853-1.117-.717-2.4.416-4.8.871-7.193,1.312A1.142,1.142,0,0,0,30.57,40c-.087.054-.194.178-.165.23a.486.486,0,0,0,.309.152c.312.049.755-.009.913.129s.1.47.071.712c-.209,1.61-.435,3.218-.658,4.827-.159,1.151-.224,1.2-1.764,1.466-.711.125-1.415.273-2.114.429-.065.014-.129.177-.1.248a.366.366,0,0,0,.269.178c.856-.084,1.708-.19,2.561-.289.58-.09.817.069.788.583-.11,1.918-.161,3.837-.453,5.747-.084.545-.464.77-1.012,1.01-.493.216-1.224.124-1.486.641.593.6,1.184-.047,1.772,0,.166.014.457.118.457.18a6.794,6.794,0,0,1-.118,1.655c-.117.46-.774.494-1.26.642a7.171,7.171,0,0,0-.891.334.243.243,0,0,0-.118.251.4.4,0,0,0,.3.15c.932.007,1.746-.494,2.736-.337a3.2,3.2,0,0,0,1.173-.125c1.909-.45,3.8-.94,5.717-1.376a3.05,3.05,0,0,0,1.823-1.088c2.355-2.935,4.771-5.842,7.1-8.788a1.49,1.49,0,0,1,1.571-.518c.619.079.7.153.462.571a12.385,12.385,0,0,1-.788,1.219c-.623.831-1.25,1.663-1.925,2.471-.883,1.056-1.349,2.317-2.679,3.16-.088.056-.067.261-.017.377s.582.088.2.379c-.7.53-.895,1.367-1.833,1.765-.048.02-.022.167,0,.25.009.032.115.076.166.069a10.054,10.054,0,0,0,1.154-.18c1.577-.406,3.123-.894,4.725-1.228a3.489,3.489,0,0,0,2.389-1.433c2-2.912,4.081-5.8,6.125-8.69A1.879,1.879,0,0,0,56.174,45.346ZM45.321,54.765c-.124.012-.25.016-.375.023.012-.037.023-.1.036-.1.124,0,.248.008.372.014C45.343,54.721,45.335,54.764,45.321,54.765Z"/>
    <path d="M131.184,38.766c-1.061.085-2.117.207-3.178.292-.342.027-.5-.161-.35-.381.555-.8,1.156-1.59,1.712-2.394a.686.686,0,0,0,.1-.543c-.021-.074-.359-.163-.525-.138-1.7.26-3.392.53-5.079.825a1.75,1.75,0,0,0-1.18.766c-.432.627-.907,1.238-1.345,1.864a2.409,2.409,0,0,1-1.995,1.115,2.238,2.238,0,0,0-2.182,1.312,6.023,6.023,0,0,1-.378.7,4.814,4.814,0,0,1-.427.5,2.918,2.918,0,0,1-.111-.521c-.042-1.413-.959-2.148-2.769-2.245a6.567,6.567,0,0,0-3.061.572c-.518.23-1.016.485-1.529.723-.146.067-.411.251-.44-.009-.091-.8-.744-.529-1.3-.437-1.108.183-2.222.353-3.314.581a2.267,2.267,0,0,0-1.178.5,22.063,22.063,0,0,0-1.676,2.58c-.1.168.257.57.151.638-1.08.691-1.345,2.051-3.095,2.194-.068.005-.189.174-.16.21a.636.636,0,0,0,.311.158c.243.065.615.058.709.18s-.07.372-.122.565c-.154.579-.94,1.02-.647,1.7a3.514,3.514,0,0,0-1.162,1.707c-.209.414-.414.829-.62,1.244.612.466,1.252.037,1.874.017a11.734,11.734,0,0,0,1.374-.2c3.04-.463,2.7-.5,3.714-2.273.953-1.671,1.943-3.331,2.849-5.016a3.9,3.9,0,0,1,2.615-1.733c.09-.025.4.159.394.227-.057.4-.228.783-.269,1.178a1.411,1.411,0,0,1-1.072,1.34c-.639.2-.618.356-.466.869s-.252,1.147-.569,1.675c-.493.823-1.168,1.583-1.674,2.4a3,3,0,0,1-2.557,1.691.769.769,0,0,0-.357.123.442.442,0,0,0-.139.245c-.006.018.1.079.154.083a3.7,3.7,0,0,0,.79.032c2.356-.347,4.7-.72,7.062-1.064a2.033,2.033,0,0,0,1.581-1.051q1.908-3.258,3.8-6.521a8.708,8.708,0,0,1,.467-.838,2.009,2.009,0,0,1,1.767-.447c.555.263-.142.621-.018.955.041.108-.077.3-.2.387a3.409,3.409,0,0,0-1.154,1.738c-.54,1.237-1.046,2.483-1.584,3.721-.263.606.934,1.166.079,1.78.047.036.086.091.142.1,1.307.331,2.422,1.115,3.237,1.019a11.364,11.364,0,0,0,5.335-1.31,1.258,1.258,0,0,0,.494-.465c.54-1.026,1.064-2.057,1.552-3.1a.5.5,0,0,0-.152-.535,1.058,1.058,0,0,0-.717-.072c-1.063.3-2.1.642-3.16.957a.51.51,0,0,1-.351-.047.227.227,0,0,1-.046-.257c.962-1.557,1.957-3.1,2.895-4.666a2.543,2.543,0,0,1,2.175-1.142c.928-.077,1.85-.194,2.776-.285a1.711,1.711,0,0,0,1.388-.76c.492-.774,1.029-1.531,1.527-2.3C132.21,39,131.924,38.707,131.184,38.766Z"/>
    <path d="M47.674,11.968c-1,1.536-2.076,3.044-3.141,4.555a2.151,2.151,0,0,1-.63.567c-.479.292-1.339.225-1.434.881.636.066,1.272.135,1.909.2a1.605,1.605,0,0,0,.4,0c1.69-.287,3.38-.574,5.066-.873a1.3,1.3,0,0,0,.953-.709c.729-1.246,1.5-2.476,2.248-3.716.359-.6.671-1.213,1.04-1.806.667-1.07,1.953-1.453,3.361-1.667.087-.013.358.227.328.276-.718,1.225-.746,2.828-3,3.229a.248.248,0,0,0-.154.09c-.047.082-.118.192-.08.256a.508.508,0,0,0,.3.156c.259.054.884-.151.659.259-.515.938-.671,2.115-2.341,2.447-.229.045-.419.3-.1.459a.581.581,0,0,1,.37.626c-.007.7.151.792.966.656,1.366-.229,2.722-.491,4.089-.717A3.173,3.173,0,0,0,60.9,15.719a30.873,30.873,0,0,0,2.169-3.573c.579-1.42,2-1.937,3.54-2.436.421-.137.923.152.768.449-.719,1.37-.934,2.992-3.1,3.674-.307.1-.281.354-.009.466.419.173.631.33.3.685-.268.286-.632.586-.687.906-.088.52-.52.62-1.024.789-.768.258-.727.393,0,.779a1.845,1.845,0,0,0,1.294.235c1.554-.287,3.124-.525,4.666-.841a1.956,1.956,0,0,0,1.09-.59c1.557-2.174,3.062-4.37,4.554-6.571a5.285,5.285,0,0,0,.456-1.06,2.285,2.285,0,0,0-1.49-1.972,5.4,5.4,0,0,0-3.473-.325c-1.214.256-2.406.582-3.581.931-.507.15-.858.2-1.177-.2A2.965,2.965,0,0,0,62.794,6.2a15.255,15.255,0,0,0-4.892.619c-.6.187-.567.163-.936-.414a1.03,1.03,0,0,0-.743-.372c-2.107.221-4.2.488-6.3.754a.3.3,0,0,0-.209.22c0,.057.17.116.27.168.591.305.655.459.254.727a3.36,3.36,0,0,1-.81.42c-.436.143-.627.314-.469.692a.738.738,0,0,1-.046.573A20.983,20.983,0,0,1,47.674,11.968Zm22.72-3.48.164.05-.165.054Z"/>
    <path d="M65.163,35.314a7.157,7.157,0,0,0,1-.493.222.222,0,0,0,.07-.255.486.486,0,0,0-.317-.14,4.589,4.589,0,0,0-.6.023c-1.185.067-1.363.051-2.137-.54a9.16,9.16,0,0,1-1.372-1.3c-.653-.76-1.241-1.553-1.845-2.336-.478-.62-.452-.832.273-1.3,1.417-.922,2.873-1.811,4.288-2.735a13.712,13.712,0,0,0,1.54-1.177.486.486,0,0,0,.031-.519c-.038-.078-.36-.132-.534-.109-1.439.194-2.864.478-4.313.593a4.818,4.818,0,0,0-2.485.853c-.785.545-1.585,1.077-2.393,1.6a1.466,1.466,0,0,1-.455.093.828.828,0,0,1,.087-.278c1.272-1.717,2.557-3.43,3.825-5.149.455-.616.893-1.241,1.3-1.875.192-.3-.122-.645-.543-.641a5.2,5.2,0,0,0-.789.066q-2.738.444-5.469.9a5.829,5.829,0,0,0-1.136.283c-.29.116-.57.333-.122.568.25.131.39.278.255.5-.17.274-.378.534-.563.8-1.724,2.508-3.465,5.009-5.156,7.529a3.21,3.21,0,0,1-1.7,1.609c-.251.086-.317.327,0,.472.268.124.685.149.233.494a3.667,3.667,0,0,0-.789.843c-.547.8-1.063,1.6-1.565,2.416-.1.162-.193.437-.088.534a1.062,1.062,0,0,0,.714.121c1.559-.266,3.1-.618,4.667-.828a2.46,2.46,0,0,0,2.164-1.349,14.625,14.625,0,0,1,1.221-1.905.769.769,0,0,1,.443,0c.163.358.558.53.9.765.4.275.608.639.243,1.078-.29.349-.079.59.458.573.466-.014,1.033-.151,1.144.313.041.17-.455.406-.688.624-.074.07-.158.216-.116.259a.745.745,0,0,0,.426.249c.7.023,1.42-.332,2.086.157a3.513,3.513,0,0,0,3.67.141C62.383,36.292,63.792,35.829,65.163,35.314Z"/>
    <path d="M33.541,35.512c.438-.843,1-1.648,1.469-2.482.225-.4-.085-.69-.686-.655-.462.026-.919.106-1.377.169-1.575.216-3.147.444-4.726.646A2.938,2.938,0,0,1,27.5,33.1a2.21,2.21,0,0,1,.193-.423c2.337-3.235,4.479-6.553,7.157-9.642a10.233,10.233,0,0,0,.875-1.19c.247-.388-.06-.7-.649-.658a21.458,21.458,0,0,0-2.379.233c-2.23.413-4.658.293-6.616,1.47-.632.38-.706.3-.736,1.121a1.453,1.453,0,0,1-.133.435,2.224,2.224,0,0,1-1.687,1.176,1.394,1.394,0,0,0-.406.284,2.778,2.778,0,0,0,.443.248c.3.105.637.126.367.511-1.062,1.515-2.113,3.036-3.107,4.578A2.668,2.668,0,0,1,18.508,32.7a1.947,1.947,0,0,0-.569.136c-.277.1-.726.145-.566.483.046.1.45.147.684.137.58-.026,1.157-.1,1.736-.15a4.413,4.413,0,0,0-.745.668c-.909,1.294-1.818,2.589-2.648,3.912a3.1,3.1,0,0,1-1.5,1.537.4.4,0,0,0-.235.36c.021.089.284.21.431.2a18.042,18.042,0,0,0,1.98-.169c4.173-.67,8.317-1.464,12.519-2C31.611,37.567,32.821,36.893,33.541,35.512Z"/>
    <path d="M31.633,8.466a2.807,2.807,0,0,0,.484.147,1.467,1.467,0,0,0,.39-.055c-.031.115-.013.265-.1.338a5.372,5.372,0,0,1-.632.369,7.429,7.429,0,0,0-3.992,6.648,1.527,1.527,0,0,0,.628,1.54c.559.335.571.62.192,1.018-.037.038.132.258.26.3a2.59,2.59,0,0,0,.587.032c.129.008.255.037.382.057-.067.07-.114.175-.205.2-.548.18-1.11.335-1.657.517-.094.031-.21.2-.191.218a.813.813,0,0,0,.42.225,5.909,5.909,0,0,0,.98-.135,15.766,15.766,0,0,1,4.159-.248,13.865,13.865,0,0,0,7.355-1.55,15.271,15.271,0,0,0,5.182-4.928,2.849,2.849,0,0,0,.312-.719c1.032-2.786-1.525-5.506-5.322-5.663-.333-.014-.667-.033-1-.022-2.761.086-5.311.9-7.965,1.355C31.78,8.136,31.72,8.345,31.633,8.466ZM33.444,15.3c.6-1,1.2-2.011,1.906-2.974a2.746,2.746,0,0,1,1.186-.764c1.122-.428,2.286-.793,3.444-1.164a.686.686,0,0,1,.5.063.428.428,0,0,1-.036.413c-.2.372-.465.724-.65,1.1A2.7,2.7,0,0,1,37.553,13.5a2.6,2.6,0,0,0-.712.245c-.1.044-.225.2-.2.23a1.473,1.473,0,0,0,.4.256c.045.023.133-.012.2,0,.22.042.438.092.657.14a2.066,2.066,0,0,1-.486.448,15.993,15.993,0,0,1-3.7.924C33.6,15.571,33.389,15.389,33.444,15.3Z"/>
    <path d="M95.551,48.771c-.275-.286-.5-.6-.782-.879a1.188,1.188,0,0,0-1.414-.181,12.326,12.326,0,0,0-1.054.69,11.292,11.292,0,0,1-3.441,1.5c-.416.1-.831-.176-.756-.5a2.195,2.195,0,0,1,1.829-1.8,80.213,80.213,0,0,1,8.441-1.815,1.686,1.686,0,0,0,.944-.462,2.976,2.976,0,0,0,.166-3.887,2.546,2.546,0,0,0-1.327-1.087,8.961,8.961,0,0,0-4.843-.554c-1.549.282-3.057.7-4.58,1.06a1.446,1.446,0,0,0-.519.215c-1.065.828-2.124,1.659-3.159,2.508a.74.74,0,0,0-.259.537c0,.146.394.291-.026.436a3.587,3.587,0,0,0-1.908,1.882,3.9,3.9,0,0,0-.818,2.3c.107.763-.326,1.59.323,2.32.2.227.45.5.134.831-.428.442-.1.481.414.409a1.893,1.893,0,0,1,.587.013c.478.089.595.34.353.855-.138.292.082.41.348.4,1.058-.049,2.113-.139,3.169-.214l.011.087c.534,0,1.071.031,1.6-.005a10.985,10.985,0,0,0,6.24-2.134C96.889,49.952,96.779,50.043,95.551,48.771ZM91.719,44.48c.81-.5,1.621-1.008,2.444-1.5a.472.472,0,0,1,.346-.028c.079.042.079.17.11.253A1.622,1.622,0,0,1,93.3,44.4c-.443.093-.88.2-1.326.284a1,1,0,0,1-.337-.073C91.664,44.568,91.674,44.507,91.719,44.48Z"/>
    <path d="M69.038,42.854c-.579-.1-1.179-.144-1.3-.158a13.8,13.8,0,0,0-4.751.678,19.327,19.327,0,0,0-3.4,1.272,8.579,8.579,0,0,0-1.828,1.761c-.317.324-.627.654-.9,1-.216.268-.111.481.31.559.192.036.393.04.589.058a1.577,1.577,0,0,1-.439.2,2.25,2.25,0,0,0-2.145,1.93,3.441,3.441,0,0,0-.1.6c-.019.412-.313.642-.8.775a5.216,5.216,0,0,0-.724.258c-.1.043-.226.191-.206.211.109.1.3.278.391.256a1.716,1.716,0,0,1,2.1.915,6.489,6.489,0,0,0,.9.985c.224.219.495.411.744.615-.373.1-.751.2-1.119.312a3.253,3.253,0,0,0-.509.219c-.041.02-.076.1-.057.126.054.083.138.22.21.22a6.3,6.3,0,0,0,.982-.071,29.824,29.824,0,0,1,4.547-.458,10.9,10.9,0,0,0,4.431-.806,17.743,17.743,0,0,0,2.27-1.234A11.621,11.621,0,0,0,72.934,47.9C73.922,45.465,72.33,43.446,69.038,42.854Zm-9.8,10.1a.417.417,0,0,1-.117-.067.478.478,0,0,1,.175-.029c.051.012.084.065.126.1A1.016,1.016,0,0,1,59.238,52.952ZM66.975,46.6a10.889,10.889,0,0,1-1.083,1.611c-.281.322-.848.5-1.123.827-.228.27-.182.666-.329.986a.911.911,0,0,1-.481.46c-.843.28-1.715.51-2.713.8-.142-.222-.361-.4-.309-.505a11.608,11.608,0,0,1,3.131-3.829,5.44,5.44,0,0,1,2.564-.745C66.969,46.154,67.1,46.4,66.975,46.6Z"/>
    <path d="M74,15.678a1.293,1.293,0,0,0-.493.242c-.067.05-.059.171-.053.259,0,.029.1.074.161.078a4.988,4.988,0,0,0,.79.026c.462-.046.915-.137,1.376-.191.081-.01.18.068.271.106-.122.039-.318.057-.351.122a.8.8,0,0,0-.125.54c.058.185.267.343.416.511.442.5.442.5-.241.745a2.568,2.568,0,0,0-.513.225c-.084.054-.156.187-.123.255a.412.412,0,0,0,.31.134c.464-.019.925-.071,1.389-.1a11.871,11.871,0,0,1,1.985-.086c3.62.415,6.485-.792,9.174-2.391.625-.371.627-.617.179-1.172-.277-.345-.555-.689-.838-1.032a1.319,1.319,0,0,0-1.826-.339c-.345.151-.631.387-.988.514-1.142.406-2.285.817-3.465,1.149-.645.182-1.041-.173-.874-.657a2.608,2.608,0,0,1,2.587-1.806c.465-.03.926-.089,1.388-.137q3.07-.318,6.14-.635a2.185,2.185,0,0,0,1.623-.783,7.535,7.535,0,0,0,.653-.935c.955-1.815.146-3.473-2.2-4.277a22.3,22.3,0,0,0-2.848-.6,26.25,26.25,0,0,0-2.806.291c-1.915.423-3.8.923-5.686,1.417-.183.048-.29.266-.432.4.173.033.344.075.519.1s.485-.022.545.052c.218.266-.17.28-.349.388a8.3,8.3,0,0,0-3.68,3.69,21.352,21.352,0,0,0-.89,3.1C74.636,15.26,74.554,15.564,74,15.678ZM84.976,9.527q1.034-.582,2.1-1.135a2.4,2.4,0,0,1,.533-.128,1.366,1.366,0,0,1-.084.53c-.6.992-.68,1.027-2.078,1.059-.132,0-.264,0-.395-.015a.5.5,0,0,1-.177-.051C84.892,9.7,84.9,9.571,84.976,9.527Z"/>
    <path d="M73.9,30.235c2.471-.421,4.919-.924,7.4-1.321,2.065-.331,2.827-1.233,2.8-2.835-.023-1.322-1.265-2.427-3.15-2.772-.771-.141-1.583-.152-2.377-.222a11.943,11.943,0,0,0-5.336,1.11,10.338,10.338,0,0,1-1.638.537c-.422.122-.923.142-1.049.571.38.048.761.092,1.139.149a4.363,4.363,0,0,1,.45.115,3.5,3.5,0,0,1-.363.1,3.222,3.222,0,0,0-1.7.736,10.686,10.686,0,0,0-2.42,3.461c-.366.806-.58,1.594-1.659,2.053-.253.108-.216.361.1.465.346.113.736.068,1.016.383a8.621,8.621,0,0,0,2.565,2.42.309.309,0,0,1,.166.253c-.078.641.389.615,1,.517a9.646,9.646,0,0,1,1.774-.176,11.778,11.778,0,0,0,7.061-2.136,6.6,6.6,0,0,0,.932-.785c.288-.282.22-.584-.117-.811-.5-.335-1.029-.64-1.549-.955-1.186-.721-1.313-.718-2.541.054a5.823,5.823,0,0,1-.765.486,11.064,11.064,0,0,1-1.782.668c-.957.234-1.59-.246-1.387-.972A1.546,1.546,0,0,1,73.9,30.235ZM76.8,26.9a9.494,9.494,0,0,1,1.187-.534.785.785,0,0,1,.491.116c-.008.179-.041.457-.188.512a8.917,8.917,0,0,1-1.267.292l-.387-.132C76.693,27.066,76.715,26.944,76.8,26.9Z"/>
    <path d="M103.058,23.148c-.317.555-.708,1.086-1.06,1.63-.2.312-.211.559.322.711.181.052.426.306.387.415a4.532,4.532,0,0,1-.841,1.8,3.963,3.963,0,0,0-1.085,1.916c-.117.465-.526.674-.992.88-.308.136-.382.334.029.366.922.073.819.882,1.488,1.134.066.025-.012.375-.125.533-.08.112-.358.132-.5.234a1.444,1.444,0,0,0-.278.362c.16.064.332.2.477.181,1.778-.189,3.553-.4,5.327-.606,2.343-.276,3.783-1.318,4.454-3.019.18-.458.767-.857.317-1.4-.568.1-1.135.194-1.7.284-.7.111-1.406.215-2.11.322-.338-.625.4-.992.634-1.475.346-.708.816-1.382,1.166-2.09a2.053,2.053,0,0,1,1.819-1.013c.725-.076,1.465-.109,2.167-.25a2.081,2.081,0,0,0,1.136-.528,21.749,21.749,0,0,0,1.521-2.462c.154-.278-.1-.493-.485-.528-.324-.029-.659.018-.99.019-.633,0-1.259.376-1.9.023.256-.46.494-.926.773-1.378.2-.319.46-.614.676-.927.241-.35.05-.612-.372-.614-1.445.125-2.838.226-4.22.38a1.435,1.435,0,0,0-.793.409c-.581.612-1.127,1.245-1.638,1.892-.413.523-.746,1.143-1.6,1.275A2.55,2.55,0,0,0,103.058,23.148Z"/>
    <path d="M83.248,45.145c1.456-2.1,2.929-4.2,4.394-6.3.032-.045.058-.091.085-.137.443-.744.161-1.092-.858-.992-1.189.117-2.371.274-3.552.434-2.706.364-2.712.367-3.845,2.3a3.909,3.909,0,0,1-1.78,1.954c-.168.075-.344.4-.27.482.373.431.065.772-.163,1.127-.552.862-1.189,1.7-1.657,2.583a21.222,21.222,0,0,1-3.1,4.721c-.1.1.054.341.1.515.03.12.154.312.1.346-1.516.942-1.654,2.523-2.9,3.585-.036.031-.048.129-.028.137a3.6,3.6,0,0,0,.384.122c.293-.069.61-.145.928-.218,1.594-.365,3.168-.8,4.79-1.068a2.519,2.519,0,0,0,1.928-1.15c1.414-2.233,2.868-4.451,4.306-6.675C82.489,46.327,82.845,45.726,83.248,45.145Z"/>
    <path d="M37.035,32.082q-1.353,2.274-2.66,4.563c-.161.283.231.579.713.495,1.877-.327,3.745-.684,5.617-1.03a1.55,1.55,0,0,0,1.2-.917,51.374,51.374,0,0,1,4.584-7.21c.479-.662.952-1.328,1.371-2.012.3-.494-.124-.9-.856-.879-.2.006-.393.041-.59.062a46.624,46.624,0,0,0-7.763,1.8.927.927,0,0,0-.322.174c-.086.07-.191.169-.182.249.006.059.173.14.281.154a4.683,4.683,0,0,0,.593.007l.019-.09,1.063.168c-.177.255-.378.5-.527.765a3.254,3.254,0,0,1-2.5,1.764c-.1.015-.255.18-.235.205a.964.964,0,0,0,.354.267c.776.337.815.4.412.854A5,5,0,0,0,37.035,32.082Z"/>
    <path d="M91.461,30.807c-.078.043-.133.2-.09.262.513.7-.42,1.052-.645,1.569-.114.265-.607.585-.515.723.285.428.907.289,1.407.22.718-.1,1.419-.266,2.135-.377.447-.069.907-.089.992-.1,1.286.094,1.3.1,1.686-.525q2.906-4.644,5.8-9.293a1.833,1.833,0,0,0,.278-.714c.034-.281-.192-.492-.578-.5a5.411,5.411,0,0,0-.973.1c-1.364.227-2.724.465-4.086.694-.766.13-.742.126-.743.835a1.358,1.358,0,0,1-.265.69c-.971,1.491-1.949,2.979-2.949,4.458C92.465,29.519,92.331,30.319,91.461,30.807Z"/>
    <path d="M97.9,19.094a1.384,1.384,0,0,1,.432.447,2.13,2.13,0,0,0,2.54.977,7.3,7.3,0,0,0,3.645-1.762,4.24,4.24,0,0,0,.749-1.248,2.244,2.244,0,0,0-1.744-2.129,4.31,4.31,0,0,0-2.695.314c-.826.451-1.985.677-2.088,1.682a1.125,1.125,0,0,1-.817.976c-.281.1-.7.262-.73.43C97.12,19.151,97.676,18.965,97.9,19.094Z"/>
    <path d="M44.879,23.933A7.762,7.762,0,0,0,49.9,22.11a1.09,1.09,0,0,0-.166-1.775,3.567,3.567,0,0,0-.8-.429c-2.189-.926-5.663.46-6.328,2.152-.426,1.083.187,1.756,1.685,1.873C44.48,23.946,44.681,23.933,44.879,23.933Z"/>
    <path d="M53.044,41.134c-.728,1.265.463,2.1,1.809,2.156a17.186,17.186,0,0,0,2.642-.613,4.264,4.264,0,0,0,2.6-1.993c.418-1.029-.212-1.814-1.614-1.986A5.727,5.727,0,0,0,53.044,41.134Z"/>
  </g>
</svg>
