<svg xmlns="http://www.w3.org/2000/svg" width="129.576" height="40.088" viewBox="0 0 129.576 40.088">
  <style> path { fill: #103cb7; } @media (prefers-color-scheme: dark) { path { fill: #fd5151; } }</style>
  <g>
    <path d="M0,6.694a.972.972,0,0,0,.233-.725A2.5,2.5,0,0,1,.579,4.447c.22-.425.389-.876.585-1.313A2.469,2.469,0,0,1,2.036,2.2a10.179,10.179,0,0,1,1.129-.676,2.93,2.93,0,0,1,.426-.132c.348-.126.686-.284,1.041-.382C5.09.881,5.562.806,6.025.7A3.158,3.158,0,0,0,6.683.506a4.215,4.215,0,0,1,2.1-.254,8.293,8.293,0,0,0,2.1-.144,2.172,2.172,0,0,1,.449-.035A3.537,3.537,0,0,0,11.96.09a6.616,6.616,0,0,1,2.157,0c.318.045.637.086.956.127.369.048.738.092,1.107.14a3.36,3.36,0,0,1,1.758.839c.045.039.1.084.116.136a4.451,4.451,0,0,0,.616,1.126.257.257,0,0,1,.047.139,1.17,1.17,0,0,0,.229.762,1.326,1.326,0,0,1,.141.662c0,.267.064.532.093.8a.521.521,0,0,1,0,.267c-.165.341-.348.674-.526,1.009-.108.2-.213.409-.331.607a.7.7,0,0,1-.221.274,1.4,1.4,0,0,0-.511.611c-.116.2-.259.375-.391.561-.213.3-.43.594-.638.895-.154.221-.294.451-.443.675-.254.38-.541.742-.758,1.141a3.952,3.952,0,0,1-.751,1,2.452,2.452,0,0,0-.395.63c-.229.421-.448.848-.672,1.272q-.647,1.227-1.293,2.455a6.373,6.373,0,0,0-.3.59c-.113.281-.206.572-.3.861a.321.321,0,0,0,.037.17,1.485,1.485,0,0,1-.043,1.042c-.146.4-.47.7-.548,1.109a1.97,1.97,0,0,1-.547.948,4.749,4.749,0,0,1-.891.993.524.524,0,0,0-.182.2,1.754,1.754,0,0,1-.934.757.792.792,0,0,1-.874-.145,2.3,2.3,0,0,1-.924-1.295.673.673,0,0,1-.008-.324,3.642,3.642,0,0,0,.216-1.176.581.581,0,0,1,.144-.409,2.108,2.108,0,0,0,.471-.919c.284-.654.542-1.322.88-1.948.138-.255.215-.528.351-.777a2.707,2.707,0,0,1,.429-.647,8.033,8.033,0,0,0,.777-1.242c.232-.324.475-.642.691-.977s.384-.7.608-1.032c.373-.546.776-1.07,1.161-1.607.454-.633.9-1.271,1.354-1.906a.822.822,0,0,1,.11-.143,7.2,7.2,0,0,0,1.143-1.424,6.342,6.342,0,0,1,.467-.507,1.462,1.462,0,0,0,.279-.383c.158-.393-.015-.654-.431-.657-.656,0-1.312-.008-1.967.015a10.966,10.966,0,0,0-1.252.125c-.392.059-.774.182-1.166.235-.524.07-1.055.091-1.581.151a1.418,1.418,0,0,0-.535.153,1.9,1.9,0,0,1-1.059.19,5.71,5.71,0,0,0-1.283.282,1.8,1.8,0,0,1-.436.091,2.468,2.468,0,0,0-1.011.22c-.294.1-.6.15-.905.222-.049.011-.109,0-.147.027-.091.062-.238.134-.242.209-.01.159.129.222.287.242a5.12,5.12,0,0,1,.878.142.755.755,0,0,1,.388.333.378.378,0,0,1-.15.456,1.213,1.213,0,0,1-1.029.278,4.581,4.581,0,0,0-.857.034,2.217,2.217,0,0,1-.326,0,5.867,5.867,0,0,0-.849-.089A4.078,4.078,0,0,1,.715,8.518a.736.736,0,0,1-.492-.561A3.769,3.769,0,0,0,0,7.421Z"/>
    <path d="M14.531,18.846c0-.313,0-.625,0-.937a1.232,1.232,0,0,0-.051-.325,1.454,1.454,0,0,1,.011-.972c.085-.221.1-.468.16-.7a2.893,2.893,0,0,1,.186-.472,19.363,19.363,0,0,0,.931-1.974,8.975,8.975,0,0,1,.648-1.239c.221-.423.509-.81.761-1.217.2-.322.372-.662.586-.974.254-.372.54-.722.812-1.081.036-.048.1-.087.112-.139a2.36,2.36,0,0,1,.654-.891,1.2,1.2,0,0,0,.347-.579c.044-.2.254-.351.387-.526.314-.413.613-.838.943-1.238.236-.286.515-.535.768-.807a14.487,14.487,0,0,0,1.146-1.273,5.135,5.135,0,0,1,1.935-1.658.385.385,0,0,0,.153-.091A2.384,2.384,0,0,1,26.21.984a.914.914,0,0,1,.634.053,1.859,1.859,0,0,1,.849.788.817.817,0,0,1-.044.912,1.133,1.133,0,0,0-.266.624c-.011.122-.126.239-.2.351-.112.161-.238.312-.349.473-.166.239-.315.49-.489.722-.192.255-.423.483-.6.746a3.832,3.832,0,0,0-.276.594,3.109,3.109,0,0,1-.85.968,1.337,1.337,0,0,0-.4.684,1.13,1.13,0,0,1-.5.688,1.568,1.568,0,0,0-.334.332c-.292.342-.578.691-.868,1.035a1.683,1.683,0,0,0-.163.177A18.207,18.207,0,0,1,20.3,12.649c-.262.291-.536.571-.787.871-.172.206-.308.441-.471.655a3.637,3.637,0,0,1-.464.551,2.714,2.714,0,0,0-.657.886,3.1,3.1,0,0,1-.429.569c-.084.1-.212.217-.091.334a.24.24,0,0,0,.367-.047c.262-.313.538-.615.808-.922a1.211,1.211,0,0,1,.16-.181c.477-.357.8-.866,1.247-1.252.265-.228.528-.46.775-.706.2-.2.366-.42.553-.626a2.464,2.464,0,0,1,.264-.246c.184-.151.366-.306.56-.443.245-.173.5-.334.753-.494s.533-.317.795-.483a1.048,1.048,0,0,1,1.409.183,2.849,2.849,0,0,0,.728.655.577.577,0,0,1,.208.676,3.458,3.458,0,0,1-.355,1.073c-.021.034-.037.071-.061.1-.369.474-.745.942-1.108,1.422a11.508,11.508,0,0,1-.7.967c-.269.287-.331.674-.569.965-.108.133-.221.262-.341.384a.393.393,0,0,0-.048.537.706.706,0,0,0,.909.1,7.5,7.5,0,0,1,.682-.377.572.572,0,0,0,.128-.066c.226-.213.463-.418.669-.651a5.562,5.562,0,0,0,.537-.722c.185-.3.324-.62.511-.914.161-.253.4-.462.538-.724a7.95,7.95,0,0,1,1.013-1.163,4.418,4.418,0,0,1,1.234-.98c.306-.185.558-.458.851-.668a8.975,8.975,0,0,1,.931-.592c.491-.268,1.011-.483,1.493-.765a6.953,6.953,0,0,1,1.912-.723,10.268,10.268,0,0,1,1.968-.367,1.034,1.034,0,0,1,.657.171,4.707,4.707,0,0,0,.461.211.93.93,0,0,1,.338.234,1.894,1.894,0,0,1,.409.986.654.654,0,0,1-.348.593.653.653,0,0,0-.331.663.861.861,0,0,0,.1.273,1.3,1.3,0,0,1,.166,1.039c-.078.266-.083.552-.142.825a.621.621,0,0,1-.163.3,3.312,3.312,0,0,0-.734.947,2.494,2.494,0,0,1-.443.562.656.656,0,0,0-.25.543.794.794,0,0,1-.166.651.536.536,0,0,0,.031.64.563.563,0,0,0,.74.215,6.286,6.286,0,0,1,.628-.163.32.32,0,0,0,.112-.036,3.183,3.183,0,0,0,1.431-1.68,1.015,1.015,0,0,1,.137-.263c.241-.369.477-.743.734-1.1.279-.389.579-.762.868-1.143a5.191,5.191,0,0,0,.371-.508,4.352,4.352,0,0,1,1.546-1.35,1.49,1.49,0,0,1,1.616,0,.82.82,0,0,0,.337.092.665.665,0,0,1,.622.488.526.526,0,0,1-.158.675,2,2,0,0,0-.464.679,5.3,5.3,0,0,1-.832,1.1c-.275.3-.637.515-.914.812a2.353,2.353,0,0,0-.448.739c-.065.164.133.156.215.1a1.894,1.894,0,0,0,.584-.456,5.289,5.289,0,0,1,1.051-1.067c.166-.142.3-.321.457-.475s.312-.271.46-.414.282-.283.413-.433c.106-.12.186-.266.3-.374.352-.328.708-.652,1.079-.957a1.438,1.438,0,0,1,.522-.28.446.446,0,0,0,.332-.259.476.476,0,0,1,.225-.218,7.455,7.455,0,0,1,.868-.319,4.065,4.065,0,0,0,.942-.422.866.866,0,0,1,.857.237.114.114,0,0,0,.018.025A2.313,2.313,0,0,1,51.19,12.7a1.046,1.046,0,0,1-.179,1.02,1.141,1.141,0,0,0-.227.348,2.349,2.349,0,0,1-.658.922,3.609,3.609,0,0,0-.782.9c-.239.534-.724.855-.993,1.345a7.107,7.107,0,0,0-.413.8c-.117.3.061.516.266.714a.384.384,0,0,0,.524.012c.291-.177.584-.353.866-.545.443-.3.889-.6,1.309-.937a1.043,1.043,0,0,0,.379-.527,6.545,6.545,0,0,1,.5-1.468.819.819,0,0,0,.008-.386.594.594,0,0,1,.19-.485,4.551,4.551,0,0,0,.737-.826,11.9,11.9,0,0,1,1.335-1.89,10.678,10.678,0,0,0,.692-1.076,2.926,2.926,0,0,1,.388-.4,2.3,2.3,0,0,0,.219-.2c.267-.336.5-.7.793-1.012.537-.572,1.106-1.113,1.662-1.667.256-.255.5-.516.769-.761.4-.366.8-.722,1.207-1.078.286-.252.58-.5.867-.746a.662.662,0,0,0,.13-.163,1.357,1.357,0,0,1,.666-.588,2.629,2.629,0,0,0,.7-.5,4.764,4.764,0,0,1,1.357-.847c.263-.094.512-.222.772-.322a.817.817,0,0,1,1.014.4,1.194,1.194,0,0,1-.113,1.47c-.163.224-.253.5-.4.734a2.071,2.071,0,0,1-.391.44,5.05,5.05,0,0,0-.88,1.132,2.973,2.973,0,0,1-.973.975.7.7,0,0,0-.161.136c-.384.425-.768.849-1.146,1.279-.1.109-.166.24-.257.354s-.171.191-.257.286c-.067.073-.131.148-.2.221-.135.146-.272.29-.407.436a1.394,1.394,0,0,0-.271.307,1.74,1.74,0,0,1-.645.692,3.987,3.987,0,0,0-.706.6c-.735.812-1.438,1.652-2.177,2.459-.5.549-1.045,1.06-1.569,1.589a3.312,3.312,0,0,0-.351.371.27.27,0,0,0-.019.252.292.292,0,0,0,.262.032,2.31,2.31,0,0,0,.8-.715c.158-.187.363-.334.531-.514s.333-.4.5-.6c.045-.054.081-.128.138-.156a6.652,6.652,0,0,0,1.263-1.11c.523-.441,1.061-.863,1.6-1.29a3.906,3.906,0,0,1,.439-.32c.229-.136.471-.252.707-.379.087-.047.173-.1.257-.151a1.847,1.847,0,0,1,.274-.18c.37-.145.747-.275,1.119-.416a1.5,1.5,0,0,1,1.437.21,1.972,1.972,0,0,1,.83,1.242,1.692,1.692,0,0,1-.048,1.092.778.778,0,0,0-.046.356.726.726,0,0,1-.353.711.462.462,0,0,0-.177.227,2.227,2.227,0,0,1-.853,1.1c-.285.234-.6.435-.894.655a.482.482,0,0,0-.147.148,1.975,1.975,0,0,1-1.106.814c-.688.311-1.426.542-1.783,1.3-.061.129-.082.244.053.311a2.228,2.228,0,0,0,1.231.412,2.679,2.679,0,0,0,1.243-.465c.345-.236.714-.439,1.042-.7A12.661,12.661,0,0,0,64.3,17a.826.826,0,0,1,.341-.182c.308-.1.513.052.536.376a1.384,1.384,0,0,1-.463,1.266c-.3.257-.5.634-.8.894-.441.385-.934.712-1.4,1.068-.356.271-.7.559-1.062.824a6.889,6.889,0,0,1-.736.469,3.813,3.813,0,0,1-.723.334,2.526,2.526,0,0,1-1.454.1,4.358,4.358,0,0,1-2.227-1.5,3.429,3.429,0,0,1-.347-.687,2.3,2.3,0,0,0-.3-.547.749.749,0,0,0-1.221.178,1.985,1.985,0,0,1-.66.679,2.859,2.859,0,0,0-.625.641.959.959,0,0,1-.7.424,1.029,1.029,0,0,1-.645-.322,1.074,1.074,0,0,1-.39-.94.713.713,0,0,0-.079-.347.3.3,0,0,0-.511-.091,3.672,3.672,0,0,1-.91.686,5.622,5.622,0,0,0-.647.488,8.268,8.268,0,0,0-1.031.873,2.8,2.8,0,0,1-.859.626,1.558,1.558,0,0,1-.69.175c-.219.008-.436.058-.655.076a.693.693,0,0,1-.353-.02c-.372-.194-.734-.41-1.094-.628a1.065,1.065,0,0,1-.461-.806c-.058-.416-.236-.87.157-1.242a.259.259,0,0,0,.056-.2c-.053-.421.217-.714.394-1.047a5.076,5.076,0,0,0,.209-.517,3.018,3.018,0,0,1,.125-.3c.047-.088.121-.162.167-.25a.46.46,0,0,0,.017-.164.382.382,0,0,0-.135.025,4.439,4.439,0,0,0-.413.277c-.25.2-.483.419-.741.608a1.983,1.983,0,0,0-.577.851.44.44,0,0,1-.179.223,1.4,1.4,0,0,0-.565.515,5.533,5.533,0,0,1-1.933,1.682.681.681,0,0,1-.171.054,1.6,1.6,0,0,1-1.71-1.264c-.013-.22-.045-.5-.343-.58a.831.831,0,0,0-.8.3.97.97,0,0,1-.4.342,3.637,3.637,0,0,0-1.233,1.072.8.8,0,0,1-.327.248,3.555,3.555,0,0,1-2.1.338c-.6-.1-1.375-.729-1.269-1.464.011-.079.033-.157.045-.236.024-.165.042-.33.069-.494a1.165,1.165,0,0,1,.085-.369.311.311,0,0,0-.03-.411.4.4,0,0,0-.5,0,3.111,3.111,0,0,1-.791.584,2.438,2.438,0,0,0-.612.662,2.592,2.592,0,0,1-1.143.761c-.131.065-.263.131-.395.2a3.3,3.3,0,0,1-.616.286.747.747,0,0,1-.492-.06,1.632,1.632,0,0,1-.868-.729.262.262,0,0,0-.122-.13c-.471-.211-.578-.668-.723-1.087-.132-.377-.434-.529-.745-.286-.332.26-.61.586-.934.857s-.693.533-1.046.791c-.224.164-.45.326-.686.471a4.349,4.349,0,0,1-.781.417,3.279,3.279,0,0,1-.987.209,1.273,1.273,0,0,1-.9-.347c-.169-.157-.339-.314-.506-.474a.718.718,0,0,1-.257-.554c.009-.34-.023-.682,0-1.019a2.194,2.194,0,0,1,.183-.53,6.506,6.506,0,0,0,.275-.779,2.746,2.746,0,0,1,.438-.948c.022-.032.055-.068.056-.1.006-.115.046-.288-.012-.335-.134-.109-.2.065-.274.145a9.12,9.12,0,0,0-.841.863,6.257,6.257,0,0,0-.969,1.258,2,2,0,0,1-.372.434c-.221.258-.431.528-.661.778a2.824,2.824,0,0,1-1.031.873.885.885,0,0,1-.83-.085,1.789,1.789,0,0,1-.88-1.61c0-.263,0-.525,0-.787Zm19.5-5.181a4.664,4.664,0,0,0-.757.2c-.459.2-.9.449-1.348.676a3.567,3.567,0,0,0-.9.475,10.991,10.991,0,0,1-1.155.886c-.193.144-.4.268-.585.423a.99.99,0,0,0-.352.543,5.361,5.361,0,0,1-.281.751.576.576,0,0,0,.108.617.39.39,0,0,0,.545.04c.065-.044.14-.075.2-.121q.48-.339.955-.683a8.31,8.31,0,0,0,.865-.654c.3-.282.7-.438.922-.8.014-.021.056-.023.079-.042a8.138,8.138,0,0,0,.663-.563c.3-.308.571-.645.86-.964a5.215,5.215,0,0,0,.376-.383.487.487,0,0,0,.067-.325C34.287,13.705,34.122,13.691,34.026,13.665Zm27.078.667c0-.267-.237-.36-.484-.219-.283.162-.56.336-.846.492-.228.123-.48.207-.7.348-.2.13-.351.326-.542.467-.273.2-.572.37-.841.576a1.528,1.528,0,0,0-.374.419c-.056.092-.077.293-.021.346a.392.392,0,0,0,.459.117,5.862,5.862,0,0,0,1.354-.767,1.569,1.569,0,0,1,.7-.445.449.449,0,0,0,.264-.234,1.5,1.5,0,0,1,.765-.693A.425.425,0,0,0,61.1,14.332Z"/>
    <path d="M92.538,18.312a4.977,4.977,0,0,1-.127-.516,1.674,1.674,0,0,1,.262-1.029c.207-.389.435-.767.669-1.14a6.594,6.594,0,0,1,1.03-1.39c.485-.446,1.021-.836,1.531-1.255.155-.127.284-.291.449-.4.446-.3.9-.588,1.363-.847a1.63,1.63,0,0,1,.631-.165c.3-.029.6-.01.9-.012a.871.871,0,0,0,.27,0,2.308,2.308,0,0,1,1.9.433.686.686,0,0,1,.226.907c-.08.152-.026.223.07.336a2.265,2.265,0,0,1,.545,2.173c-.073.269-.107.55-.177.821a7.525,7.525,0,0,1-.284.935c-.134.33-.317.639-.473.96-.117.24-.082.319.173.393a1.253,1.253,0,0,0,1.375-.243.43.43,0,0,1,.24-.12,1.044,1.044,0,0,0,.762-.658,7.307,7.307,0,0,0,.368-.879,4.959,4.959,0,0,1,.164-.477q.289-.564.611-1.109a1.7,1.7,0,0,1,.317-.362,8.473,8.473,0,0,0,.748-.767,18.463,18.463,0,0,1,1.6-1.554,5.222,5.222,0,0,1,.6-.431c.057-.039.127-.1.186-.091a1.172,1.172,0,0,0,.687-.252,1.746,1.746,0,0,1,1.348-.059,5.331,5.331,0,0,1,1.034.457.5.5,0,0,1,.22.8,3.261,3.261,0,0,1-.27.361,6.684,6.684,0,0,1-.6.707c-.446.412-.92.8-1.382,1.19-.052.044-.1.09-.156.135a5.48,5.48,0,0,0-.5.433c-.425.461-1.071.64-1.451,1.153-.214.289-.437.574-.63.877a.671.671,0,0,0,.414.866.3.3,0,0,0,.208-.086c.072-.067.111-.168.178-.241.1-.11.2-.273.324-.3a8.353,8.353,0,0,0,1.867-1.07,6.15,6.15,0,0,0,1.231-.963c.609-.555,1.174-1.157,1.785-1.71.422-.382.888-.715,1.338-1.065a8.686,8.686,0,0,1,.841-.622,10.131,10.131,0,0,1,1.277-.667c.311-.131.686.227.756.638a3.319,3.319,0,0,0,.188.686.546.546,0,0,1-.083.665.331.331,0,0,0-.086.123,1.971,1.971,0,0,1-.666.939.75.75,0,0,0-.2.293,3.55,3.55,0,0,1-1,1.187,3.112,3.112,0,0,0-.276.3,5.8,5.8,0,0,0-.381.5.851.851,0,0,0-.16.372,1.553,1.553,0,0,1-.458,1.08c-.373.36-.288.677.122.893a.57.57,0,0,0,.346.018,7.508,7.508,0,0,0,2.086-.974c.2-.11.366-.281.567-.388a.521.521,0,0,1,.754.19.641.641,0,0,1,.066.315,1.976,1.976,0,0,1-.708,1.377c-.269.254-.564.478-.848.715a.588.588,0,0,0-.117.1,1.46,1.46,0,0,1-.618.438,5.468,5.468,0,0,0-.944.68,2,2,0,0,1-1.158.587.385.385,0,0,0-.183.1,2.089,2.089,0,0,1-1.584.257.342.342,0,0,1-.141-.047q-.389-.225-.772-.455a.4.4,0,0,1-.107-.1c-.146-.191-.281-.392-.435-.575a.769.769,0,0,1-.131-.845c.131-.32.282-.634.393-.961a.456.456,0,0,0-.042-.378c-.091-.107-.245-.081-.375.032a7.53,7.53,0,0,0-.932.792,1.506,1.506,0,0,1-.834.591c-.056.013-.094.1-.144.145a2.488,2.488,0,0,1-1.29.713c-.146.027-.286.1-.432.113-.736.085-1.163-.393-1.571-.888a5.929,5.929,0,0,1-.411-.591.836.836,0,0,0-1.184-.2c-.163.094-.355.14-.522.23-.217.118-.413.279-.636.382a2.145,2.145,0,0,1-.679.208,7.886,7.886,0,0,1-1.087,0,2.2,2.2,0,0,1-.448-.114.614.614,0,0,0-.7.3,4.755,4.755,0,0,1-1.019.823,5.742,5.742,0,0,1-1.675.778,1.45,1.45,0,0,1-1.318-.021,8.772,8.772,0,0,1-1.426-.863,2.979,2.979,0,0,1-1-1.739.577.577,0,0,0-.009-.06c-.128-.441-.333-.5-.661-.152a5.04,5.04,0,0,1-.536.641A9.536,9.536,0,0,1,89.9,21.915a1.623,1.623,0,0,0-.369.31c-.4.365-.793.74-1.2,1.094a6.3,6.3,0,0,1-.727.524,4.116,4.116,0,0,0-.661.6c-.374.373-.788.708-1.184,1.059a2.286,2.286,0,0,0-.175.165c-.449.5-.884,1.016-1.347,1.5-.211.222-.486.383-.713.592-.3.28-.586.581-.879.87-.15.147-.3.3-.459.431a.364.364,0,0,1-.224.077,1.543,1.543,0,0,1-1.677-1.154,2.168,2.168,0,0,1-.1-1.023c.032-.165.082-.327.125-.491a4.976,4.976,0,0,1,.455-1.274c.251-.438.416-.925.626-1.387.243-.535.486-1.071.746-1.6a6.3,6.3,0,0,1,.4-.624c.15-.234.3-.47.451-.7.382-.576.806-1.13,1.134-1.735a5.9,5.9,0,0,1,.857-1.212,1.407,1.407,0,0,0,.1-.178c.135-.2.275-.39.41-.587a1.3,1.3,0,0,0,.255-.4,2.193,2.193,0,0,1,.716-1.058,3.24,3.24,0,0,0,.692-.967c.085-.192.29-.328.432-.5a3.941,3.941,0,0,0,.3-.407c.019-.029-.014-.091-.023-.138a.51.51,0,0,0-.126.062c-.209.186-.4.388-.623.561-.381.3-.784.576-1.162.881a2.026,2.026,0,0,0-.52.538,2.158,2.158,0,0,1-.772.7,2.047,2.047,0,0,0-.486.466,3.566,3.566,0,0,1-.769.717,11.211,11.211,0,0,0-.973.842,5.176,5.176,0,0,1-1.312,1.13,3.353,3.353,0,0,0-.892.692,2.315,2.315,0,0,1-1.138.593,2.918,2.918,0,0,0-.686.29.8.8,0,0,1-.921-.138,1.079,1.079,0,0,0-.39-.262c-.279-.069-.395-.284-.546-.482a2.98,2.98,0,0,1-.417-1.785,1.334,1.334,0,0,1,.433-1.1.864.864,0,0,0,.174-.343,7.253,7.253,0,0,0,.214-.71,3.6,3.6,0,0,1,.662-1.056c.249-.4.523-.781.792-1.167.188-.271.391-.532.579-.8a5.633,5.633,0,0,0,.539-.83,4.289,4.289,0,0,1,.866-1.107c.271-.291.5-.622.749-.933.081-.1.173-.2.256-.295.376-.453.749-.909,1.128-1.36.257-.308.523-.608.782-.916.226-.269.442-.547.673-.813.168-.193.37-.358.527-.559a1.708,1.708,0,0,0,.3-.549c.069-.242-.263-.43-.55-.335-.15.05-.313.063-.456.126-.269.119-.528.259-.788.4-.521.276-1.045.545-1.555.839a4.719,4.719,0,0,0-.528.427,2.746,2.746,0,0,1-.364.256c-.275.153-.559.289-.837.438q-.978.524-1.955,1.054a1.589,1.589,0,0,0-.2.123c-.257.191-.5.405-.77.57a2.172,2.172,0,0,1-.533.16c-.141.04-.285.074-.422.127a3.615,3.615,0,0,1-.835.325c-.4.043-.769-.082-.748-.626a5.054,5.054,0,0,0-.041-.6.467.467,0,0,1-.01-.089c.057-.4.095-.794.183-1.182a2.576,2.576,0,0,1,.332-.945,6.441,6.441,0,0,1,1.12-1.548c.557-.419,1.108-.85,1.686-1.24.505-.342,1.044-.634,1.57-.945.083-.049.18-.074.265-.12.462-.254.918-.519,1.384-.764a3.77,3.77,0,0,1,.483-.151,2.663,2.663,0,0,0,.412-.174,6.623,6.623,0,0,1,1.814-.679.831.831,0,0,0,.331-.137A1.426,1.426,0,0,1,84.6,1.06a9.152,9.152,0,0,0,1.014-.2A4.2,4.2,0,0,1,87.753.8c.178.056.376.055.55.121a3.336,3.336,0,0,1,.634.32.781.781,0,0,1,.339.817,2.009,2.009,0,0,1-.254.919A.18.18,0,0,0,89,3.089a2.12,2.12,0,0,1-.41,1.382.937.937,0,0,0-.087.218,2.136,2.136,0,0,1-.63,1.1,3.5,3.5,0,0,0-.589.866,5.481,5.481,0,0,1-.429.529c-.148.184-.3.368-.438.558-.053.072-.063.186-.128.237-.487.392-.69,1-1.121,1.436a2.774,2.774,0,0,0-.243.339c-.119.161-.242.319-.363.478-.474.629-1.077,1.153-1.494,1.83-.151.243-.355.453-.525.685-.2.266-.38.54-.567.812a5.991,5.991,0,0,0-.465.7,4.382,4.382,0,0,0-.315.862c-.025.095.057.3.128.319a.853.853,0,0,0,.449-.043c.128-.039.234-.159.363-.188a2.489,2.489,0,0,0,.805-.508c.512-.344.994-.734,1.488-1.106.057-.043.113-.085.165-.133.5-.462,1.006-.922,1.5-1.39.349-.33.7-.663,1.025-1.012.481-.512.945-1.039,1.413-1.562.18-.2.337-.423.529-.609.576-.558,1.155-1.114,1.752-1.648.288-.257.627-.456.93-.7.283-.226.546-.475.824-.708.221-.186.447-.368.678-.543a.83.83,0,0,1,1,.214,10.335,10.335,0,0,1,.645,1.078,1.539,1.539,0,0,1-.233,1.639c-.294.385-.516.826-.8,1.218a7.021,7.021,0,0,1-.715,1.035,5.158,5.158,0,0,0-.608.886,4.364,4.364,0,0,1-1.041,1.306c-.37.252-.527.5-.321.941.086.181-.031.347-.24.416a1.563,1.563,0,0,0-.833.815,3.965,3.965,0,0,1-.559.882,3.659,3.659,0,0,0-.405.7c-.134.222-.287.432-.428.649-.075.115-.139.238-.214.353-.148.225-.307.444-.45.673s-.257.446-.382.67c-.029.052-.048.109-.073.163a7.659,7.659,0,0,1-.334.7,7.128,7.128,0,0,1-.566.811.282.282,0,0,0-.012.419c.129.164.239.145.382.037a4.758,4.758,0,0,0,.643-.48,2.444,2.444,0,0,1,1.312-.666,1.157,1.157,0,0,0,.3-.131,4.643,4.643,0,0,1,.479-.281c.541-.222,1.086-.437,1.638-.629a1.089,1.089,0,0,1,.468.006,2.435,2.435,0,0,1,.284.1c.241.057.361-.05.343-.3,0-.06-.015-.12-.023-.18Zm2.548.915a1.318,1.318,0,0,0,.875.992.613.613,0,0,0,.3-.028c.311-.135.62-.274.917-.435a1.07,1.07,0,0,0,.58-1.111,1.787,1.787,0,0,1,.127-1.2c.009-.017,0-.041.008-.06.115-.414.232-.827.343-1.241.043-.16.075-.352-.1-.43a.481.481,0,0,0-.378.06c-.307.183-.588.409-.893.6a3.751,3.751,0,0,0-1.256,1.35,5.58,5.58,0,0,0-.373,1.064C95.183,18.929,95.135,19.078,95.086,19.227ZM94.8,20.62l.175-.081c-.052-.035-.1-.089-.157-.1s-.1.036-.151.056Z"/>
    <path d="M119.639,16.224a3.061,3.061,0,0,0,0-.332,1.074,1.074,0,0,1,.294-.88.265.265,0,0,0,.068-.161,2.253,2.253,0,0,1,.445-1.244c.189-.278.293-.618.5-.875a11.845,11.845,0,0,0,.86-1.574c.17-.286.271-.612.414-.915.055-.116.162-.209.208-.327.105-.263.177-.54.281-.8a1.463,1.463,0,0,1,.237-.409A6.647,6.647,0,0,0,124.17,6.6a2.665,2.665,0,0,1,.194-.4c.14-.251.284-.5.435-.744.116-.187.24-.369.369-.547.157-.218.34-.42.484-.646A2.954,2.954,0,0,1,126.937,3.2a.613.613,0,0,1,.629.041c.408.251.827.486,1.25.71a1.265,1.265,0,0,1,.513.535c.035.061.06.127.089.191.248.552.222.527-.205.961a3.656,3.656,0,0,0-.583.9,2.614,2.614,0,0,1-.5.7,2.961,2.961,0,0,0-.643,1.1,1.153,1.153,0,0,1-.4.625.54.54,0,0,0-.185.33,1.239,1.239,0,0,1-.508.755.78.78,0,0,0-.312.415,2.34,2.34,0,0,1-.465.929c-.216.36-.459.7-.694,1.052a3.588,3.588,0,0,0-.252.336,4.339,4.339,0,0,0-.218.539c-.039.11-.03.249-.094.337-.226.3-.468.6-.716.887a.5.5,0,0,0-.172.428c.01.056.009.145-.025.174-.34.288-.317.79-.647,1.081a.517.517,0,0,0-.191.509,1.561,1.561,0,0,1-.45,1.232.936.936,0,0,1-1.385.182c-.171-.1-.323-.24-.485-.36A1.423,1.423,0,0,1,119.639,16.224Z"/>
    <path d="M119.711,18.369c.3.108.6.2.89.326a1.987,1.987,0,0,1,1.025,1.127c.056.129.137.246.2.369.166.308.138.5-.164.676a.3.3,0,0,0-.169.356,7.1,7.1,0,0,1,.016.786.367.367,0,0,1-.014.149,3.088,3.088,0,0,1-1.521,1.75.612.612,0,0,1-.628-.064,3.458,3.458,0,0,1-1.237-1.125,1.841,1.841,0,0,1-.039-1.989,2.526,2.526,0,0,0,.355-1.041,1.588,1.588,0,0,1,.969-1.268.822.822,0,0,1,.3,0Z"/>
    <path d="M20.428,34.407a2.1,2.1,0,0,1,1.882.987c.159.186.184.48.309.7a.726.726,0,0,1,.043.757,3.044,3.044,0,0,0-.152.686,2.287,2.287,0,0,1-.844,1.172,1.624,1.624,0,0,1-.8.338,2.249,2.249,0,0,1-1.937-.394,4.507,4.507,0,0,0-.494-.377,1.546,1.546,0,0,1-.555-.732,1.012,1.012,0,0,1-.05-.23,1.97,1.97,0,0,1-.059-.406,2.137,2.137,0,0,1,.09-.7,5.088,5.088,0,0,1,.568-1.087,1.549,1.549,0,0,1,.615-.4A2.174,2.174,0,0,1,20.428,34.407Zm-.167,1.026a1.381,1.381,0,0,0-1.053.41.3.3,0,0,0-.11.137,5.284,5.284,0,0,0-.131.786,1.23,1.23,0,0,0,1.38,1.281,1.278,1.278,0,0,0,1.163-1.668A1.189,1.189,0,0,0,20.261,35.433Z"/>
    <path d="M64.24,36.994c.215-.043.428-.1.644-.128a.889.889,0,0,1,.815.348.536.536,0,0,1,.037.673c-.213.372-.452.73-.7,1.083a.647.647,0,0,1-.268.181c-.406.184-.774.491-1.263.414a4.685,4.685,0,0,1-.517-.125c-.265-.074-.533-.144-.791-.24a1.121,1.121,0,0,1-.431-.252,6.3,6.3,0,0,1-.893-1.585.686.686,0,0,1-.018-.417,1.941,1.941,0,0,1,.605-1.258c.125-.1.2-.26.327-.348a2.007,2.007,0,0,1,.677-.365,3.768,3.768,0,0,1,2.434.281.469.469,0,0,1,.284.63.548.548,0,0,1-.673.333c-.16-.056-.308-.141-.465-.206a1.352,1.352,0,0,0-1.186.036,2.848,2.848,0,0,0-.651.515.389.389,0,0,0-.087.346,1.564,1.564,0,0,1,.108.735.89.89,0,0,0,.806.884A2.581,2.581,0,0,0,64.2,38.4a.383.383,0,0,0,.153-.092c.059-.071.16-.193.138-.228a.458.458,0,0,0-.259-.2,3.2,3.2,0,0,0-.482-.021c-.276-.018-.383-.156-.33-.417a.563.563,0,0,1,.574-.466c.081,0,.161-.007.242-.011Z"/>
    <path d="M49.267,34.638a3.41,3.41,0,0,1,1.48.367.187.187,0,0,1,.076.048A2.961,2.961,0,0,1,51.6,36.5a.526.526,0,0,0,.012.12c.331.938-.216,1.569-.775,2.19a1.394,1.394,0,0,1-.938.4c-.285.032-.57.1-.856.1a1.685,1.685,0,0,1-1.226-.5c-.105-.1-.241-.169-.356-.26a2.539,2.539,0,0,1-.647-1.1c-.143-.326.053-.624.147-.925.068-.217.149-.43.229-.642a.75.75,0,0,1,.113-.213A2.455,2.455,0,0,1,49.267,34.638Zm-.12,1.038a.568.568,0,0,0-.558.233c-.127.142-.281.261-.4.408-.177.216-.376.433-.166.747.044.065.018.176.029.265a.594.594,0,0,0,.049.258c.274.368.528.736,1.084.739a1.433,1.433,0,0,0,1.483-.911.4.4,0,0,0,.016-.263,8.085,8.085,0,0,0-.283-.786A1.2,1.2,0,0,0,49.147,35.676Z"/>
    <path d="M113.573,40.055c-.171-.008-.343-.014-.514-.025a.552.552,0,0,1-.519-.48,16.89,16.89,0,0,1-.107-3.326.683.683,0,0,1,.762-.736,6.482,6.482,0,0,0,.992-.053,2.1,2.1,0,0,1,1.8,1.008.6.6,0,0,0,.077.161,1.851,1.851,0,0,1,.391,1.691,1.545,1.545,0,0,1-.792,1.177c-.221.116-.432.252-.649.377a.485.485,0,0,1-.162.075c-.424.058-.849.11-1.274.164Zm.005-1.469c-.011.258-.074.5.2.482a2.176,2.176,0,0,0,.85-.213,2.2,2.2,0,0,0,.548-.553.51.51,0,0,0,.079-.7,1.06,1.06,0,0,1-.219-.389c-.112-.566-.531-.68-1-.709-.391-.024-.569.218-.421.575a.479.479,0,0,1,.007.366,3.025,3.025,0,0,0-.124.725A1.488,1.488,0,0,0,113.578,38.586Z"/>
    <path d="M53.03,37.487a4.133,4.133,0,0,1,.118.519,2.5,2.5,0,0,1,.014.716.631.631,0,0,1-.809.485.4.4,0,0,1-.333-.44c0-.352.027-.7.029-1.055a.954.954,0,0,0-.062-.346.952.952,0,0,1,0-.606,1.614,1.614,0,0,0,0-.842,1.262,1.262,0,0,1-.009-.816.546.546,0,0,1,.692-.324,1.029,1.029,0,0,1,.774.647,2.807,2.807,0,0,0,.347.518c.169.256.324.521.5.771a4.031,4.031,0,0,0,.456.544.279.279,0,0,0,.27.019c.058-.039.062-.169.072-.262.005-.044-.031-.092-.049-.138-.113-.284-.3-.559-.087-.88.025-.039-.026-.129-.044-.2a.607.607,0,0,1,.093-.649.75.75,0,0,1,.75-.21.514.514,0,0,1,.291.7,1.446,1.446,0,0,0-.064.5c0,.572.016,1.144,0,1.716a2.942,2.942,0,0,0,.014.827c.075.292-.372.664-.865.49a.57.57,0,0,1-.234-.135,9.029,9.029,0,0,1-.678-.8c-.255-.357-.466-.743-.712-1.106-.066-.1-.2-.228-.284-.215-.158.024-.166.2-.16.346,0,.07,0,.141,0,.211Z"/>
    <path d="M27.231,38.367a.787.787,0,0,0,.078-.244,4.767,4.767,0,0,0-.017-.547c-.012-.206-.108-.454-.026-.608a1.172,1.172,0,0,0,.085-.7c-.025-.321.086-.655-.11-.97a.414.414,0,0,1,.1-.473.953.953,0,0,1,1.06-.329c.143.037.3.006.45.03a3.706,3.706,0,0,1,.813.171,1.533,1.533,0,0,1,.8,1.418A1.084,1.084,0,0,1,30,36.8c-.361.327-.345.312-.154.761a2.22,2.22,0,0,0,.517.748.646.646,0,0,1,.029.681.5.5,0,0,1-.56.066c-.379-.155-.54-.5-.739-.809-.112-.175-.184-.376-.279-.562a.391.391,0,0,0-.109-.141,1.637,1.637,0,0,0-.217-.122.785.785,0,0,0-.114.261c-.009.24.013.482.016.724a1.52,1.52,0,0,1-.022.3.5.5,0,0,1-.841.33A.752.752,0,0,1,27.231,38.367Zm1.653-1.885c.162,0,.419-.318.427-.533.006-.174-.109-.279-.309-.281a.541.541,0,0,0-.5.459A.342.342,0,0,0,28.884,36.482Z"/>
    <path d="M44.551,34.584a11.273,11.273,0,0,1,1.391.317,1.064,1.064,0,0,1,.711.9,1.21,1.21,0,0,1-.259.867c-.1.124-.2.253-.3.38a.561.561,0,0,0-.028.689c.194.277.391.553.582.833a.4.4,0,0,1-.3.64.9.9,0,0,1-.9-.625,3.053,3.053,0,0,0-.246-.512c-.1-.158-.236-.291-.451-.186a.507.507,0,0,0-.174.536.527.527,0,0,1-.088.611.563.563,0,0,1-.638.146.517.517,0,0,1-.395-.515,2.274,2.274,0,0,1,.051-.955.907.907,0,0,0-.026-.475,2.507,2.507,0,0,1,.027-1.252c.082-.254.068-.537.133-.8.117-.476.226-.547.717-.547h.182Zm.2,1.544c0,.227.17.445.335.435.269-.016.515-.217.506-.415a.489.489,0,0,0-.394-.479A.432.432,0,0,0,44.752,36.128Z"/>
    <path d="M26.672,36.463c0,.4-.007.806,0,1.209a1.264,1.264,0,0,1-.99,1.292,2.606,2.606,0,0,1-1.234.114,1.732,1.732,0,0,1-.51-.216,1.293,1.293,0,0,1-.4-.261,1.641,1.641,0,0,1-.529-1.377,6.424,6.424,0,0,0,.024-.834c.011-.321.031-.642.04-.963a.51.51,0,0,0-.038-.263.3.3,0,0,1,.05-.36.9.9,0,0,1,.67-.268.75.75,0,0,1,.537.594,3.228,3.228,0,0,1-.009.393c-.023.6-.059,1.2-.063,1.808a.9.9,0,0,0,.143.545.7.7,0,0,0,.507.258,1.3,1.3,0,0,0,.627-.307c.158-.127.039-.308-.022-.471-.046-.123-.1-.3-.049-.393a1.492,1.492,0,0,0,.078-.846,10.453,10.453,0,0,1,.02-1.106.6.6,0,0,1,.622-.465.534.534,0,0,1,.52.557c.006.453,0,.906,0,1.36Z"/>
    <path d="M88.807,38.623a6.263,6.263,0,0,0,.141-.7,1.851,1.851,0,0,0-.058-.886,1.8,1.8,0,0,1,0-.71,3.51,3.51,0,0,0,.067-.379c-.031-.574.306-.73.744-.8a1.479,1.479,0,0,1,.978.082.482.482,0,0,0,.238.02,1.112,1.112,0,0,1,1.008.612,1.234,1.234,0,0,1,.061.833,1.289,1.289,0,0,1-.595.842.4.4,0,0,0-.067.562q.354.552.686,1.118c.09.154-.058.418-.247.468a.681.681,0,0,1-.821-.4c-.142-.284-.3-.564-.463-.833-.148-.239-.363-.3-.454-.144a.853.853,0,0,0-.088.4c0,.188.039.377.039.566a.391.391,0,0,1-.409.394c-.288.009-.783-.367-.732-.711a2.284,2.284,0,0,0,0-.331ZM90.1,36.755c.012.026.051.116.095.2.128.255.262.313.46.118a2.162,2.162,0,0,0,.338-.608c.014-.027-.028-.114-.06-.125-.184-.064-.39-.187-.554-.148C90.2,36.24,90.087,36.458,90.1,36.755Z"/>
    <path d="M35.364,38.56c.081-.164.164-.328.245-.492a6.092,6.092,0,0,0,.673-1.419,1.251,1.251,0,0,1,.16-.352c.24-.424.489-.843.729-1.268a.789.789,0,0,1,1.424.24c.072.337.354.6.316.984-.011.108.152.226.213.35.2.412.391.831.593,1.244.107.216.231.423.348.633.087.156.217.3.057.492a.564.564,0,0,1-.646.2,1.012,1.012,0,0,1-.5-.408,2.354,2.354,0,0,0-.534-.643,1.2,1.2,0,0,0-.579-.167c-.166-.021-.344.05-.509.029-.384-.05-.646.171-.81.573-.176.436-.321.547-.731.532C35.495,39.072,35.4,38.953,35.364,38.56Zm2.479-1.571a.272.272,0,0,0,.316-.274.3.3,0,0,0-.284-.285c-.142,0-.34.149-.339.26A.3.3,0,0,0,37.843,36.989Z"/>
    <path d="M81.418,39.114c.013.369-.122.579-.377.546a.832.832,0,0,1-.693-.471c-.059-.125-.136-.242-.2-.363a.821.821,0,0,0-.981-.453,1.227,1.227,0,0,1-.27.029.912.912,0,0,0-.91.648.865.865,0,0,1-.22.312c-.245.22-.4.245-.56.122a.633.633,0,0,1-.178-.761,2.919,2.919,0,0,0,.367-.779,4.117,4.117,0,0,1,.866-1.581.636.636,0,0,0,.068-.224,2.064,2.064,0,0,1,.541-.954.648.648,0,0,1,.9.092,7.716,7.716,0,0,1,.76,1.428,2.254,2.254,0,0,0,.363.825c.11.126.092.357.151.534.046.14.127.267.184.4.087.2.166.413.249.62Zm-1.725-1.871c0-.178-.227-.459-.368-.46-.122,0-.336.242-.336.381s.309.43.462.4A.277.277,0,0,0,79.693,37.243Z"/>
    <path d="M59.806,36.3a.684.684,0,0,0,.155.569,9,9,0,0,1,.442.978c.106.223.26.423.358.648a3.229,3.229,0,0,1,.211.7c.011.06-.112.2-.189.213a.687.687,0,0,1-.673-.173,3.067,3.067,0,0,1-.421-.547.791.791,0,0,0-.774-.462,1.994,1.994,0,0,1-.552-.1.621.621,0,0,0-.78.335c-.125.217-.241.441-.383.647a.422.422,0,0,1-.573.169.519.519,0,0,1-.252-.691c.1-.2.222-.38.318-.577.421-.861.83-1.727,1.258-2.583a1.987,1.987,0,0,1,.366-.478.553.553,0,0,1,.894.12c.172.292.347.582.5.883A1.46,1.46,0,0,1,59.806,36.3Zm-1.359.63c0,.22.037.267.22.271.221.005.343-.119.344-.357,0-.155-.017-.315-.22-.325A.379.379,0,0,0,58.447,36.931Z"/>
    <path d="M103.535,35.208c.466.007.558.386.684.669a4.581,4.581,0,0,0,.367.813c.125.18.126.448.254.624a5.4,5.4,0,0,1,.48,1.1c.1.215.239.408.355.615a.463.463,0,0,1-.127.664.36.36,0,0,1-.564.005,4.2,4.2,0,0,1-.635-.749.888.888,0,0,0-.944-.375,3.643,3.643,0,0,1-.513.027.517.517,0,0,0-.57.573c0,.258-.176.445-.532.572a.427.427,0,0,1-.5-.18c-.17-.2-.151-.384-.011-.66.279-.553.539-1.114.8-1.674a3.3,3.3,0,0,0,.4-.923c.055-.457.377-.661.654-.918A1.411,1.411,0,0,1,103.535,35.208Zm-.144,2.453a.421.421,0,0,0,.469-.344.283.283,0,0,0-.277-.292c-.175,0-.392.193-.36.365A.786.786,0,0,0,103.391,37.661Z"/>
    <path d="M67.652,35.011c.272,0,.545-.016.815.006a.987.987,0,0,1,.422.137.352.352,0,0,1-.046.629,3.27,3.27,0,0,1-.665.136c-.223.034-.452-.058-.672.094-.156.107-.292.253-.238.4a.62.62,0,0,0,.385.286,3.456,3.456,0,0,0,.542.019,2.5,2.5,0,0,1,.615.13.465.465,0,0,1,.273.275.445.445,0,0,1-.23.459,1.125,1.125,0,0,1-.9.119.534.534,0,0,0-.7.463c-.018.192.146.368.42.388a7.656,7.656,0,0,0,.843-.011.523.523,0,0,1,.535.749.4.4,0,0,1-.405.262c-.5,0-1-.03-1.506-.044-.15-.005-.3,0-.453,0a.528.528,0,0,1-.585-.628c.021-.215.09-.426.109-.642s.006-.461.009-.692a2.672,2.672,0,0,0,0-.692,2.843,2.843,0,0,1,0-1.162c.059-.42.217-.668.649-.684.131-.005.263,0,.394,0h.394Z"/>
    <path d="M109.131,37.681c0-.484.008-.967,0-1.45a.675.675,0,0,1,.355-.645,1.138,1.138,0,0,1,.7-.209c.516.05,1.033.088,1.549.127.146.011.207.091.239.226.1.432-.063.66-.511.673-.292.008-.584,0-.876,0-.065,0-.178.014-.186.044a1.972,1.972,0,0,0-.124.624c.011.184.218.209.377.2.289-.014.578-.05.867-.075a.385.385,0,0,1,.454.26.575.575,0,0,1-.155.633.946.946,0,0,1-.86.088.877.877,0,0,0-.372-.038.527.527,0,0,0-.379.46.612.612,0,0,0,.475.412,2.862,2.862,0,0,0,.481,0,.784.784,0,0,1,.753.352.344.344,0,0,1-.285.575c-.6.019-1.194.016-1.791-.014a.777.777,0,0,1-.736-.822c.018-.473,0-.946,0-1.419Z"/>
    <path d="M34.045,37.26a.77.77,0,0,1-.139,0c-.48-.1-.633.3-.643.664-.006.2.042.4.052.6.021.414-.165.611-.564.612-.422,0-.63-.194-.619-.6.009-.32.066-.642.044-.959a1.84,1.84,0,0,0-.2-.715A1.167,1.167,0,0,1,31.9,36.1a9.824,9.824,0,0,1,.23-.981.632.632,0,0,1,.615-.481,2.886,2.886,0,0,1,.464-.1,2.632,2.632,0,0,1,1.738.557,2.2,2.2,0,0,1,.492.844c.116.325-.1.6-.307.835A1.153,1.153,0,0,1,34.045,37.26Zm-.287-.795a.659.659,0,0,0,.6-.3c.026-.038.061-.11.046-.127-.15-.171-.282-.394-.475-.481a.539.539,0,0,0-.586.208.277.277,0,0,0-.029.353C33.413,36.32,33.507,36.505,33.758,36.465Z"/>
    <path d="M93.987,39.7c-.261,0-.522.006-.783,0a.54.54,0,0,1-.576-.639.469.469,0,0,0,0-.179,7.175,7.175,0,0,1-.122-2.24c-.012-.22.01-.443-.012-.661a.72.72,0,0,1,.7-.718c.463-.015.928-.012,1.391.011a.692.692,0,0,1,.66.393.331.331,0,0,1-.151.5,1.4,1.4,0,0,1-1,.084c-.259-.043-.455.01-.52.2a.534.534,0,0,0,.292.556.926.926,0,0,0,.465-.01.6.6,0,0,1,.805.494.407.407,0,0,1-.384.5c-.221.01-.443-.015-.664-.027a.468.468,0,0,0-.519.27.492.492,0,0,0,.146.591.458.458,0,0,0,.536.031.989.989,0,0,1,.828.125.443.443,0,0,1,.2.361.388.388,0,0,1-.389.357c-.3.008-.6,0-.908,0Z"/>
    <path d="M73.776,39.61a1.578,1.578,0,0,1-1.213-.636c-.173-.19-.16-.369.028-.618a.5.5,0,0,1,.564-.14,3.855,3.855,0,0,1,.481.339.53.53,0,0,0,.763-.167.375.375,0,0,0-.064-.3,1.58,1.58,0,0,0-1.012-.588c-.059-.012-.143,0-.174-.037-.275-.322-.643-.6-.693-1.053a1,1,0,0,1,.584-1.088,3.876,3.876,0,0,1,.544-.306,1.65,1.65,0,0,1,1.5.319c.194.138.159.546-.044.793a.448.448,0,0,1-.621.056,2.13,2.13,0,0,0-.323-.207.4.4,0,0,0-.486.158.364.364,0,0,0,.226.461c.323.129.658.232.97.383a1.188,1.188,0,0,1,.6.828C75.677,38.86,74.845,39.572,73.776,39.61Z"/>
    <path d="M97.955,38.95c.273-.057.546-.117.82-.171a.422.422,0,0,1,.482.265.427.427,0,0,1-.145.511,1.583,1.583,0,0,1-1.531.3c-.273-.092-.56-.144-.826-.25a1.821,1.821,0,0,1-1.06-1.18,4.572,4.572,0,0,1-.157-1.245,1.429,1.429,0,0,1,.389-.988,2.61,2.61,0,0,1,1.774-.957,3.375,3.375,0,0,1,1.2.06c.325.075.373.145.368.477,0,.07,0,.141,0,.212-.011.309-.2.477-.5.381a4.178,4.178,0,0,0-1.409-.065.614.614,0,0,0-.391.271,5.413,5.413,0,0,0-.354.691.387.387,0,0,0-.025.055,1.839,1.839,0,0,0,.428,1.273A1.3,1.3,0,0,0,97.955,38.95Z"/>
    <path d="M86.4,35.119a6.124,6.124,0,0,1,1.133.158,2.261,2.261,0,0,1,.825.522.963.963,0,0,1,.123.975,2.18,2.18,0,0,1-.41.719.886.886,0,0,1-.81.375c-.542-.047-.832.06-.814.833,0,.118.051.236.048.353a.735.735,0,0,1-.071.361.656.656,0,0,1-.69.179.473.473,0,0,1-.316-.492c-.017-.288-.07-.574-.1-.861a.5.5,0,0,1,0-.267,1.8,1.8,0,0,0,.1-.978,4.454,4.454,0,0,1,.123-1.459.652.652,0,0,1,.555-.394c.1-.01.2,0,.3,0Zm1.1,1.39c.006-.255-.108-.348-.438-.357-.35-.009-.614.152-.621.38s.372.554.633.548C87.283,37.075,87.494,36.792,87.5,36.509Z"/>
    <path d="M81.917,38.373c-.051-.385-.126-.769-.149-1.156a9.042,9.042,0,0,1,0-1.327.886.886,0,0,1,.9-.752c.282,0,.566-.022.847,0A1.533,1.533,0,0,1,84.917,36a.4.4,0,0,1,.059.2,8.1,8.1,0,0,1-.153,1.058c-.062.252-.351.264-.552.361a2.222,2.222,0,0,1-1.153.256c-.194-.015-.281.135-.265.326.028.329.058.658.094.987a.315.315,0,0,1-.256.379c-.5.153-.821-.071-.823-.583v-.605Zm1.515-1.42c.029,0,.149.024.2-.023a1.521,1.521,0,0,0,.4-.466c.024-.052-.2-.236-.322-.333a.74.74,0,0,0-.387-.2c-.279.007-.469.329-.441.671C82.905,36.872,83.015,36.95,83.432,36.953Z"/>
    <path d="M14.285,34.4c.563-.012.759.371.99.711.144.213.28.432.442.63.143.174.255.152.369-.042a.908.908,0,0,0,.126-.235,1.842,1.842,0,0,1,.719-.941.51.51,0,0,1,.733-.033.573.573,0,0,1-.028.783,1.389,1.389,0,0,0-.416.657,1.594,1.594,0,0,1-.607.872c-.247.161-.231.273-.162.569a1.83,1.83,0,0,1-.063,1.316.8.8,0,0,1-.748.331.543.543,0,0,1-.314-.677,2.2,2.2,0,0,0-.468-1.939,1.734,1.734,0,0,1-.191-.371,1.307,1.307,0,0,0-.475-.6.781.781,0,0,1-.318-.758A.342.342,0,0,1,14.285,34.4Z"/>
    <path d="M40.683,34.647c.251,0,.5.009.753,0a3.684,3.684,0,0,0,.592-.073,1.622,1.622,0,0,1,.983.234.432.432,0,0,1-.173.745c-.047.019-.095.032-.141.053-.523.23-.6.4-.472.968a8.294,8.294,0,0,1,.121.891.38.38,0,0,1-.042.2.607.607,0,0,0-.022.65c.117.2-.048.579-.273.742a.454.454,0,0,1-.675-.01.433.433,0,0,1-.142-.217,1.387,1.387,0,0,1-.032-1,.446.446,0,0,0-.007-.325,1.868,1.868,0,0,1-.016-1.289c.066-.208-.19-.5-.462-.565a8.055,8.055,0,0,1-.765-.253.267.267,0,0,1-.165-.348.485.485,0,0,1,.243-.268,5.613,5.613,0,0,1,.684-.188Z"/>
    <path d="M106.709,38.681a2.016,2.016,0,0,1-.119-.418.955.955,0,0,1,.054-.515,1.238,1.238,0,0,0,.021-1.072c-.077-.245-.333-.327-.575-.382a1.447,1.447,0,0,1-.316-.087c-.26-.128-.311-.261-.217-.507.082-.217.326-.388.521-.3a.985.985,0,0,0,.779-.006,1.834,1.834,0,0,1,.571-.022c.282,0,.565-.008.847,0a.672.672,0,0,1,.6.378.352.352,0,0,1-.181.5,2.961,2.961,0,0,1-.547.145c-.267.044-.323.086-.329.364a4.5,4.5,0,0,1-.018.959c-.126.493.1.962.022,1.443-.013.078,0,.161,0,.241a.488.488,0,0,1-.4.5.466.466,0,0,1-.554-.31c-.1-.288-.165-.592-.245-.889Z"/>
    <path d="M99.734,38.984c-.025-.1-.067-.259-.1-.42a.964.964,0,0,1-.04-.236c0-.6-.018-1.207.033-1.806a4.042,4.042,0,0,1,.285-1.05.458.458,0,0,1,.51-.247.549.549,0,0,1,.306.28,1.626,1.626,0,0,1,.125.456c.039.2.071.392.1.589.014.1.05.221.008.294a1.273,1.273,0,0,0-.095.766,8.228,8.228,0,0,1-.2,1.931c-.065.4-.374.474-.681.2A.683.683,0,0,1,99.734,38.984Z"/>
    <path d="M70.709,38.306c.04-.2.075-.368.106-.534a.319.319,0,0,0,.01-.146,6.448,6.448,0,0,1-.067-1.738,1.386,1.386,0,0,1,.138-.547.373.373,0,0,1,.4-.211c.163.008.348-.064.446.15a2.18,2.18,0,0,1,.266,1.082.6.6,0,0,1-.052.229.622.622,0,0,0,.032.677c.124.183.18.341.008.54-.206.238-.1.538-.1.814,0,.209.019.42,0,.627-.024.243-.143.325-.391.315a.638.638,0,0,1-.635-.589C70.836,38.742,70.761,38.515,70.709,38.306Z"/>
    <path d="M52.122,11.225c-.074.032-.165.107-.219.086a1.1,1.1,0,0,1-.261-.2c.073-.05.155-.152.216-.14a.906.906,0,0,1,.278.174Z"/>
    <path d="M95.134,10.926l-.235.23c-.061-.065-.155-.123-.172-.2a.226.226,0,0,1,.138-.178C94.936,10.775,95.013,10.855,95.134,10.926Z"/>
    <path d="M105.512,13.648l-.2-.245c.065-.035.137-.105.193-.094s.122.1.182.15Z"/>
    <path d="M94.351,13.266a1.7,1.7,0,0,1-.252.161c-.021.008-.072-.061-.11-.094a.738.738,0,0,1,.166-.143C94.186,13.175,94.247,13.223,94.351,13.266Z"/>
    <path d="M36.3,31.857l-.077-.047c.015-.02.028-.053.046-.056s.049.018.073.028Z"/>
    <path d="M120.411,2.268a.218.218,0,0,1-.026-.036s.011-.02.014-.02a.339.339,0,0,1,.039.018Z"/>
    <path d="M51.779,31.841l-.035.037a.292.292,0,0,1-.023-.047s.015-.021.016-.02A.4.4,0,0,1,51.779,31.841Z"/>
    <path d="M84.688,34.245c-.007,0-.019,0-.021-.011a.016.016,0,0,1,.031-.011C84.7,34.229,84.692,34.238,84.688,34.245Z"/>
  </g>
</svg>
