<svg xmlns="http://www.w3.org/2000/svg" width="69.859" height="9.544" viewBox="0 0 69.859 9.544">
  <style> path { fill: #103cb7; } @media (prefers-color-scheme: dark) { path { fill: #fd5151; } }</style>
  <g>
    <path d="M18.911.222c-.367.011-.732.1-1.1.1-.391,0-.781-.075-1.172-.1A1.239,1.239,0,0,0,16.1.244a.7.7,0,0,1-.581.075c-.147-.055-.352.044-.531.077a.129.129,0,0,0-.061.032c-.2.192-.388.343-.533-.051-.01-.028-.081-.048-.123-.047-.369.013-.74.009-1.106.053A3.181,3.181,0,0,1,11.605.2a.561.561,0,0,0-.391-.033,2.028,2.028,0,0,1-.961.105,1,1,0,0,0-1.081,1c0,.163,0,.326,0,.513a1.822,1.822,0,0,0,.051.32.4.4,0,0,1-.157.481,3.486,3.486,0,0,0-.715,1.18c-.226.483-.373.614-.869.623a.39.39,0,0,1-.4-.223,1.687,1.687,0,0,1-.127-.393,3.893,3.893,0,0,1,.422-1.864c.242-.17.169-.4.13-.632-.025-.15.063-.189.213-.157.17.035.2-.1.163-.214A1.344,1.344,0,0,0,7.2.2,1.107,1.107,0,0,0,6.089.115a1.991,1.991,0,0,1-.812.16c-.651.019-1.3.058-1.953.082a6.225,6.225,0,0,0-.761.006,2.515,2.515,0,0,1-1.3-.07.682.682,0,0,0-.407.04A3.709,3.709,0,0,0,.225.61.467.467,0,0,0,.013.864a.776.776,0,0,0,.378.765.218.218,0,0,0,.191-.012.2.2,0,0,0,.039-.172C.6,1.358.5,1.27.515,1.2A.48.48,0,0,1,.7.946C.789.885.9,1,.9,1.151c0,.254-.017.509-.026.763-.005.145.006.294.169.345.2.062.167.142.085.3a.439.439,0,0,0-.017.384.426.426,0,0,1-.025.684c-.117.12-.089.4-.1.605a5.416,5.416,0,0,0,.019.9,2.618,2.618,0,0,1,.058,1.281c-.053.155.329.371-.043.531-.015.006.014.124.027.189.031.157.132.336.088.465A6,6,0,0,0,1.1,8.973.274.274,0,0,0,1.3,9.3a2.066,2.066,0,0,0,.474.1c.2.021.3-.077.3-.288,0-.092-.019-.186-.017-.278.008-.323.017-.3.38-.415a1.068,1.068,0,0,0,.59-.315c.143-.237.465-.428.331-.8-.07-.194.084-.313.223-.389A3,3,0,0,1,4.1,6.726c.535-.169.8.007.841.557a1.739,1.739,0,0,1-.01.346c-.035.3-.083.592-.117.888a.654.654,0,0,0,.75.765.506.506,0,0,0,.415-.217c.154-.229.327-.445.492-.666-.111-.4.362-.358.453-.606.032-.086.114-.166.114-.249,0-.213.133-.322.264-.461a3.535,3.535,0,0,0,.387-.576c.134-.214.25-.44.39-.651.15-.228.145-.257-.119-.408a1.87,1.87,0,0,1-.242-.2c.087-.074.163-.179.264-.213a.734.734,0,0,1,.4-.023.435.435,0,0,0,.53-.221,2.155,2.155,0,0,0,.237-.427,1.916,1.916,0,0,1,.721-.975,6.087,6.087,0,0,0,.908-.946.711.711,0,0,0,.131-.244c.056-.165.194-.357-.109-.441a.244.244,0,0,1,.008-.173c.11-.158.243-.3.463-.192a.9.9,0,0,0,.748.014.991.991,0,0,1,.852.172.374.374,0,0,1,.188.264c.015.448.2.922-.167,1.326a.405.405,0,0,0-.105.254,3.5,3.5,0,0,1-.408,1.465.374.374,0,0,0,.026.389c.1.15-.013.205-.149.2-.306-.012-.417.193-.44.436a1.726,1.726,0,0,1-.2.727,3.918,3.918,0,0,1-1.236,1.481.616.616,0,0,0-.236.245.694.694,0,0,0,.623.944c.522-.066,1.073.168,1.57-.146.5.057.987-.291,1.5-.03a.491.491,0,0,0,.336-.041.546.546,0,0,1,.693.13.212.212,0,0,0,.186.062,2.462,2.462,0,0,1,1.232-.118.178.178,0,0,0,.123-.059c.129-.151.315-.169.481-.243a2.619,2.619,0,0,0,.67-.477.471.471,0,0,0,.081-.581c-.015-.034.052-.11.089-.161a.807.807,0,0,0-.34-1.293,2.614,2.614,0,0,1-.574-.228,1.133,1.133,0,0,1-.383-.477c-.041-.1.1-.27.134-.414.064-.28.376-.489.24-.829-.009-.023.041-.088.078-.108.211-.113.232-.312.293-.519.176-.6.523-.781,1.169-.678.452.072.572,0,.724-.436.075-.217.065-.473.306-.6.345-.187.3-.549.378-.854C19.493,1,19.6.593,19.345.388A.734.734,0,0,0,18.911.222ZM1.463,1.035,1.372.975a.5.5,0,0,1,.095-.06c.014-.006.038.015.058.024Zm.348,3.809.011-.1.023.053Zm.2.741-.05-.026.055-.014ZM2.087,6.7,2.056,6.68l.035-.014ZM4.114,4.345a.272.272,0,0,1-.182.09.676.676,0,0,1-.646-.677c.013-.114.07-.223.084-.337.018-.137.069-.315.006-.408-.432-.633.173-.958.393-1.395a.14.14,0,0,1,.12-.057,3.012,3.012,0,0,1,.639.243c.094.057.13.231.164.359.053.2.082.409.119.6A2.756,2.756,0,0,1,4.114,4.345ZM5,6.3l-.036-.067c.018,0,.039-.012.053-.006s.017.028.025.043Zm-.06-.853c-.037-.053-.116-.122-.1-.154a1.534,1.534,0,0,1,.179-.274l.2.224Zm.63-4.011L5.6,1.362l.015.06ZM6.66,7.11a1.476,1.476,0,0,1-.381.146c-.044.007-.132-.1-.155-.173-.017-.05.029-.133.066-.187.087-.126.019-.344.228-.395.114-.028.284.261.295.5C6.7,7.036,6.689,7.1,6.66,7.11Zm5.794-.339,0-.1.035.052Zm.407,1.435c-.021-.035-.056-.07-.057-.1s.034-.071.052-.107c.021.035.056.069.057.1S12.879,8.17,12.861,8.206Zm.328-.808-.067-.231c.037,0,.1-.021.108,0a.992.992,0,0,1,.09.171ZM16.743.8l0,.043L16.7.819ZM14.926,4.989A.786.786,0,0,1,15,5.15a1.739,1.739,0,0,1,0,.278,1.955,1.955,0,0,1-.084-.268A.764.764,0,0,1,14.926,4.989Zm-1.35-2.9c.007-.023.085-.049.113-.036a.784.784,0,0,1,.154.121c-.053.03-.088.068-.121.067C13.632,2.232,13.54,2.207,13.576,2.085ZM14.9,8.311a.361.361,0,0,1-.131-.1c-.009-.013.037-.067.058-.1l.155.1C14.943,8.252,14.9,8.315,14.9,8.311ZM16.08,7.178a2.721,2.721,0,0,0-.314.367A.632.632,0,0,1,15,7.824a1.383,1.383,0,0,1-1.2-.591.951.951,0,0,1-.139-.724.245.245,0,0,1,.117-.157,1.931,1.931,0,0,0,.688-.668.22.22,0,0,1,.172-.046c.21.334.69.389.823.8a.269.269,0,0,0,.192.156c.171,0,.119-.151.141-.257A.8.8,0,0,1,15.9,6.1a.15.15,0,0,1,.118-.052.125.125,0,0,1,.095.072c.035.205.047.414.091.617A.465.465,0,0,1,16.08,7.178Zm1.409-4.393c-.051.112-.177.186-.281.087-.283-.267-.541-.17-.813.008-.211.14-.434.264-.646.4-.146.095-.295.158-.446.037a.428.428,0,0,1-.186-.482,3.692,3.692,0,0,0,.087-.4.451.451,0,0,1,.325-.407.423.423,0,0,0,.351-.379c.021-.205.083-.232.248-.119s.3-.014.456-.053a.83.83,0,0,1,1.048.891A3.606,3.606,0,0,1,17.489,2.785Zm.86-.266s-.007-.024-.011-.037l.076.023A.228.228,0,0,1,18.349,2.519Z"/>
    <path d="M42.982,6.522a1.355,1.355,0,0,1-.62.631.4.4,0,0,0-.194.191c-.142.4-.557.554-.79.871a.228.228,0,0,1-.306.066,11.336,11.336,0,0,1-1.206-.508.963.963,0,0,1-.349-.5c-.03-.081.116-.225.175-.344a1.017,1.017,0,0,0,.163-.379c0-.472.477-.718.528-1.16a1.285,1.285,0,0,0,.577-1.117,3.469,3.469,0,0,0,.346-1.542.745.745,0,0,1,.369-.625c.159-.091.331-.17.373-.376a4.878,4.878,0,0,0,.66-.184.556.556,0,0,0,.275-.76,2.594,2.594,0,0,0-.158-.311c-.1-.17-.206-.207-.4-.074-.141.1-.2.078-.35,0A3.238,3.238,0,0,0,39.8.091a1.2,1.2,0,0,0-.809.693.569.569,0,0,0,.05.6c.111.173.186.369.3.54a.735.735,0,0,1-.087.954,3.577,3.577,0,0,0-.606,1.31,8.636,8.636,0,0,0-.395,1.091,2.841,2.841,0,0,0-.594,1.53c-.023.107-.058.252-.135.3a4.937,4.937,0,0,1-.631.276c-.051-.143-.1-.286-.155-.429-.041-.108-.085-.216-.132-.322a.452.452,0,0,0-.729-.2,1.057,1.057,0,0,0-.265.318,1.325,1.325,0,0,1-.961.73c-.222.04-.248.161-.15.355a.24.24,0,0,1-.08.22.229.229,0,0,1-.223-.045.335.335,0,0,0-.436-.1.716.716,0,0,1-.722-.118c-.172-.11-.324-.28-.564-.147-.009,0-.112-.093-.106-.133a.639.639,0,0,0-.042-.469c-.113-.182,0-.275.157-.38.285-.185.327-.324.179-.614-.065-.128-.079-.132.062-.156a.289.289,0,0,0,.2-.147,18.094,18.094,0,0,1,.812-1.914,1.834,1.834,0,0,0,.154-.595,2.665,2.665,0,0,1,.636-1.728c.076-.076.082-.218.151-.306a.319.319,0,0,1,.221-.1c.089,0,.177.059.268.069a.383.383,0,0,0,.418-.287.3.3,0,0,0-.14-.359,1.166,1.166,0,0,1-.275-.209c-.18-.252-.4-.239-.679-.209-.323.036-.666.227-.989-.062C33.449,0,33.249.1,33.127.148c-.253.11-.487.315-.783.227-.36-.106-.565.1-.789.315-.159.148-.227.322-.084.49.353.415.219.88.16,1.333-.029.228-.132.445-.176.672-.075.385-.145.773-.184,1.163-.012.119.12.248.122.374,0,.206-.246.028-.311.166a1.977,1.977,0,0,0-.1.181c-.091.261-.182.523-.258.789a4.518,4.518,0,0,0-.341,1.2.452.452,0,0,1-.155.288,1.4,1.4,0,0,1-1.369.19.315.315,0,0,1-.17-.115,1.6,1.6,0,0,1-.412-1.413,1.008,1.008,0,0,0,.007-.47,3.945,3.945,0,0,1-.08-1.419A18.671,18.671,0,0,0,28.169,1.2.749.749,0,0,0,27.6.415c-.613-.2-.825-.128-1.1.438a6.888,6.888,0,0,1-.558.959c-.159.224-.408.388-.323.722.011.042-.056.117-.1.159a5.3,5.3,0,0,1-.633.541.512.512,0,0,0-.2.717.8.8,0,0,0-.242.112c-.1.092-.152.285-.252.306-.273.057-.367.261-.48.458q-.227.392-.433.793a1.131,1.131,0,0,0-.174.444c0,.233.269.116.375.227.029.029.064.094.052.114-.028.045-.1.111-.128.1a.6.6,0,0,0-.8.233A3.742,3.742,0,0,1,21,8.106a2.391,2.391,0,0,0-.243.135c-.326.218-.3.517.064.681a5.191,5.191,0,0,1,.59.206,2.236,2.236,0,0,0,1.292.161,1.209,1.209,0,0,0,.593-.324c.166-.13.092-.328.086-.516a1.749,1.749,0,0,1,.144-.669c.151-.389.33-.767.509-1.144a1.3,1.3,0,0,1,1.2-.68,5.4,5.4,0,0,1,.567.231.331.331,0,0,1,.276.338A1.843,1.843,0,0,1,25.5,8.1c-.137.131-.33.262-.225.459a4.011,4.011,0,0,0,.561.785.456.456,0,0,0,.382.075,7.047,7.047,0,0,1,2.557-.069.722.722,0,0,0,.391-.071.523.523,0,0,1,.527,0,1.026,1.026,0,0,0,.81.078,2.033,2.033,0,0,1,.554-.05c.557-.016,1.115-.032,1.672-.035a.967.967,0,0,0,.821-.28c.1-.118.154-.038.2.048a.339.339,0,0,0,.351.166,1.476,1.476,0,0,1,.41.026,1.39,1.39,0,0,0,.89.006c.088-.035.216.026.326.043a.949.949,0,0,0,.334.045,2.445,2.445,0,0,1,.968.038.7.7,0,0,0,.336,0,1.085,1.085,0,0,1,.752.016,1.507,1.507,0,0,0,.821,0,2.086,2.086,0,0,1,1.458.048c.16.081.313-.024.469-.038.457-.043.919-.038,1.379-.052.357.275.6.079.819-.2a3.31,3.31,0,0,0,.347-.514c.175-.35.3-.725.443-1.086a1.027,1.027,0,0,0-.19-1.039A.386.386,0,0,0,42.982,6.522Zm-.991-4.975a.837.837,0,0,1,.043.158c-.04-.038-.082-.075-.12-.116-.011-.012-.009-.037-.013-.056C41.932,1.537,41.985,1.532,41.991,1.547ZM40.247,1.06l0,.044-.052-.026Zm-.1.819.09.156c-.036.02-.093.067-.106.057a.714.714,0,0,1-.116-.139ZM39.669,5.8a.374.374,0,0,1,.088,0l-.014.053-.1-.01C39.653,5.826,39.658,5.8,39.669,5.8ZM32.5.716l.047.1a.162.162,0,0,1-.059.019c-.019,0-.035-.023-.051-.035ZM22.98,8.792c-.06-.045-.113-.1-.169-.15.04-.014.085-.047.116-.036a.66.66,0,0,1,.147.1C23.032,8.745,22.986,8.8,22.98,8.792Zm1.19-3.34a.16.16,0,0,1-.059.014l.006-.081.057.021C24.173,5.422,24.178,5.447,24.17,5.452Zm3.047-1.046a1.281,1.281,0,0,1-.679.016,4.041,4.041,0,0,0-.691-.044.29.29,0,0,1-.248-.446,1.126,1.126,0,0,1,.314-.359.957.957,0,0,0,.375-.566.867.867,0,0,0,.031-.2c0-.128-.312-.246-.019-.381.26-.121.525-.21.754.072a2.5,2.5,0,0,1,.534,1.29C27.583,4.32,27.581,4.314,27.217,4.406ZM30.362,8.85l-.088-.164.049-.053a1.522,1.522,0,0,1,.062.158C30.39,8.807,30.371,8.83,30.362,8.85ZM31.591,7.9c-.037.018-.1.05-.116.035a3.918,3.918,0,0,1-.409-.362c-.027-.028,0-.122.025-.178a.126.126,0,0,1,.116-.011c.147.141.285.29.414.424C31.6,7.864,31.6,7.9,31.591,7.9Zm.175-2.76-.024-.057h.046Zm.205-3.023a.731.731,0,0,1,.153-.077l.025.126-.163.054C31.98,2.187,31.957,2.13,31.971,2.12ZM32,4.235c0-.028.057-.054.087-.082l.061.1c-.04.082-.08.163-.119.245A1.768,1.768,0,0,1,32,4.235Zm.169,1.324c-.043-.048-.113-.091-.12-.144s.063-.1.116-.169c.053.071.12.122.116.166S32.21,5.51,32.17,5.559Zm4.014,3.129c-.048-.1-.11-.182-.095-.2a.535.535,0,0,1,.2-.131c.014-.005.106.117.093.138A1.114,1.114,0,0,1,36.184,8.688ZM38.537,5.68c-.02-.032-.042-.063-.059-.1,0,0,.038-.036.049-.032a.58.58,0,0,1,.093.059ZM38.9,6.686a.229.229,0,0,1-.04-.173c.005-.025.12-.061.139-.043.04.037.049.107.081.189C39.006,6.673,38.922,6.707,38.9,6.686Zm4.234.958L43.107,7.6a.8.8,0,0,1,.079-.062l.032.049Z"/>
    <path d="M69.776.864a1.93,1.93,0,0,0-.412-.617A.573.573,0,0,0,68.9.189a8.859,8.859,0,0,1-2.011.1A12.182,12.182,0,0,1,65.375.263a5.727,5.727,0,0,0-2.129.189.821.821,0,0,1-.792-.106,1.022,1.022,0,0,0-.651-.2A1.737,1.737,0,0,1,61.335.05,4.013,4.013,0,0,0,59.24.306a.287.287,0,0,0-.057.039c-.24.252-.486.5-.715.76a.222.222,0,0,0,.034.362.838.838,0,0,1,.343.858c0,.162-.083.355-.021.482.2.408-.031.66-.269.92s-.505.48-.484.884a.483.483,0,0,1-.171.295,1.193,1.193,0,0,0-.338.744A4.135,4.135,0,0,1,56.746,7.7a.324.324,0,0,0,0,.436.114.114,0,0,1-.028.11.129.129,0,0,1-.123-.005,2.1,2.1,0,0,0-.2-.275c-.059-.05-.2-.089-.246-.055-.5.343-.6.52-.263,1.014a.791.791,0,0,0,.8.338,2.93,2.93,0,0,0,.61-.146,2.023,2.023,0,0,1,1.3.011,4.19,4.19,0,0,0,1.374.152h0a1.355,1.355,0,0,0,1.046.188,2.689,2.689,0,0,1,.9-.03,9.04,9.04,0,0,0,2.638.012c.507-.056,1.016-.161,1.515-.169a2.557,2.557,0,0,0,1.407-.517,1.216,1.216,0,0,0,.457-.6c.107-.256.206-.515.319-.768a.894.894,0,0,0,.082-.675c-.1-.288-.287-.362-.591-.27a1.279,1.279,0,0,0-.572.378,3.015,3.015,0,0,1-.478.392c-.3.214-.612.422-.926.621a.516.516,0,0,1-.315.107c-.41-.071-.817-.16-1.22-.264a.373.373,0,0,1-.28-.533c.159-.36.322-.719.5-1.07a.483.483,0,0,1,.761-.171.9.9,0,0,1,.366.569.271.271,0,0,0,.43.192,1.33,1.33,0,0,0,.8-1.072A1.846,1.846,0,0,1,67,4.9a14.879,14.879,0,0,1,.857-1.666.239.239,0,0,0-.054-.224,1.177,1.177,0,0,0-1.359.067c-.081.341-.315.158-.493.139a.746.746,0,0,1-.493-.36c-.189-.247-.188-.3.148-.387.309-.081.438-.317.6-.542a.641.641,0,0,1,.854-.267,8.7,8.7,0,0,1,1.215.508,1.83,1.83,0,0,0,1.222.086.225.225,0,0,0,.155-.126A1.713,1.713,0,0,0,69.776.864ZM56.589,8.944l-.075-.064.033-.049a.863.863,0,0,1,.077.071ZM58.6,5.8A.783.783,0,0,1,58.5,5.73l.084-.076a.594.594,0,0,1,.064.1C58.648,5.758,58.609,5.8,58.6,5.8ZM59.339.718c-.011-.013.023-.065.037-.1l.115.042-.044.11C59.41.754,59.363.746,59.339.718Zm.625,8.55a1.1,1.1,0,0,1-.1-.3c0-.069.065-.149.117-.212a.127.127,0,0,1,.122.01c.049.067.131.175.108.22A1.415,1.415,0,0,1,59.964,9.268Zm3.5-6.809a2.045,2.045,0,0,1-.264.852,2.782,2.782,0,0,0-.465,1.507,1.778,1.778,0,0,1-.331.968,1.946,1.946,0,0,0-.211.582c-.071.217-.14.436-.207.655-.033.107-.107.234-.076.321s.175.118.263.183c.03.021.063.084.052.1s-.084.073-.109.062c-.242-.1-.389,0-.6.139a1.492,1.492,0,0,1-1.284.335c-.022-.007-.045-.009-.068-.016-.173-.053-.393.14-.519-.055-.081-.125-.046-.319-.1-.465a1.523,1.523,0,0,1,.1-1.148c.065-.174.156-.338.217-.513.056-.158-.044-.2-.181-.2-.043,0-.087,0-.13,0,.039-.152.045-.341.289-.281.212.053.293-.086.367-.239.1-.207.211-.411.3-.624.153-.366.393-.725.121-1.141-.017-.027.047-.155.075-.155.207,0,.271-.082.27-.3a1.1,1.1,0,0,1,.155-.519,1.854,1.854,0,0,1,1.372-.959C62.994,1.469,63.605,1.741,63.467,2.459Zm.821-1.231a.592.592,0,0,1-.058-.092c0-.009.032-.046.039-.044a.72.72,0,0,1,.1.061Z"/>
    <path d="M56.233,5.321a.674.674,0,0,0,.075-.455,1.856,1.856,0,0,1,.008-1.029.571.571,0,0,0-.005-.272c-.035-.251-.077-.5-.117-.75a.243.243,0,0,0-.216-.236c-.209-.02-.228-.1-.106-.256a.275.275,0,0,0-.05-.377c-.262-.295-.515-.6-.788-.884a2.6,2.6,0,0,0-1.8-.787A2.084,2.084,0,0,1,52.7.156a.515.515,0,0,0-.4-.012c-.168.068-.358.077-.532.135a.932.932,0,0,0-.346.188c-.068.065-.071.165-.157.016A.482.482,0,0,0,50.713.3a2.674,2.674,0,0,0-1.076.247c-.27-.07-.375.1-.462.31a.578.578,0,0,0,.086.645c.228.289.413.611.616.919-.1.083-.242.152-.274.255-.119.377-.2.765-.291,1.149-.166.033-.2.169-.23.305a7.533,7.533,0,0,1-.75,2.091,6.6,6.6,0,0,1-.451.854,7.151,7.151,0,0,1-.952,1.187.5.5,0,0,0-.1.643.9.9,0,0,0,.865.488c.44-.064.874-.053,1.308-.085.453-.034.907-.031,1.359-.056.214-.012.4.029.559-.162.112-.134.257-.058.374.024a.742.742,0,0,0,.663.123,13.108,13.108,0,0,0,2.044-.827,2.107,2.107,0,0,0,.487-.38c.35-.337.672-.7,1.036-1.027a1.388,1.388,0,0,0,.517-1.021A1.2,1.2,0,0,1,56.233,5.321Zm-6.911.266a.138.138,0,0,1-.047-.013c.005-.011.01-.033.016-.033a.172.172,0,0,1,.048.013C49.333,5.566,49.328,5.587,49.322,5.587Zm.217-1.693a.229.229,0,0,1-.124.017c-.035-.013-.062-.053-.092-.083a.273.273,0,0,1,.109-.044.2.2,0,0,1,.111.051C49.552,3.841,49.546,3.892,49.539,3.894Zm.133,1.989a.789.789,0,0,1-.117-.055l.1-.089a.521.521,0,0,1,.059.1C49.718,5.846,49.682,5.886,49.672,5.883ZM53.708.537c.093.121.183.189.175.241s-.1.121-.168.15c-.023.009-.123-.077-.123-.12C53.592.74,53.646.672,53.708.537ZM50.481,5.593c.045,0,.089.071.134.111-.044.042-.084.114-.131.119s-.1-.062-.166-.111C50.386,5.658,50.434,5.592,50.481,5.593Zm-.323-2.966c-.176.043-.226-.077-.269-.206.125,0,.271-.037.3.152A.066.066,0,0,1,50.158,2.627ZM53.843,6.5l.024-.051.017.055Zm.4-1.961a4.244,4.244,0,0,0-.369.957,2.28,2.28,0,0,1-.888,1.3c-.53.37-1.083.711-1.646,1.03a.679.679,0,0,1-.973-.441,3.258,3.258,0,0,1-.046-.518.564.564,0,0,1,.219-.589,1.921,1.921,0,0,0,.614-1.21,8.671,8.671,0,0,0,.177-.869c.018-.366.36-.651.31-1.052,0-.034.108-.077.156-.126.095-.1.224-.189.268-.309A2.342,2.342,0,0,1,53.48,1.458c.248-.116.273-.121.279.139.005.218.065.356.277.417s.27.226.3.424c.045.369.1.735.156,1.1A1.606,1.606,0,0,1,54.245,4.539Zm.459.137c-.01-.018-.029-.037-.028-.054s.022-.034.034-.051l.03.054Zm.108-2.669c.015-.046.087-.074.134-.11.026.052.071.1.071.156a1.267,1.267,0,0,1-.1.294C54.842,2.116,54.8,2.052,54.812,2.007Zm.25.779a1.644,1.644,0,0,1-.2-.149c-.01-.008.024-.065.054-.138l.2.25C55.1,2.762,55.069,2.79,55.062,2.786Z"/>
  </g>
</svg>
