<svg xmlns="http://www.w3.org/2000/svg" width="137.525" height="49.899" viewBox="0 0 137.525 49.899">
  <style> path { fill: #103cb7; } @media (prefers-color-scheme: dark) { path { fill: #fd5151; } }</style>
  <g>
    <path d="M22.035,16.332c5.414-1.916,10.882-4.288,16.288-6.419C59.286,4.4,26.208,1.3,21.029,0c-1.165.374-7.158,7.261-3.187,7.34,1.241-.319,4.971-.99,5.1.406C15.816,12.023,8.477,14.77,1.09,17.965c-4.871,4.484,8.062,3.518,9.78,4.106,4.773-.07,9.267,2.326,14.093,1.817,3.317,1.383,10.426,2.471,10.7-3.823C34.142,18.936,18.976,18.775,22.035,16.332Zm-16.742,4.2c-.33-.3-.65-.55-.135-.817C5.709,19.551,5.956,20.082,5.293,20.529Z"/>
    <path d="M116.444,33.874c-3.816.887-11.546-5.915-12.155,1.879,4.622,3.183-3.2,2.159-4.822.685-.948-7.18,8.54-8.513,12.494-7.651,3.414-.31,8.047,7.72,9.456-.225-3.029-11.591-16.765-5.66-23.635-1.816-8.995,6.532-4.669,17.515,3.921,17.025,4.5.085,9.041-.568,13.137-3.336C117.056,40.371,119.8,33.4,116.444,33.874Z"/>
    <path d="M95.445,20.169c-.811-1.432-1.275-3.472-3.039-1.515-2.078,1-8.573,10.2-9.337,7.251-.853-3.812-.733-8.876-1.711-12.206-2.8-.114-4.113-1.309-6.882,1.484-3.361,3.184-13.7,9.86-13.782,15.328.243,1.483,1.087,1.563,2.531,2.366,1.28.711,1.712-.6,3.227-2.279,2.567-2.854,4.363-3.829,7.039-6.691,4.1-5.144,4.884,17.223,8.594,14.32C84.326,36.474,98.643,25.816,95.445,20.169Z"/>
    <path d="M64.031,9.125c-4.84-2.148-7.673,3.355-11.777,6.2C48.558,18.674,35.5,28.845,47.4,27.5A129.334,129.334,0,0,1,60.044,17.137C62.547,14.367,71.308,10.6,64.031,9.125Z"/>
    <path d="M134.264,30.864c-1.766.377-14.494,9.225-9.83,10.965,1.422.252,2.328,2.086,3.739-.256,3.013-2.22,5.921-5.268,8.888-7.819C138.781,32.152,135.243,30.8,134.264,30.864Z"/>
    <path d="M122.2,43.8c-2.035.268-4.632,2.926-3.775,5.658C121.178,51.747,127.709,44.422,122.2,43.8Z"/>
  </g>
</svg>
